<?xml version="1.0" encoding="utf-8"?>
<!-- Generator: Adobe Illustrator 16.0.0, SVG Export Plug-In . SVG Version: 6.00 Build 0)  -->
<!DOCTYPE svg PUBLIC "-//W3C//DTD SVG 1.1//EN" "http://www.w3.org/Graphics/SVG/1.1/DTD/svg11.dtd">
<svg version="1.1" id="Layer_1" xmlns="http://www.w3.org/2000/svg" xmlns:xlink="http://www.w3.org/1999/xlink" x="0px" y="0px"
	 width="225.5px" height="202.419px" viewBox="0 0 225.5 202.419" enable-background="new 0 0 225.5 202.419" xml:space="preserve">
<g>
	<path fill="#2B8D44" d="M112.973,201.919c-20.508,0-40.311-6.185-57.266-17.886c-17.328-11.959-30.277-28.782-37.445-48.652
		C-0.58,83.159,26.576,25.345,78.797,6.503C89.836,2.52,101.332,0.5,112.962,0.5c20.511,0,40.313,6.185,57.267,17.885
		c17.327,11.958,30.275,28.782,37.445,48.653c9.127,25.297,7.857,52.635-3.576,76.977s-31.662,42.774-56.959,51.901
		C136.1,199.899,124.605,201.919,112.973,201.919z M112.962,5.521c-11.048,0-21.97,1.919-32.461,5.705
		C30.885,29.129,5.083,84.06,22.985,133.676c13.645,37.815,49.808,63.222,89.988,63.222c11.049,0,21.971-1.92,32.461-5.705
		c24.036-8.672,43.256-26.185,54.119-49.313s12.07-49.103,3.397-73.137C189.307,30.929,153.143,5.521,112.962,5.521z"/>
</g>
<g>
	<path fill="#2B8D44" d="M112.889,194.955c-19.141,0-37.621-5.771-53.443-16.69c-16.168-11.158-28.251-26.858-34.941-45.402
		C6.92,84.129,32.262,30.178,80.995,12.595c10.303-3.718,21.03-5.603,31.883-5.603c19.139,0,37.619,5.771,53.441,16.692
		c16.17,11.158,28.253,26.858,34.943,45.4c17.583,48.733-7.759,102.685-56.49,120.269
		C134.468,193.071,123.742,194.955,112.889,194.955z M112.877,7.996c-10.736,0-21.348,1.865-31.541,5.543
		C33.125,30.934,8.053,84.309,25.448,132.521c13.258,36.744,48.398,61.431,87.441,61.431c10.736,0,21.348-1.864,31.541-5.542
		c48.211-17.396,73.282-70.771,55.887-118.982C187.06,32.684,151.92,7.996,112.877,7.996z"/>
</g>
<path fill="none" d="M51.798,163.272c23.239,23.359,58.757,32.545,91.798,20.623c34.161-12.325,55.953-43.705,57.721-77.832"/>
<text transform="matrix(0.9757 0.2189 -0.2189 0.9757 88.6416 185.6104)"><tspan x="0" y="0" fill="#2B8D44" font-family="'NuevaStd-Bold'" font-size="21.0906">A</tspan><tspan x="14.092" y="-0.147" fill="#2B8D44" font-family="'NuevaStd-Bold'" font-size="21.0906" rotate="-8.921">P</tspan><tspan x="27.071" y="-2.26" fill="#2B8D44" font-family="'NuevaStd-Bold'" font-size="21.0906" rotate="-17.923">R</tspan><tspan x="40.681" y="-6.746" fill="#2B8D44" font-family="'NuevaStd-Bold'" font-size="21.0906" rotate="-27.777">O</tspan><tspan x="54.472" y="-14.231" fill="#2B8D44" font-family="'NuevaStd-Bold'" font-size="21.0906" rotate="-37.388">V</tspan><tspan x="65.597" y="-22.881" fill="#2B8D44" font-family="'NuevaStd-Bold'" font-size="21.0906" rotate="-46.649">A</tspan><tspan x="75.306" y="-33.287" fill="#2B8D44" font-family="'NuevaStd-Bold'" font-size="21.0906" rotate="-56.419">D</tspan><tspan x="83.787" y="-46.315" fill="#2B8D44" font-family="'NuevaStd-Bold'" font-size="21.0906" rotate="-66.685">O</tspan></text>
<g>
	<path fill="#2B8D44" d="M112.985,168.077c-28.062,0-53.318-17.743-62.847-44.153c-12.503-34.651,5.517-73.016,40.169-85.519
		c7.326-2.644,14.955-3.984,22.672-3.984c28.063,0,53.318,17.744,62.848,44.153c6.057,16.787,5.214,34.927-2.373,51.079
		s-21.01,28.383-37.797,34.44C128.331,166.737,120.703,168.077,112.985,168.077z M112.979,35.426c-7.602,0-15.114,1.32-22.33,3.924
		c-34.132,12.315-51.881,50.103-39.566,84.233c9.386,26.013,34.262,43.49,61.902,43.49c7.602,0,15.115-1.32,22.331-3.924
		c16.534-5.966,29.756-18.014,37.229-33.923c7.474-15.909,8.303-33.777,2.337-50.312C165.497,52.903,140.62,35.426,112.979,35.426z"
		/>
</g>
<path fill="none" d="M41.592,93.316c1.904-25.594,19.479-49.422,46.478-59.163c27.847-10.047,57.548-2.16,75.192,17.635"/>
<text transform="matrix(0.5874 -0.8093 0.8093 0.5874 50.4756 64.5518)"><tspan x="0" y="0" fill="#2B8D44" font-family="'NuevaStd-Bold'" font-size="21.0906">A</tspan><tspan x="12.09" y="-0.002" fill="#2B8D44" font-family="'NuevaStd-Bold'" font-size="21.0906" rotate="9.456">P</tspan><tspan x="23.085" y="1.742" fill="#2B8D44" font-family="'NuevaStd-Bold'" font-size="21.0906" rotate="18.782">R</tspan><tspan x="34.606" y="5.543" fill="#2B8D44" font-family="'NuevaStd-Bold'" font-size="21.0906" rotate="28.869">O</tspan><tspan x="46.478" y="12.109" fill="#2B8D44" font-family="'NuevaStd-Bold'" font-size="21.0906" rotate="38.682">V</tspan><tspan x="55.887" y="19.575" fill="#2B8D44" font-family="'NuevaStd-Bold'" font-size="21.0906" rotate="48.125">A</tspan><tspan x="64.015" y="28.477" fill="#2B8D44" font-family="'NuevaStd-Bold'" font-size="21.0906" rotate="58.242">D</tspan><tspan x="71.055" y="39.701" fill="#2B8D44" font-family="'NuevaStd-Bold'" font-size="21.0906" rotate="69.135">O</tspan></text>
<g>
	<path fill="#2B8D44" d="M113.157,165.255c-26.977,0-51.258-17.059-60.418-42.447c-5.823-16.137-5.014-33.576,2.281-49.104
		c7.293-15.528,20.197-27.286,36.335-33.109c7.043-2.541,14.376-3.829,21.796-3.829c26.979,0,51.258,17.058,60.418,42.446
		c12.02,33.313-5.304,70.194-38.617,82.214C127.91,163.967,120.577,165.255,113.157,165.255z M113.151,39.275
		c-7.129,0-14.175,1.238-20.943,3.681C76.701,48.551,64.301,59.85,57.292,74.771c-7.008,14.921-7.786,31.679-2.191,47.186
		c8.803,24.396,32.134,40.788,58.057,40.788c7.129,0,14.175-1.238,20.943-3.681c32.011-11.55,48.657-46.989,37.107-79
		C162.405,55.667,139.074,39.275,113.151,39.275z"/>
</g>
<g>
	<path fill="#2B8D44" d="M222.928,82.304c1.797,4.98-0.784,10.477-5.766,12.274l-189.15,68.247
		c-4.98,1.797-10.477-0.784-12.274-5.766L3.168,122.223c-1.797-4.981,0.785-10.478,5.766-12.275l189.15-68.246
		c4.981-1.798,10.477,0.784,12.273,5.766L222.928,82.304z"/>
	<g>
		<g>
			<g>
				<g>
					<path fill="#459C5C" d="M225.005,80.888c0.235,0.758,0.532,0.348,0.643,0.435C225.112,80.107,224.915,80.956,225.005,80.888z"
						/>
					<polygon fill="#459C5C" points="219.673,68.912 219.913,69.072 218.864,67.401 					"/>
					<path fill="#459C5C" d="M215.531,57.409c-0.279,1.33,1.612,4.128,2.112,6.263l-0.031,0.393l0.874,0.729
						C217.502,62.335,215.976,59.23,215.531,57.409z"/>
					<path fill="#459C5C" d="M214.771,50.752c-0.125,0.473-0.704-1.245,0.434,1.46c-0.021-0.149-0.019-0.195-0.027-0.283
						C215.084,51.683,214.961,51.341,214.771,50.752z"/>
					<path fill="#459C5C" d="M215.177,51.93C215.633,53.134,215.111,51.057,215.177,51.93L215.177,51.93z"/>
					<path fill="#459C5C" d="M212.992,46.361l0.826,1.54c0.034-0.389-0.444-1.821-0.141-1.334c-0.047-0.102-0.09-0.196-0.13-0.282
						c-0.056-0.112-0.108-0.215-0.155-0.309c-0.097-0.187-0.179-0.334-0.248-0.447c-0.138-0.226-0.222-0.315-0.265-0.298
						C212.795,45.264,212.876,45.721,212.992,46.361z"/>
					<path fill="#459C5C" d="M211.649,44.74c0,0,0.627,0.91,0.601,0.925C212.248,45.457,212.112,45.183,211.649,44.74z"/>
					<path fill="#459C5C" d="M213.211,47.523c0,0-0.21-0.419-0.42-0.839c-0.271-0.51-0.541-1.02-0.541-1.02
						c0.016,0.335-0.187,0.439,0.485,0.958C212.484,46.549,212.803,46.83,213.211,47.523z"/>
					<path fill="#459C5C" d="M213.467,48.553c0.177,0.948,0.502,2.137-0.308,0.62C214.353,52.191,214.663,51.571,213.467,48.553z"/>
					<path fill="#459C5C" d="M214.625,57.072l0.235,1.267l0.598,0.954C215.16,58.816,214.808,56.922,214.625,57.072z"/>
					<path fill="#459C5C" d="M202.754,37.99c-0.15,0.131,0.699,0.482,0.812,0.725c0,0,0.401,0.04,0.803,0.079
						c0.398,0.075,0.796,0.149,0.796,0.149C204.419,38.546,202.852,38.201,202.754,37.99z"/>
					<path fill="#459C5C" d="M203.566,38.715c0,0-0.149-0.012-0.373-0.031c-0.224,0-0.523,0-0.822,0
						c-0.296-0.005-0.592,0.021-0.813,0.048c-0.22,0.023-0.367,0.039-0.367,0.039C203.277,38.834,203.663,38.938,203.566,38.715z"/>
					<path fill="#459C5C" d="M210.788,44.833c0,0,0.146,0.171,0.351,0.444c0.212,0.27,0.485,0.639,0.712,1.041
						c0.417,0.716,0.835,1.431,0.835,1.431s-0.11-0.204-0.276-0.51c-0.086-0.158-0.188-0.343-0.295-0.541
						c-0.129-0.224-0.267-0.463-0.404-0.703c-0.285-0.468-0.62-0.904-0.868-1.222c-0.269-0.303-0.448-0.505-0.448-0.505
						L210.788,44.833z"/>
					<polygon fill="#459C5C" points="194.367,39.589 195.248,38.898 193.647,40.04 					"/>
					<path fill="#459C5C" d="M189.922,41.259c0.641-0.541-1.181-0.098-0.46-0.548c-1.196,0.487-2.147,1.096-3.003,1.644
						C187.407,41.879,188.474,41.528,189.922,41.259z"/>
					<path fill="#459C5C" d="M185.003,43.227c0.471-0.244,0.942-0.547,1.455-0.873C185.955,42.607,185.469,42.885,185.003,43.227z"
						/>
					<path fill="#459C5C" d="M197.265,39.398c-0.172-0.036-0.513-0.168-1.537,0.093l0.838,0.151
						C196.779,39.569,197.021,39.484,197.265,39.398z"/>
					<path fill="#459C5C" d="M196.596,39.647l-0.029-0.004c-0.756,0.261-1.281,0.441-1.506,0.519
						C195.254,40.097,195.716,39.942,196.596,39.647z"/>
					<path fill="#459C5C" d="M197.488,39.331c-0.082,0.025-0.143,0.043-0.223,0.068C197.364,39.411,197.419,39.409,197.488,39.331z"
						/>
					<path fill="#459C5C" d="M206.866,40.623c-0.633-0.224-1.61-0.501-2.136-0.502c-0.533,0-0.551,0.103,0.543,0.701
						c0.462,0.032,0.391-0.131,0.429-0.26C205.738,40.448,205.908,40.306,206.866,40.623z"/>
					<path fill="#459C5C" d="M198.711,39.533c0,0,0.588-0.112,1.181-0.164c0.297-0.016,0.593-0.032,0.816-0.043
						c0.222-0.013,0.371,0.004,0.371,0.004c-0.045-0.113-0.495-0.277,0.173-0.396c0,0-0.164,0.019-0.41,0.047
						c-0.242,0.05-0.564,0.116-0.886,0.183c-0.321,0.057-0.628,0.176-0.861,0.245C198.865,39.483,198.711,39.533,198.711,39.533z"/>
					<path fill="#459C5C" d="M197.636,39.986c0,0,1.064-0.48,1.076-0.454c-0.006-0.024-0.86,0.207-0.86,0.207L197.636,39.986z"/>
					<path fill="#459C5C" d="M188.347,42.446c-0.746,0.466-1.625,0.801-2.615,1.189c1.1-0.307,2.223-0.665,3.274-1.045
						C189.109,42.411,189.489,42.018,188.347,42.446z"/>
					<path fill="#459C5C" d="M192.368,41.122c-0.054,0.027-0.122,0.062-0.172,0.088C192.319,41.204,192.412,41.182,192.368,41.122z"
						/>
					<path fill="#459C5C" d="M175.89,47.184c0.063,0.005,0.12,0.011,0.185,0.016c0.003-0.028,0.004-0.054,0.011-0.083L175.89,47.184
						z"/>
					<path fill="#459C5C" d="M189.213,42.601c0.833-0.213,1.279-0.485,1.693-0.774c-0.587,0.258-1.216,0.515-1.9,0.765
						C188.96,42.672,188.961,42.714,189.213,42.601z"/>
					<path fill="#459C5C" d="M182.325,44.406c0.45-0.067,0.951-0.167,1.475-0.282C183.344,44.145,182.436,44.248,182.325,44.406z"/>
					<path fill="#459C5C" d="M191.885,41.196c0.038-0.021,0.073-0.039,0.114-0.061C191.704,41.144,191.752,41.174,191.885,41.196z"
						/>
					<path fill="#459C5C" d="M191.885,41.196c-0.394,0.208-0.684,0.424-0.979,0.63c0.479-0.208,0.917-0.416,1.29-0.617
						C192.086,41.217,191.971,41.209,191.885,41.196z"/>
					<path fill="#459C5C" d="M173.839,50.839c0.008-0.424,2.001-1.532,3.973-1.792c1.698-0.928,0.08-1.729-1.737-1.848
						c0.002,0.183,0.057,0.333-1.715,1.221c0.722-0.031,4.278-1.005,2.838-0.105c-2.382,1.076-2.056,0.593-3.319,0.826
						c1.18,0.099-2.875,1.801-2.095,2.291l2.063-1.016C173.926,50.507,173.208,50.958,173.839,50.839z"/>
					<path fill="#459C5C" d="M179.615,45.965l0.744-0.321c-0.892,0.248-1.566,0.324-2.816,0.445
						c-1.202,0.639-1.414,0.872-1.457,1.028l3.769-1.301L179.615,45.965z"/>
					<path fill="#459C5C" d="M183.778,44.409c-0.448,0.62-2.215,1.453-0.937,1.487c2.225-0.834,1.444-0.903,2.716-1.561
						c-3.57,1.401,0.955-0.6-1.734,0.111c0.684-0.325,1.313-0.576,1.909-0.81c-0.667,0.185-1.315,0.35-1.932,0.488
						c0.036-0.001,0.062-0.003,0.092-0.004l0.017-0.008l-0.001,0.008c0.174-0.005,0.236,0.007,0.05,0.041
						c-0.01,0.01-0.053,0.027-0.072,0.035c-0.004,0.065-0.053,0.139-0.108,0.212c-1.075,0.293-0.202-0.046,0.108-0.212
						c0.005-0.024,0.026-0.053,0.022-0.076h-0.015l-3.533,1.525C181.145,45.425,182.097,45.068,183.778,44.409z"/>
					<path fill="#459C5C" d="M202.933,41.121c-0.112-0.061-0.103-0.091-0.107-0.124C202.563,41.026,202.468,41.036,202.933,41.121z"
						/>
					<path fill="#459C5C" d="M201.336,40.734c0.289-0.063,0.546-0.246,1.503-0.086c0.795,0.286-0.04,0.201-0.014,0.35
						c0.551-0.011,2.045,0.115,0.29-0.471c0,0-0.296-0.001-0.297,0.007c-0.809-0.174-1.77-0.397-2.517-0.454
						c-0.748-0.113-1.259-0.097-1.115-0.176C199.763,40.184,200.255,40.367,201.336,40.734z"/>
					<path fill="#459C5C" d="M192.355,42.442l-2.937,1.284l1.659-0.202l-0.154-0.182C192.665,42.807,192.201,42.681,192.355,42.442z
						"/>
					<polygon fill="#459C5C" points="175.473,47.106 175.717,46.534 174.198,47.765 					"/>
					<polygon fill="#459C5C" points="171.582,48.568 171.592,48.143 170.641,48.741 					"/>
					<path fill="#459C5C" d="M22.45,160.633c0,0,0.703,0.109,0.706,0.084C22.826,160.682,22.616,160.632,22.45,160.633z"/>
					<path fill="#459C5C" d="M18.58,157.469l-0.229-0.014C18.559,157.615,18.668,157.657,18.58,157.469z"/>
					<path fill="#459C5C" d="M75.583,83.252c-1.413,0.117-3.046,0.097-2.739,0.459l0.542,0.265
						C74.259,83.579,74.965,83.376,75.583,83.252z"/>
					<path fill="#459C5C" d="M10.706,109.414c0.137-0.004,0.28-0.008,0.422-0.012c0.262-0.253,0.508-0.491,0.729-0.704
						C11.51,108.914,11.117,109.158,10.706,109.414z"/>
					<path fill="#459C5C" d="M10.407,111.431c0,0-0.446,0.087-0.892,0.174c-0.371,0.08-0.742,0.16-0.742,0.16
						c0.178-0.02,0.385-0.054,0.626-0.106C9.685,111.594,10.018,111.518,10.407,111.431z"/>
					<path fill="#459C5C" d="M55.938,149.735l0.881-0.788C55.207,149.532,55.992,149.485,55.938,149.735z"/>
					<path fill="#459C5C" d="M131.596,63.165c-1.168,0.242-2.077,0.494-2.861,0.754C130.159,63.67,131.365,63.632,131.596,63.165z"
						/>
					<path fill="#459C5C" d="M18.038,163.516c0.632,0.333,0.933,0.401,0.966,0.303C18.356,163.519,17.976,163.34,18.038,163.516z"/>
					<path fill="#459C5C" d="M125.527,65.078c0.21-0.03,0.41-0.079,0.622-0.116c0.788-0.362,1.584-0.711,2.586-1.043
						C127.684,64.101,126.513,64.402,125.527,65.078z"/>
					<path fill="#459C5C" d="M182.82,104.337c0.099-0.015,0.213-0.046,0.305-0.055C183.133,104.217,183.004,104.26,182.82,104.337z"
						/>
					<path fill="#459C5C" d="M221.538,94.145c-0.168,0.16-0.398,0.361-0.656,0.579c-0.277,0.193-0.579,0.404-0.872,0.609
						C220.308,95.157,220.824,94.858,221.538,94.145z"/>
					<path fill="#459C5C" d="M155.788,54.065C156.608,53.739,155.903,53.973,155.788,54.065L155.788,54.065z"/>
					<path fill="#459C5C" d="M160.403,54.225c-0.16,0.109-0.273,0.216-0.259,0.318C160.176,54.419,160.269,54.315,160.403,54.225z"
						/>
					<path fill="#459C5C" d="M118.184,70.598c-0.024,0.008-0.044,0.015-0.072,0.025C118.388,70.613,118.34,70.613,118.184,70.598z"
						/>
					<path fill="#459C5C" d="M157.103,53.801c-0.329,0.063-0.703,0.15-1.104,0.262C156.182,54.032,156.518,53.956,157.103,53.801z"
						/>
					<path fill="#459C5C" d="M156.865,53.668c0.292-0.087,0.521-0.156,0.739-0.222C157.684,53.34,157.576,53.332,156.865,53.668z"/>
					<path fill="#459C5C" d="M154.641,54.504c0.472-0.177,0.921-0.318,1.358-0.441c-0.173,0.031-0.25,0.032-0.21,0.003
						C155.546,54.158,155.206,54.288,154.641,54.504z"/>
					<path fill="#459C5C" d="M115.296,129.936c0.059-0.008,0.126-0.017,0.191-0.026
						C116.263,129.438,115.905,129.598,115.296,129.936z"/>
					<path fill="#459C5C" d="M55.533,95.276c0.037-0.019,0.054-0.037,0.087-0.054c-0.041,0.009-0.091,0.021-0.128,0.03
						L55.533,95.276z"/>
					<path fill="#459C5C" d="M52.664,96.655c1.085-0.966,1.829-1.164,2.828-1.403l-1.41-0.821L52.664,96.655z"/>
					<path fill="#459C5C" d="M36.424,157.132l-2.224,0.389c2.307-1.515,4.208-1.965,2.058-1.773
						c0.166,1.384-8.081,3.064-7.912,4.445c0,0-0.369,0.057-0.738,0.114c-0.182,0.027-0.364,0.054-0.5,0.075
						c-0.105,0.002-0.175,0.004-0.175,0.004c0.137-0.03,0.236-0.081,0.354-0.144c0.108-0.057,0.216-0.113,0.414-0.177
						c-0.791,0.124-1.021,0.141-1.29,0.297c-0.255,0.111-0.431,0.282-0.638,0.482c-0.407,0.313-1.012,0.853-2.466,0.488
						c-0.995-0.305-1.532-0.786-0.858-0.7c0,0-0.137-0.013-0.333-0.069c-0.196-0.054-0.474-0.098-0.729-0.204
						c-0.265-0.086-0.53-0.183-0.716-0.282c-0.193-0.089-0.323-0.148-0.323-0.148c-0.493-0.434-0.228-0.491,0.266-0.109
						c0,0-0.184-0.099-0.425-0.296c-0.261-0.175-0.563-0.461-0.867-0.747c-0.586-0.597-1.017-1.325-1.017-1.326l0.046,0.002
						c-0.213-0.153-0.521-0.442-0.785-0.789c-0.281-0.321-0.578-0.86-0.758-1.132c-0.192-1.106,0.323,0.473,0.387,0.149
						l-1.127-2.154c-0.002-1.042,0.997,0.719,1.514,2.301c0.512-2.576-1-1.764-1.903-6.599l0.935,2.081
						c0.227-1.641-0.638-3.215-1.059-5.797c-0.029,0.659,0.608,5.253-0.597,2.909c-0.153-0.728-0.437-1.658-1.172-2.892
						c0.449-0.176-0.129-1.431-0.74-3.042l0.642-0.106c-0.806-1.689-1.062-1.44-1.705-2.374c-0.645-1.974-0.325-2.547-0.099-3.148
						c-1.033-3.162,0.032,2.429-1.417-1.231c-0.708-2.684-1.613-4.422-3.096-7.403c-0.45-1.895,0.483,0.186,0.419-0.529l-1.062-1.44
						c-0.131-0.399,0.062-0.325,0.16-0.288c-0.677-1.292-0.642,0.105-1.577-1.973c-0.217-0.084-0.365-0.423-0.49-0.92
						c-0.063-0.249-0.12-0.537-0.177-0.853c-0.028-0.158-0.057-0.323-0.087-0.493c-0.013-0.147-0.027-0.299-0.042-0.455
						c-0.13-1.248,0.028-2.559-0.129-3.757c0.29-0.517,0.331,0.339,0.609,0.209c0.032-1.504,0.341-2.151,0.504-2.734
						c0.25-0.555,0.35-1.121,1.133-2.31c0,0,0.129-0.074,0.324-0.186c0.185-0.122,0.463-0.235,0.729-0.354
						c0.536-0.233,1.088-0.381,1.088-0.38c-0.832,0.171-0.897-0.086-0.48-0.611c0.398-0.496,1.443-1.147,2.413-1.739
						c-0.74,0.02-1.375,0.034-1.787,0.079l3.215-1.525c0.438-0.046,0.177,0.281-0.278,0.73c0.208-0.136,0.404-0.264,0.559-0.365
						c1.272-0.208,0.779,0.363,0.047,1.006c-0.449,0.021-0.897,0.042-1.334,0.063c-0.691,0.662-1.315,1.345-1.017,1.635
						c0.191-0.147,0.587-0.357,1.034-0.556c-0.18,0.177-0.285,0.314-0.164,0.339c0.136,0.023,0.436-0.236,0.925-0.586l1,0.397
						l0.088-0.333l4.511-1.153c2.875-1.801,5.229-3.773,10.08-5.836c-1.05,0.935,0.026,0.899,0.169,1.506
						c-1.573-0.13-3.739,1.646-6.35,2.446c1.362-0.418,1.168-0.035,0.863,0.186l4.373-2.212c0.068,0.514,1.101,0.007,2.367-0.227
						c-1.244-0.616,3.184-1.858,4.942-2.819c0.229,0.274-0.101,0.758-2.399,1.502c2.762-0.195,2.839-2.275,5.517-2.56
						c-0.552,0.208-0.869,0.267-1.03,0.506c1.194-0.749,4.442-1.668,3.796-1.124l-0.551,0.206
						c3.722-1.217,11.211-4.038,11.472-5.036c0.074,0.09-0.135,1.139-0.299,1.38l5.599-5.063c-0.331,0.896,2.481,1.731-0.432,3.221
						c0.912-0.219,2.038-0.496,3.799-1.405c-0.633,0.118-1.85-0.456-1.055-0.813c2.52-0.044,1.705-0.152,4.706-0.498
						c-0.949,0.176-0.342-1.261,1.087-1.738c-0.163,0.241,0.501,1.021,0.024,1.32l3.145-2.33c-0.812,0.508,0.168,0.953,1.065,0.967
						c-0.441-0.075,3.055-1.08,3.958-1.524l-1.583,0.294c4.039-1.276,3.396-2.906,7.365-4.276c-0.399,0.391-0.695,1.771,1.361,1.179
						c0.725-0.874,3.136-4.076,6.48-5.754l0.782,0.068l2.554-1.32c-1.375,1.417-5.441,4.823-7.759,6.414
						c1.578-0.292,0.546,0.215,2.768-0.618c0.893,0.006-1.057,0.879-1.708,1.133l5.262-1.687c-0.459-0.549,3.744-2.068,3.355-2.523
						l-5.406,2.691c-0.457-0.549,2.615-2.972,6.336-4.189c1.027-0.086-0.294,1.378-0.142,1.562c0.399-0.39,3.343-1.676,3.737-1.644
						l-1.439,0.901c2.135-0.501,3.042-2.045,5.722-2.33c0.865-0.266,2.832-0.102,2.844-0.528c-1.646-0.222-2.723-2.356-1.995-3.231
						c0.315-0.059,4.711-0.92,5.811-0.914c1.604,0.061-1.615,2.107-0.248,2.163c-0.011-0.191,0.685-0.683,0.983-0.868
						c0.945-0.174-0.177,0.668,1.734-0.109c0.092-0.758,3.964-1.369,0.721-0.873c1.831-0.868,2.064-0.596,4.281-1.427
						c-0.858-0.159,1.492-2.132,3.326-3c-0.053,0.204,0.451,0.262,0.692,0.284c3.91-1.345,6.103-1.807,9.731-3.109
						c0.391,0.034,2.208-0.409,1.562,0.136c0.481-0.302,0.881-0.692,1.995-1.111c2.364-0.227-2.463,0.986-0.573,1.056
						c0.007-0.423,2.708-1.558,4.216-2.365c-0.697-0.398-3.72,1.218-5.232,2.026c-0.293-0.791,2.184-2.625,5.842-4.359
						c2.94-1.284,1.491,0.042,1.973-0.26c5.708-1.902,4.32-3.125,9.225-4.248c2.046-0.167,0.447,0.977,0.992,1.192
						c-2.385,1.077-3.883,1.038-5.539,1.659l2.134-0.5c-0.72,0.45-2.312,1.168-3.257,1.344c1.727-0.109,9.59-3.361,14.107-4.517
						c0.714-0.45,1.99-1.108,1.283-1.083l-1.355,0.569c-1.417,0.05,2.396-1.502,0.579-1.062c1.75-0.956,3.664-2.156,6.355-2.866
						l0.698,0.399c-0.117-0.148-1.829,0.272-2.499,0.712c0.995-0.648,4.281-0.663,5.2-1.848l-1.973,0.26
						c1.756-0.961,3.834-2.403,6.212-3.055c-1.257-0.19-0.509,0.257-2.393,0.184c1.723,0.315-5.926,2.099-3.324,2.145
						c-1.964-0.166-3.036,0.724-5.477,0.86c0.137,0.166,0.912,0.082-1.063,0.688c-0.067,0.087-0.249,0.232-0.365,0.321
						c-0.062,0.015-0.083,0.021-0.136,0.033c0.042-0.006,0.074-0.01,0.115-0.016c-0.074,0.059-0.079,0.067,0.043-0.007
						c0.492-0.083,0.902-0.119,1.093-0.067c-0.805,0.784-3.896,1.884-4.858,2.487c-1.185,0.325,0.402-0.393-0.299-0.368l-1.437,0.9
						c-0.307-0.367-3.313,0.402-0.689-0.824l-2.449,0.862c-1.523,0.282-3.534,0.901-4.689,1.519
						c-1.185,0.324-2.74,1.517-1.856,0.825l-3.735,1.643l-0.073-0.093c-3.797,1.31-7.525,3.505-12.119,4.302
						c-1.234,0.565-2.501,1.17-4.672,1.818l-0.546-0.216c-1.587,0.717-5.036,1.404-5.601,2.038
						c-2.117-0.348-8.003,2.645-10.938,3.507l0.064,0.516c-1.987,0.687-3.834,1.506-6.219,2.583l0.303,0.368
						c-1.991,1.109-5.547,1.663-8.878,2.913c0.169-0.243,1.033-0.507,1.669-0.626c-4.342,0.49-8.185,3.736-12.062,4.351
						c-0.848,0.479-1.521,0.663-2.193,0.785c0.083-0.031,0.156-0.066,0.216-0.102c-0.093,0.032-0.231,0.08-0.373,0.128
						c-0.425,0.071-0.866,0.135-1.336,0.228c0.416-0.034,0.808-0.08,1.137-0.155c-0.694,0.26-1.731,0.694-2.729,1.173l-0.604-0.294
						c-0.083,0.035-0.149,0.063-0.235,0.1c-1.077,0.199-0.74,0.509-0.075,0.654c-0.495,0.263-0.94,0.524-1.271,0.768
						c-1.09-0.434-2.629,1.227-4.038,0.853c-0.561,0.632-5.104,2.166-5.368,3.165c-0.073-0.091-0.396-0.031,0.161-0.239
						c-1.188,0.326-2.375,0.651-3.329,1.25l-0.698-0.399l-2.243,1.684c-1.659,0.202-2.367,0.228-1.005-0.765
						c-3.428,2.007-2.888,1.332-5.768,3.135l0.018-0.427c-1.111,0.417-2.716,1.56-3.501,1.495
						c-2.753,0.194-12.395,4.362-19.044,6.018c1.64,0.647-3.157,0.584-3.105,1.525c-0.467-0.125-1.414,0.052-0.457-0.549
						c-3.18,1.436-5.064,1.363-7.065,2.895c-0.469-0.125,0.563-0.633,0.174-0.667c-0.243,0.151-0.958,0.601-1.354,0.569
						c-0.389-0.034,0.4-0.39,0.877-0.69c-3.327,1.25-3.376,2.171-3.349,3.009c-1.822,0.256-2.649,0.611-3.694,1.544
						c-0.326-0.029-0.8,0.021-0.917-0.049c-0.118-0.071,0.208-0.324,1.207-0.723c-0.305,0.106-0.854,0.247-1.736,0.602
						c-0.834,0.342-1.787,0.869-2.58,1.54c-0.819,0.641-1.444,1.432-1.852,2.047c-0.369,0.647-0.547,1.106-0.414,1.223
						c-0.377,0.299-0.924,1.765-0.911,2.154c-0.466,1.51-0.548,2.389-0.56,3.244c-0.015,0.854,0.038,1.729,0.498,3.216
						c0,0-0.037-0.213-0.075-0.427c-0.042-0.211-0.046-0.43-0.046-0.43c1.028,1.021,0.902,2.233,1.729,4.303l-0.096-0.033
						c1.194,4.948,0.992,1.964,2.089,6.875l0.359-0.418c1.128,0.088,0.928,4.367,2.283,6.958L7.9,137.907
						c0.869,1.369,0.181,4.636,0.599,6.174c0.033,0.356-0.321-0.465-0.548-0.897c0.84,4.119,0.774,0.293,1.963,3.16
						c-0.125,0.652-1.061-0.401-0.412,1.583c0.095,1.071,3.089,5.319,3.443,8.217c0.033-0.678,0.067-1.353,0.74-0.065
						c0.223,0.529,0.353,1.098,0.577,1.856c0.231,0.782,0.533,1.625,0.982,2.389c0.851,1.555,2.23,2.81,3.459,3.071
						c0.237,0.247,0.319,0.36,0.299,0.423c0.922,0.432,2.485,0.981,4.001,1.09c1.517,0.143,2.906-0.184,3.427-0.484
						c0.246,0.161,0.626,0.241,1.097,0.229c0.445-0.037,1.068-0.167,1.528-0.331c1.002-0.334,2.152-0.86,3.255-1.374
						c2.205-1.027,4.216-2.001,4.458-1.276l4.853-1.838l-0.075,0.193c3.155-1.03,4.133-1.773,5.105-2.514
						c0.756-0.163,0.278,0.162,0.246,0.259c4.664-1.355,5.095-1.58,8.659-3.675l0.566,0.323c0.938-0.645,6.854-1.647,11.129-3.804
						c-0.025,0.069-0.084,0.193-0.416,0.386c4.833-2.362,12.51-3.051,13.741-5.415l3.168-1.616
						c-4.342,1.417,0.374-0.967-1.495-0.612c1.653-0.709,4.551-1.063,2.507-0.227l-0.355,0.032c-0.443,1.16,5.45-1.612,5.552-0.967
						c8.436-3.093,16.849-5.575,24.779-8.394l-1.16-0.359l2.776-0.957c0.783-0.101,1.167,0.187-0.813,0.87
						c1.176,0.016,3.186-1.519,3.188-1.688c3.958-1.113-1.217,1.346-0.028,0.935l1.588-0.63l-0.392,0.05
						c1.201-0.751,1.209-1.091,3.589-1.911c1.548-0.403,0.921,0.147,1.521-0.039c0.014,0.05,0.222,0.001,0.912-0.307l3.5-1.197
						l-1.587-0.041c1.445-0.824,3.281-1.152,1.454-1.188c2.699,0.099,13.1-4.342,14.653-4.569c2.017-1.176,4.151-1.938,6.809-2.843
						c-0.698,0.124-1.311-0.345,0.994-1.092c-0.378,1.561,4.368-0.958,6.536-0.715c-1.862-0.008,6.421-2.485,3.532-2.407
						c1.937-0.584,0.286,0.43,1.834,0.206c4.347-2.121,10.083-3.28,15.615-5.462c0.028-0.196-1-0.112,0.11-0.791l3.251-0.238
						c1.075-0.479,0.672-1.322,2.896-1.476c-0.334-0.037-0.836-0.092-0.114-0.413c5.622-1.573,11.158-3.757,16.748-5.86
						c2.794-1.051,5.603-2.083,8.441-3.007c1.419-0.462,2.846-0.898,4.283-1.296c0.718-0.199,1.439-0.389,2.163-0.567
						c0.382-0.103,0.68-0.147,1.132-0.29c0.433-0.137,0.881-0.251,1.302-0.44c-0.957,0.311-1.154,0.227-0.925,0.093
						c0.235-0.135,0.828-0.475,1.466-0.841c-0.864,0.403-0.2-0.38-0.488-0.488c0,0,1.301-0.575,2.418-1.519
						c0.291-0.222,0.552-0.475,0.794-0.72c0.252-0.237,0.468-0.477,0.64-0.694c0.366-0.42,0.572-0.732,0.573-0.731
						c-0.01-0.625,0.649-2.021,0.912-3.496c0.289-1.464,0.188-2.926-0.174-3.176c0.042-0.008,0.189,1.773,0.147,1.778
						c-0.355-1.204-0.73-0.325-1.293,0.562c-0.563,0.917-1.375,1.781-1.773,1.48c0.074,1.12-0.941,2.284-2.175,3.099
						c-0.629,0.406-1.29,0.777-1.985,1.106c-0.335,0.2-0.689,0.324-1.049,0.552c-0.427,0.218-0.843,0.475-1.242,0.78
						c-0.862,0.103,0.574-0.536,0.073-0.591c-0.774,0.716-1.848,1.194-3.954,1.759l0.196-0.179
						c-5.708,2.166-8.308,2.674-14.85,4.748l0.639,0.273c-1.408,0.44-1.75,0.406-2.439,0.529c-1.347,1.249,3.907-1.367,2.727-0.099
						c-2.166-0.243-9.78,3.513-11.395,2.932c-2.135,0.764,0.811,0.29-1.323,1.053l-0.666-0.075l-0.409,0.554
						c-1.419,0.445-2.25,0.351-2.388,0.134c0.35-0.094,0.94-0.414,1.297-0.565c-1.932,0.326-5.072,1.956-5.733,2.074l2.111-0.568
						c-5.726,2.361-12.964,4.559-18.382,7.154l0.503,0.057c-4.153,1.938-3.522,1.01-8.172,2.89l0.153-0.112
						c-0.868,0.55-2.089,1.11-3.388,1.552c1.102-0.676-2.413,0.33-0.95-0.506c-4.505,2.098-2.185,1.159-4.978,3.05l-0.834-0.093
						c-0.935,0.693-0.962,0.891-3.284,1.831c1.823-0.996-1.695,0.011,0.326-1.166c-5.215,1.02-7.058,3.417-9.727,3.12
						c-1.921,1.784,4.469-1.006,3.272-0.342c1.178-0.068-1.612,1.397-3.197,1.86c-1.586,0.548-3.129-0.267-7.093,1.184
						c0.396-0.138,0.397-0.22,0.792-0.358c-1.575,0.29-2.791,1.383-4.758,1.641c-0.811,0.952-2.378,0.82-2.404,1.671l3.58-1.486
						c-1.995,0.939-3.616,2.509-7.169,3.314c0.211-0.246,1.151-0.809,1.807-1.169c-1.074,0.139-1.863,0.836-2.976,0.982
						c0.025-0.851,4.368-1.759,6.375-3.125c-1.181,0.071-3.989,2.05-3.169,0.841c-1.228,1.603-3.958,1.282-6.364,3.036l0.017-0.51
						c-0.4,0.223-1.206,0.752-1.993,1.023l1.209-1.09c-1.999,1.279-4.352,1.083-6.343,2.104c4.367-1.591,1.175,0.184,3.142-0.157
						c-5.176,2.542-3.522-0.049-9.481,2.343c0.794-0.358,3.165-0.839,1.961-0.171c-1.182,0.323-2.762,0.699-3.551,0.719
						c-3.966,1.535,0.78,0.237-0.824,1.126c-1.558-0.053-1.884,0.93-3.575,1.736l-0.176-0.449c-4.663,1.353-0.867,1.382-5.097,2.51
						l1.507-1.255l-2.08,0.934l0.255-0.675c-2.189,1.223-2.95,1.385-5.282,2.063c0.646,0.128,0,0.931-2.014,1.674
						c-1.474,0.227,0.615-0.71-2.222,0.388c0.543-0.517,1.122-1.129,2.518-1.16c0.075-0.194,0.535-0.515,0.613-0.708
						c-1.594,0.225-3.751,1.273-4.786,1.651c0.405-0.127,0.89-0.274,1.158-0.298l-3.921,2.125c-0.714,0.065-0.246-0.258,0.219-0.578
						c-0.823,0.353-1.329,0.771-2.55,1.255c0.187-0.484-0.027-0.837,1.659-1.641l-3.805,1.835c-0.321-0.065-2.187,0.292-1.723-0.03
						c-2.27,0.574-5.117,2.655-8.125,3.417c-0.125,0.126-0.403,0.304-1.001,0.579c-2.76,0.901-5.342,1.322-8.395,2.995l-2.075,0.001
						c-2.479,1.064,2.786-0.064-1.343,1.708c-2.912,1.289-1.318-0.162-2.433,0.033c-1.366,0.869-3.704,2.479-6.643,2.931
						C34.845,157.647,35.592,157.488,36.424,157.132z M14.971,148.487c0.313,0.571,1.043,1.672,0.936,2.211
						C15.138,150.197,15.194,149.573,14.971,148.487z M15.622,108.626c-0.396,0.313-1.119,0.49-1.967,0.601
						C14.212,108.984,14.863,108.768,15.622,108.626z M146.833,57.714c-0.023,0.017-0.039,0.028-0.057,0.045
						C145.362,58.07,145.866,57.966,146.833,57.714z M149.709,56.899c0.259-0.166,0.217-0.221,0.075-0.242
						c-0.154,0.186-0.781,0.421-1.51,0.647C148.516,57.351,148.908,57.303,149.709,56.899z M125.254,129.794l-0.589,0.079
						C125.851,129.297,125.548,129.54,125.254,129.794z"/>
					<path fill="#459C5C" d="M10.459,111.19c-0.199-0.015-0.277-0.083-0.348-0.153C9.9,111.2,9.927,111.29,10.459,111.19z"/>
					<path fill="#459C5C" d="M55.775,149.881l0.097-0.029c0.043-0.046,0.061-0.084,0.066-0.117L55.775,149.881z"/>
					<path fill="#459C5C" d="M107.645,76.424c-0.601,0.143-0.954,0.176-1.198,0.167C106.455,76.714,106.751,76.713,107.645,76.424z"
						/>
					<path fill="#459C5C" d="M164.296,50.764l-1.754,0.766c0.861-0.336,1.207-0.349,1.672-0.435
						C164.136,51.003,163.737,50.974,164.296,50.764z"/>
					<path fill="#459C5C" d="M180.906,47.945c0.242-0.151,0.555-0.208,0.793-0.357l-0.148-0.185
						C180.438,47.82,179.717,48.273,180.906,47.945z"/>
					<path fill="#459C5C" d="M166.504,51.671c0.28,0.331,1.361-0.206,2.594-0.73c-0.075,0.029-0.146,0.058-0.223,0.08
						C169.053,50.353,167.776,51.014,166.504,51.671z"/>
					<path fill="#459C5C" d="M169.385,50.823c0.381-0.158,0.774-0.311,1.16-0.43C170.615,50.126,170.057,50.519,169.385,50.823z"/>
					<path fill="#459C5C" d="M153.176,55.362c0.633-0.117,0.199-0.623,0.593-0.59C154.26,54.046,150.001,56.796,153.176,55.362z"/>
					<polygon fill="#459C5C" points="167.977,52.562 167.355,52.253 166.788,52.888 					"/>
					<path fill="#459C5C" d="M157.914,55.801l2.058-0.595c-0.059-0.068,0.18-0.207,0.48-0.355
						C159.208,55.283,157.816,55.679,157.914,55.801z"/>
					<path fill="#459C5C" d="M160.453,54.851c0.649-0.224,1.26-0.456,1.59-0.662C161.696,54.32,160.95,54.607,160.453,54.851z"/>
					<polygon fill="#459C5C" points="165.279,53.695 164.648,53.811 163.216,54.289 					"/>
					<path fill="#459C5C" d="M136.261,63.511l-2.146,0.927c-0.166,0.243,0.468,0.125,1.262-0.234
						C135.862,63.902,136.654,63.546,136.261,63.511z"/>
					<path fill="#459C5C" d="M143.365,62.406c-0.629,0.117-0.707,0.026-1.097-0.008l0.144,0.608L143.365,62.406z"/>
					<path fill="#459C5C" d="M137.013,64.853c-0.16,0.241-3.018,1.615-0.249,0.574C136.928,65.186,139.078,64.258,137.013,64.853z"
						/>
					<polygon fill="#459C5C" points="103.673,76.046 104.228,75.838 103.802,74.909 					"/>
					<path fill="#459C5C" d="M75.349,88.856c2.684-0.709,0.404-0.814,2.858-1.375c0.528-0.447-2.006,0.459-1.45,0.037
						C75.273,88.324,74.4,88.486,75.349,88.856z"/>
					<path fill="#459C5C" d="M76.757,87.518c0.238-0.128,0.488-0.27,0.749-0.435C77.073,87.308,76.875,87.431,76.757,87.518z"/>
					<path fill="#459C5C" d="M225.779,87.536c0,0,0.048-0.133,0.085-0.34c0.042-0.208,0.097-0.484,0.152-0.761
						c0.1-0.557,0.134-1.129,0.134-1.129s-0.088,0.364-0.175,0.728c-0.091,0.359-0.226,0.704-0.227,0.704
						C225.749,86.737,225.798,87.537,225.779,87.536z"/>
					<path fill="#459C5C" d="M224.975,83.415c0,0,0.134-0.155,0.269-0.311c0.133-0.163,0.266-0.325,0.266-0.325
						c0,0-0.226-0.287-0.462-0.553c-0.234-0.259-0.467-0.518-0.467-0.518C224.754,82.147,225.076,83.026,224.975,83.415z"/>
					<path fill="#459C5C" d="M14.524,143.396l-0.193-0.075c-0.065,0.316,0.064,0.712,0.322,1.505L14.524,143.396z"/>
					<path fill="#459C5C" d="M24.153,160.347l-0.281-0.041c0,0,0.118,0.159,0.236,0.317c0.129,0.163,0.259,0.325,0.259,0.325
						s-0.056-0.151-0.112-0.302C24.204,160.497,24.153,160.347,24.153,160.347z"/>
					<path fill="#459C5C" d="M41.818,153.848c-0.785,0.257-1.654,0.71-2.443,0.969C41.033,154.105,42.277,154.46,41.818,153.848z"/>
				</g>
			</g>
		</g>
	</g>
</g>
<polygon fill="#2B8D44" points="93.565,46.719 97.707,52.05 104.055,49.759 100.266,55.345 104.407,60.676 97.922,58.797 
	94.132,64.382 93.916,57.636 87.432,55.757 93.782,53.466 "/>
<polygon fill="#2B8D44" points="76.837,59.757 81.036,62.108 84.57,58.842 83.63,63.562 87.829,65.913 83.05,66.479 82.112,71.197 
	80.097,66.827 75.319,67.394 78.852,64.127 "/>
<polygon fill="#2B8D44" points="66.752,73.035 70.557,74 72.651,70.68 72.909,74.596 76.711,75.561 73.067,77.016 73.325,80.931 
	70.815,77.915 67.17,79.37 69.264,76.051 "/>
<polygon fill="#2B8D44" points="114.309,45.703 112.579,50.193 107.774,49.936 111.51,52.969 109.78,57.459 113.819,54.843 
	117.554,57.875 116.315,53.226 120.354,50.61 115.549,50.354 "/>
<polygon fill="#2B8D44" points="130.547,49.483 128.236,52.655 124.505,51.437 126.807,54.615 124.497,57.786 128.23,56.579 
	130.532,59.757 130.538,55.833 134.271,54.626 130.542,53.408 "/>
<polygon fill="#2B8D44" points="132.874,156.557 128.733,151.226 122.383,153.517 126.173,147.932 122.032,142.601 128.516,144.479 
	132.307,138.894 132.523,145.641 139.006,147.519 132.657,149.81 "/>
<polygon fill="#2B8D44" points="149.602,143.519 145.403,141.167 141.87,144.434 142.808,139.714 138.61,137.363 143.389,136.798 
	144.328,132.079 146.342,136.448 151.12,135.883 147.586,139.148 "/>
<polygon fill="#2B8D44" points="159.686,130.241 155.881,129.276 153.789,132.596 153.531,128.68 149.727,127.716 153.372,126.26 
	153.114,122.345 155.624,125.36 159.268,123.905 157.174,127.225 "/>
<polygon fill="#2B8D44" points="112.129,157.572 113.86,153.082 118.665,153.34 114.929,150.308 116.659,145.817 112.62,148.433 
	108.885,145.4 110.125,150.05 106.085,152.665 110.891,152.923 "/>
<polygon fill="#2B8D44" points="95.891,153.792 98.204,150.62 101.934,151.84 99.631,148.661 101.943,145.49 98.208,146.697 
	95.908,143.519 95.902,147.442 92.168,148.649 95.898,149.868 "/>
<g>
	
		<text transform="matrix(0.9443 -0.329 0.329 0.9443 40.1904 140.0562)" fill="#FFFFFF" font-family="'NuevaStd-Bold'" font-size="33.1533">APROVADO</text>
</g>
</svg>
