<?xml version="1.0" encoding="utf-8"?>
<!-- Generator: Adobe Illustrator 16.0.0, SVG Export Plug-In . SVG Version: 6.00 Build 0)  -->
<!DOCTYPE svg PUBLIC "-//W3C//DTD SVG 1.1//EN" "http://www.w3.org/Graphics/SVG/1.1/DTD/svg11.dtd">
<svg version="1.1" id="Layer_1" xmlns="http://www.w3.org/2000/svg" xmlns:xlink="http://www.w3.org/1999/xlink" x="0px" y="0px"
	 width="225.5px" height="202.419px" viewBox="0 0 225.5 202.419" enable-background="new 0 0 225.5 202.419" xml:space="preserve">
<g>
	<path fill="#3B1211" d="M112.376,202.419c-20.508,0-40.311-6.185-57.266-17.886c-17.328-11.959-30.277-28.782-37.445-48.652
		C-1.177,83.659,25.979,25.845,78.2,7.003C89.239,3.02,100.734,1,112.365,1c20.511,0,40.313,6.185,57.267,17.885
		c17.327,11.958,30.275,28.782,37.445,48.653c9.127,25.297,7.857,52.635-3.576,76.977s-31.662,42.774-56.959,51.901
		C135.503,200.399,124.008,202.419,112.376,202.419z M112.365,6.021c-11.048,0-21.97,1.919-32.461,5.705
		C30.288,29.629,4.485,84.56,22.388,134.176c13.645,37.815,49.808,63.222,89.988,63.222c11.049,0,21.971-1.92,32.461-5.705
		c24.036-8.672,43.256-26.185,54.119-49.313s12.07-49.103,3.397-73.137C188.71,31.429,152.546,6.021,112.365,6.021z"/>
</g>
<g>
	<path fill="#3B1211" d="M112.292,195.455c-19.141,0-37.621-5.771-53.443-16.69c-16.168-11.158-28.251-26.858-34.941-45.402
		C6.323,84.629,31.665,30.678,80.397,13.095c10.303-3.718,21.03-5.603,31.883-5.603c19.139,0,37.619,5.771,53.441,16.692
		c16.17,11.158,28.253,26.858,34.943,45.4c17.583,48.733-7.759,102.685-56.49,120.269
		C133.871,193.571,123.145,195.455,112.292,195.455z M112.28,8.496c-10.736,0-21.348,1.865-31.541,5.543
		C32.527,31.434,7.456,84.809,24.851,133.021c13.258,36.744,48.398,61.431,87.441,61.431c10.736,0,21.348-1.864,31.541-5.542
		c48.211-17.396,73.282-70.771,55.887-118.982C186.463,33.184,151.323,8.496,112.28,8.496z"/>
</g>
<path fill="none" d="M51.201,163.772c23.239,23.359,58.757,32.545,91.798,20.623c34.161-12.325,55.953-43.705,57.721-77.832"/>
<text transform="matrix(0.962 0.2731 -0.2731 0.962 83.7935 184.6797)"><tspan x="0" y="0" fill="#3B1211" font-family="'NuevaStd-Bold'" font-size="21.0906">C</tspan><tspan x="13.235" y="-0.079" fill="#3B1211" font-family="'NuevaStd-Bold'" font-size="21.0906" rotate="-8.936">A</tspan><tspan x="27.26" y="-2.396" fill="#3B1211" font-family="'NuevaStd-Bold'" font-size="21.0906" rotate="-18.424">N</tspan><tspan x="41.002" y="-7.154" fill="#3B1211" font-family="'NuevaStd-Bold'" font-size="21.0906" rotate="-27.566">C</tspan><tspan x="52.551" y="-13.253" fill="#3B1211" font-family="'NuevaStd-Bold'" font-size="21.0906" rotate="-36.388">E</tspan><tspan x="62.658" y="-20.734" fill="#3B1211" font-family="'NuevaStd-Bold'" font-size="21.0906" rotate="-43.985">L</tspan><tspan x="71.705" y="-29.539" fill="#3B1211" font-family="'NuevaStd-Bold'" font-size="21.0906" rotate="-52.765">A</tspan><tspan x="80.264" y="-40.943" fill="#3B1211" font-family="'NuevaStd-Bold'" font-size="21.0906" rotate="-62.545">D</tspan><tspan x="87.302" y="-54.787" fill="#3B1211" font-family="'NuevaStd-Bold'" font-size="21.0906" rotate="-72.778">O</tspan></text>
<g>
	<path fill="#3B1211" d="M112.388,168.577c-28.062,0-53.318-17.743-62.847-44.153C37.038,89.772,55.058,51.408,89.71,38.905
		c7.326-2.644,14.955-3.984,22.672-3.984c28.063,0,53.318,17.744,62.848,44.153c6.057,16.787,5.214,34.927-2.373,51.079
		s-21.01,28.383-37.797,34.44C127.733,167.237,120.105,168.577,112.388,168.577z M112.382,35.926c-7.602,0-15.114,1.32-22.33,3.924
		C55.92,52.165,38.171,89.952,50.485,124.083c9.386,26.013,34.262,43.49,61.902,43.49c7.602,0,15.115-1.32,22.331-3.924
		c16.534-5.966,29.756-18.014,37.229-33.923c7.474-15.909,8.303-33.777,2.337-50.312C164.899,53.403,140.022,35.926,112.382,35.926z
		"/>
</g>
<path fill="none" d="M40.995,93.816c1.904-25.594,19.479-49.422,46.478-59.163c27.847-10.047,57.548-2.16,75.192,17.635"/>
<text transform="matrix(0.5374 -0.8433 0.8433 0.5374 48.0737 68.3584)"><tspan x="0" y="0" fill="#3B1211" font-family="'NuevaStd-Bold'" font-size="21.0906">C</tspan><tspan x="11.229" y="-0.079" fill="#3B1211" font-family="'NuevaStd-Bold'" font-size="21.0906" rotate="9.566">A</tspan><tspan x="23.135" y="1.859" fill="#3B1211" font-family="'NuevaStd-Bold'" font-size="21.0906" rotate="19.441">N</tspan><tspan x="34.945" y="6.04" fill="#3B1211" font-family="'NuevaStd-Bold'" font-size="21.0906" rotate="28.85">C</tspan><tspan x="44.801" y="11.493" fill="#3B1211" font-family="'NuevaStd-Bold'" font-size="21.0906" rotate="36.995">E</tspan><tspan x="53.332" y="17.908" fill="#3B1211" font-family="'NuevaStd-Bold'" font-size="21.0906" rotate="45.577">L</tspan><tspan x="60.869" y="25.452" fill="#3B1211" font-family="'NuevaStd-Bold'" font-size="21.0906" rotate="54.568">A</tspan><tspan x="67.965" y="35.237" fill="#3B1211" font-family="'NuevaStd-Bold'" font-size="21.0906" rotate="64.761">D</tspan><tspan x="73.674" y="47.158" fill="#3B1211" font-family="'NuevaStd-Bold'" font-size="21.0906" rotate="75.701">O</tspan></text>
<g>
	<path fill="#3B1211" d="M112.56,165.755c-26.977,0-51.258-17.059-60.418-42.447c-5.823-16.137-5.014-33.576,2.281-49.104
		c7.293-15.528,20.197-27.286,36.335-33.109c7.043-2.541,14.376-3.829,21.796-3.829c26.979,0,51.258,17.058,60.418,42.446
		c12.02,33.313-5.304,70.194-38.617,82.214C127.313,164.467,119.979,165.755,112.56,165.755z M112.554,39.775
		c-7.129,0-14.175,1.238-20.943,3.681C76.104,49.051,63.704,60.35,56.694,75.271c-7.008,14.921-7.786,31.679-2.191,47.186
		c8.803,24.396,32.134,40.788,58.057,40.788c7.129,0,14.175-1.238,20.943-3.681c32.011-11.55,48.657-46.989,37.107-79
		C161.808,56.167,138.477,39.775,112.554,39.775z"/>
</g>
<g>
	<path fill="#3B1211" d="M222.331,82.804c1.797,4.98-0.784,10.477-5.766,12.274l-189.15,68.247
		c-4.98,1.797-10.477-0.784-12.274-5.766L2.571,122.723c-1.797-4.981,0.785-10.478,5.766-12.275l189.15-68.246
		c4.981-1.798,10.477,0.784,12.273,5.766L222.331,82.804z"/>
	<g>
		<g>
			<g>
				<g>
					<path fill="#533231" d="M224.408,81.388c0.235,0.758,0.532,0.348,0.643,0.435C224.515,80.607,224.317,81.456,224.408,81.388z"
						/>
					<polygon fill="#533231" points="219.076,69.412 219.315,69.572 218.267,67.901 					"/>
					<path fill="#533231" d="M214.934,57.909c-0.279,1.33,1.612,4.128,2.112,6.263l-0.031,0.393l0.874,0.729
						C216.905,62.835,215.379,59.73,214.934,57.909z"/>
					<path fill="#533231" d="M214.173,51.252c-0.125,0.473-0.704-1.245,0.434,1.46c-0.021-0.149-0.019-0.195-0.027-0.283
						C214.487,52.183,214.364,51.841,214.173,51.252z"/>
					<path fill="#533231" d="M214.58,52.43C215.036,53.634,214.514,51.557,214.58,52.43L214.58,52.43z"/>
					<path fill="#533231" d="M212.395,46.861l0.826,1.54c0.034-0.389-0.444-1.821-0.141-1.334c-0.047-0.102-0.09-0.196-0.13-0.282
						c-0.056-0.112-0.108-0.215-0.155-0.309c-0.097-0.187-0.179-0.334-0.248-0.447c-0.138-0.226-0.222-0.315-0.265-0.298
						C212.198,45.764,212.279,46.221,212.395,46.861z"/>
					<path fill="#533231" d="M211.052,45.24c0,0,0.627,0.91,0.601,0.925C211.651,45.957,211.515,45.683,211.052,45.24z"/>
					<path fill="#533231" d="M212.614,48.023c0,0-0.21-0.419-0.42-0.839c-0.271-0.51-0.541-1.02-0.541-1.02
						c0.016,0.335-0.187,0.439,0.485,0.958C211.887,47.049,212.206,47.33,212.614,48.023z"/>
					<path fill="#533231" d="M212.87,49.053c0.177,0.948,0.502,2.137-0.308,0.62C213.756,52.691,214.065,52.071,212.87,49.053z"/>
					<path fill="#533231" d="M214.027,57.572l0.235,1.267l0.598,0.954C214.563,59.316,214.21,57.422,214.027,57.572z"/>
					<path fill="#533231" d="M202.157,38.49c-0.15,0.131,0.699,0.482,0.812,0.725c0,0,0.401,0.04,0.803,0.079
						c0.398,0.075,0.796,0.149,0.796,0.149C203.822,39.046,202.254,38.701,202.157,38.49z"/>
					<path fill="#533231" d="M202.969,39.215c0,0-0.149-0.012-0.373-0.031c-0.224,0-0.523,0-0.822,0
						c-0.296-0.005-0.592,0.021-0.813,0.048c-0.22,0.023-0.367,0.039-0.367,0.039C202.68,39.334,203.065,39.438,202.969,39.215z"/>
					<path fill="#533231" d="M210.19,45.333c0,0,0.146,0.171,0.351,0.444c0.212,0.27,0.485,0.639,0.712,1.041
						c0.417,0.716,0.835,1.431,0.835,1.431s-0.11-0.204-0.276-0.51c-0.086-0.158-0.188-0.343-0.295-0.541
						c-0.129-0.224-0.267-0.463-0.404-0.703c-0.285-0.468-0.62-0.904-0.868-1.222c-0.269-0.303-0.448-0.505-0.448-0.505
						L210.19,45.333z"/>
					<polygon fill="#533231" points="193.77,40.089 194.65,39.398 193.05,40.54 					"/>
					<path fill="#533231" d="M189.325,41.759c0.641-0.541-1.181-0.098-0.46-0.548c-1.196,0.487-2.147,1.096-3.003,1.644
						C186.81,42.379,187.877,42.028,189.325,41.759z"/>
					<path fill="#533231" d="M184.406,43.727c0.471-0.244,0.942-0.547,1.455-0.873C185.357,43.107,184.872,43.385,184.406,43.727z"
						/>
					<path fill="#533231" d="M196.668,39.898c-0.172-0.036-0.513-0.168-1.537,0.093l0.838,0.151
						C196.182,40.069,196.423,39.984,196.668,39.898z"/>
					<path fill="#533231" d="M195.999,40.147l-0.029-0.004c-0.756,0.261-1.281,0.441-1.506,0.519
						C194.657,40.597,195.119,40.442,195.999,40.147z"/>
					<path fill="#533231" d="M196.891,39.831c-0.082,0.025-0.143,0.043-0.223,0.068C196.767,39.911,196.822,39.909,196.891,39.831z"
						/>
					<path fill="#533231" d="M206.269,41.123c-0.633-0.224-1.61-0.501-2.136-0.502c-0.533,0-0.551,0.103,0.543,0.701
						c0.462,0.032,0.391-0.131,0.429-0.26C205.141,40.948,205.311,40.806,206.269,41.123z"/>
					<path fill="#533231" d="M198.114,40.033c0,0,0.588-0.112,1.181-0.164c0.297-0.016,0.593-0.032,0.816-0.043
						c0.222-0.013,0.371,0.004,0.371,0.004c-0.045-0.113-0.495-0.277,0.173-0.396c0,0-0.164,0.019-0.41,0.047
						c-0.242,0.05-0.564,0.116-0.886,0.183c-0.321,0.057-0.628,0.176-0.861,0.245C198.268,39.983,198.114,40.033,198.114,40.033z"/>
					<path fill="#533231" d="M197.039,40.486c0,0,1.064-0.48,1.076-0.454c-0.006-0.024-0.86,0.207-0.86,0.207L197.039,40.486z"/>
					<path fill="#533231" d="M187.75,42.946c-0.746,0.466-1.625,0.801-2.615,1.189c1.1-0.307,2.223-0.665,3.274-1.045
						C188.512,42.911,188.892,42.518,187.75,42.946z"/>
					<path fill="#533231" d="M191.771,41.622c-0.054,0.027-0.122,0.062-0.172,0.088C191.722,41.704,191.815,41.682,191.771,41.622z"
						/>
					<path fill="#533231" d="M175.293,47.684c0.063,0.005,0.12,0.011,0.185,0.016c0.003-0.028,0.004-0.054,0.011-0.083
						L175.293,47.684z"/>
					<path fill="#533231" d="M188.616,43.101c0.833-0.213,1.279-0.485,1.693-0.774c-0.587,0.258-1.216,0.515-1.9,0.765
						C188.363,43.172,188.364,43.214,188.616,43.101z"/>
					<path fill="#533231" d="M181.728,44.906c0.45-0.067,0.951-0.167,1.475-0.282C182.747,44.645,181.839,44.748,181.728,44.906z"/>
					<path fill="#533231" d="M191.288,41.696c0.038-0.021,0.073-0.039,0.114-0.061C191.107,41.644,191.155,41.674,191.288,41.696z"
						/>
					<path fill="#533231" d="M191.288,41.696c-0.394,0.208-0.684,0.424-0.979,0.63c0.479-0.208,0.917-0.416,1.29-0.617
						C191.489,41.717,191.374,41.709,191.288,41.696z"/>
					<path fill="#533231" d="M173.242,51.339c0.008-0.424,2.001-1.532,3.973-1.792c1.698-0.928,0.08-1.729-1.737-1.848
						c0.002,0.183,0.057,0.333-1.715,1.221c0.722-0.031,4.278-1.005,2.838-0.105c-2.382,1.076-2.056,0.593-3.319,0.826
						c1.18,0.099-2.875,1.801-2.095,2.291l2.063-1.016C173.329,51.007,172.61,51.458,173.242,51.339z"/>
					<path fill="#533231" d="M179.018,46.465l0.744-0.321c-0.892,0.248-1.566,0.324-2.816,0.445
						c-1.202,0.639-1.414,0.872-1.457,1.028l3.769-1.301L179.018,46.465z"/>
					<path fill="#533231" d="M183.181,44.909c-0.448,0.62-2.215,1.453-0.937,1.487c2.225-0.834,1.444-0.903,2.716-1.561
						c-3.57,1.401,0.955-0.6-1.734,0.111c0.684-0.325,1.313-0.576,1.909-0.81c-0.667,0.185-1.315,0.35-1.932,0.488
						c0.036-0.001,0.062-0.003,0.092-0.004l0.017-0.008l-0.001,0.008c0.174-0.005,0.236,0.007,0.05,0.041
						c-0.01,0.01-0.053,0.027-0.072,0.035c-0.004,0.065-0.053,0.139-0.108,0.212c-1.075,0.293-0.202-0.046,0.108-0.212
						c0.005-0.024,0.026-0.053,0.022-0.076h-0.015l-3.533,1.525C180.547,45.925,181.5,45.568,183.181,44.909z"/>
					<path fill="#533231" d="M202.335,41.621c-0.112-0.061-0.103-0.091-0.107-0.124C201.966,41.526,201.871,41.536,202.335,41.621z"
						/>
					<path fill="#533231" d="M200.739,41.234c0.289-0.063,0.546-0.246,1.503-0.086c0.795,0.286-0.04,0.201-0.014,0.35
						c0.551-0.011,2.045,0.115,0.29-0.471c0,0-0.296-0.001-0.297,0.007c-0.809-0.174-1.77-0.397-2.517-0.454
						c-0.748-0.113-1.259-0.097-1.115-0.176C199.166,40.684,199.658,40.867,200.739,41.234z"/>
					<path fill="#533231" d="M191.758,42.942l-2.937,1.284l1.659-0.202l-0.154-0.182C192.067,43.307,191.604,43.181,191.758,42.942z
						"/>
					<polygon fill="#533231" points="174.876,47.606 175.12,47.034 173.601,48.265 					"/>
					<polygon fill="#533231" points="170.985,49.068 170.995,48.643 170.044,49.241 					"/>
					<path fill="#533231" d="M21.853,161.133c0,0,0.703,0.109,0.706,0.084C22.229,161.182,22.019,161.132,21.853,161.133z"/>
					<path fill="#533231" d="M17.982,157.969l-0.229-0.014C17.961,158.115,18.071,158.157,17.982,157.969z"/>
					<path fill="#533231" d="M74.986,83.752c-1.413,0.117-3.046,0.097-2.739,0.459l0.542,0.265
						C73.662,84.079,74.368,83.876,74.986,83.752z"/>
					<path fill="#533231" d="M10.108,109.914c0.137-0.004,0.28-0.008,0.422-0.012c0.262-0.253,0.508-0.491,0.729-0.704
						C10.913,109.414,10.52,109.658,10.108,109.914z"/>
					<path fill="#533231" d="M9.81,111.931c0,0-0.446,0.087-0.892,0.174c-0.371,0.08-0.742,0.16-0.742,0.16
						c0.178-0.02,0.385-0.054,0.626-0.106C9.087,112.094,9.42,112.018,9.81,111.931z"/>
					<path fill="#533231" d="M55.341,150.235l0.881-0.788C54.609,150.032,55.395,149.985,55.341,150.235z"/>
					<path fill="#533231" d="M130.999,63.665c-1.168,0.242-2.077,0.494-2.861,0.754C129.562,64.17,130.768,64.132,130.999,63.665z"
						/>
					<path fill="#533231" d="M17.44,164.016c0.632,0.333,0.933,0.401,0.966,0.303C17.759,164.019,17.378,163.84,17.44,164.016z"/>
					<path fill="#533231" d="M124.93,65.578c0.21-0.03,0.41-0.079,0.622-0.116c0.788-0.362,1.584-0.711,2.586-1.043
						C127.086,64.601,125.916,64.902,124.93,65.578z"/>
					<path fill="#533231" d="M182.223,104.837c0.099-0.015,0.213-0.046,0.305-0.055C182.536,104.717,182.407,104.76,182.223,104.837
						z"/>
					<path fill="#533231" d="M220.94,94.645c-0.168,0.16-0.398,0.361-0.656,0.579c-0.277,0.193-0.579,0.404-0.872,0.609
						C219.711,95.657,220.227,95.358,220.94,94.645z"/>
					<path fill="#533231" d="M155.191,54.565C156.011,54.239,155.306,54.473,155.191,54.565L155.191,54.565z"/>
					<path fill="#533231" d="M159.806,54.725c-0.16,0.109-0.273,0.216-0.259,0.318C159.579,54.919,159.672,54.815,159.806,54.725z"
						/>
					<path fill="#533231" d="M117.587,71.098c-0.024,0.008-0.044,0.015-0.072,0.025C117.791,71.113,117.743,71.113,117.587,71.098z"
						/>
					<path fill="#533231" d="M156.505,54.301c-0.329,0.063-0.703,0.15-1.104,0.262C155.584,54.532,155.921,54.456,156.505,54.301z"
						/>
					<path fill="#533231" d="M156.268,54.168c0.292-0.087,0.521-0.156,0.739-0.222C157.087,53.84,156.979,53.832,156.268,54.168z"/>
					<path fill="#533231" d="M154.043,55.004c0.472-0.177,0.921-0.318,1.358-0.441c-0.173,0.031-0.25,0.032-0.21,0.003
						C154.949,54.658,154.609,54.788,154.043,55.004z"/>
					<path fill="#533231" d="M114.699,130.436c0.059-0.008,0.126-0.017,0.191-0.026
						C115.666,129.938,115.308,130.098,114.699,130.436z"/>
					<path fill="#533231" d="M54.936,95.776c0.037-0.019,0.054-0.037,0.087-0.054c-0.041,0.009-0.091,0.021-0.128,0.03
						L54.936,95.776z"/>
					<path fill="#533231" d="M52.067,97.155c1.085-0.966,1.829-1.164,2.828-1.403l-1.41-0.821L52.067,97.155z"/>
					<path fill="#533231" d="M35.827,157.632l-2.224,0.389c2.307-1.515,4.208-1.965,2.058-1.773
						c0.166,1.384-8.081,3.064-7.912,4.445c0,0-0.369,0.057-0.738,0.114c-0.182,0.027-0.364,0.054-0.5,0.075
						c-0.105,0.002-0.175,0.004-0.175,0.004c0.137-0.03,0.237-0.081,0.354-0.144c0.108-0.057,0.216-0.113,0.414-0.177
						c-0.791,0.124-1.021,0.141-1.29,0.297c-0.255,0.111-0.431,0.282-0.638,0.482c-0.407,0.313-1.012,0.853-2.466,0.488
						c-0.995-0.305-1.532-0.786-0.858-0.7c0,0-0.137-0.013-0.333-0.069c-0.196-0.054-0.474-0.098-0.729-0.204
						c-0.265-0.086-0.53-0.183-0.716-0.282c-0.193-0.089-0.323-0.148-0.323-0.148c-0.493-0.434-0.228-0.491,0.266-0.109
						c0,0-0.184-0.099-0.425-0.296c-0.261-0.175-0.563-0.461-0.867-0.747c-0.586-0.597-1.017-1.325-1.017-1.326l0.046,0.002
						c-0.213-0.153-0.521-0.442-0.785-0.789c-0.281-0.321-0.578-0.86-0.758-1.132c-0.192-1.106,0.323,0.473,0.387,0.149
						l-1.127-2.154c-0.002-1.042,0.997,0.719,1.514,2.301c0.512-2.576-1-1.764-1.903-6.599l0.935,2.081
						c0.227-1.641-0.638-3.215-1.059-5.797c-0.029,0.659,0.608,5.253-0.597,2.909c-0.153-0.728-0.437-1.658-1.172-2.892
						c0.449-0.176-0.129-1.431-0.74-3.042l0.642-0.106c-0.806-1.689-1.062-1.44-1.705-2.374c-0.645-1.974-0.325-2.547-0.099-3.148
						c-1.033-3.162,0.032,2.429-1.417-1.231c-0.708-2.684-1.613-4.422-3.096-7.403c-0.45-1.895,0.483,0.186,0.419-0.529l-1.062-1.44
						c-0.131-0.399,0.062-0.325,0.16-0.288c-0.677-1.292-0.642,0.105-1.577-1.973c-0.217-0.084-0.365-0.423-0.49-0.92
						c-0.063-0.249-0.12-0.537-0.177-0.853c-0.028-0.158-0.057-0.323-0.087-0.493c-0.013-0.147-0.027-0.299-0.042-0.455
						c-0.13-1.248,0.028-2.559-0.129-3.757c0.29-0.517,0.331,0.339,0.609,0.209c0.032-1.504,0.341-2.151,0.504-2.734
						c0.25-0.555,0.35-1.121,1.133-2.31c0,0,0.129-0.074,0.324-0.186c0.185-0.122,0.463-0.235,0.729-0.354
						c0.536-0.233,1.088-0.381,1.088-0.38c-0.832,0.171-0.897-0.086-0.48-0.611c0.398-0.496,1.443-1.147,2.413-1.739
						c-0.74,0.02-1.375,0.034-1.787,0.079l3.215-1.525c0.438-0.046,0.177,0.281-0.278,0.73c0.208-0.136,0.404-0.264,0.559-0.365
						c1.272-0.208,0.779,0.363,0.047,1.006c-0.449,0.021-0.897,0.042-1.334,0.063c-0.691,0.662-1.315,1.345-1.017,1.635
						c0.191-0.147,0.587-0.357,1.034-0.556c-0.18,0.177-0.285,0.314-0.164,0.339c0.136,0.023,0.436-0.236,0.925-0.586l1,0.397
						l0.088-0.333l4.511-1.153c2.875-1.801,5.229-3.773,10.08-5.836c-1.05,0.935,0.026,0.899,0.169,1.506
						c-1.573-0.13-3.739,1.646-6.35,2.446c1.362-0.418,1.168-0.035,0.863,0.186l4.373-2.212c0.068,0.514,1.101,0.007,2.367-0.227
						c-1.244-0.616,3.184-1.858,4.942-2.819c0.229,0.274-0.101,0.758-2.399,1.502c2.762-0.195,2.839-2.275,5.517-2.56
						c-0.552,0.208-0.869,0.267-1.03,0.506c1.194-0.749,4.442-1.668,3.796-1.124l-0.551,0.206
						c3.722-1.217,11.211-4.038,11.472-5.036c0.074,0.09-0.135,1.139-0.299,1.38l5.599-5.063c-0.331,0.896,2.481,1.731-0.432,3.221
						c0.912-0.219,2.038-0.496,3.799-1.405c-0.633,0.118-1.85-0.456-1.055-0.813c2.52-0.044,1.705-0.152,4.706-0.498
						c-0.949,0.176-0.342-1.261,1.087-1.738c-0.163,0.241,0.501,1.021,0.024,1.32l3.145-2.33c-0.812,0.508,0.168,0.953,1.065,0.967
						c-0.441-0.075,3.055-1.08,3.958-1.524l-1.583,0.294c4.039-1.276,3.396-2.906,7.365-4.276c-0.399,0.391-0.695,1.771,1.361,1.179
						c0.725-0.874,3.136-4.076,6.48-5.754l0.782,0.068l2.554-1.32c-1.375,1.417-5.441,4.823-7.759,6.414
						c1.578-0.292,0.546,0.215,2.768-0.618c0.893,0.006-1.057,0.879-1.708,1.133l5.262-1.687c-0.459-0.549,3.744-2.068,3.355-2.523
						l-5.406,2.691c-0.457-0.549,2.615-2.972,6.336-4.189c1.027-0.086-0.294,1.378-0.142,1.562c0.399-0.39,3.343-1.676,3.737-1.644
						l-1.439,0.901c2.135-0.501,3.042-2.045,5.722-2.33c0.865-0.266,2.832-0.102,2.844-0.528c-1.646-0.222-2.723-2.356-1.995-3.231
						c0.315-0.059,4.711-0.92,5.811-0.914c1.604,0.061-1.615,2.107-0.248,2.163c-0.011-0.191,0.685-0.683,0.983-0.868
						c0.945-0.174-0.177,0.668,1.734-0.109c0.092-0.758,3.964-1.369,0.721-0.873c1.831-0.868,2.064-0.596,4.281-1.427
						c-0.858-0.159,1.492-2.132,3.326-3c-0.053,0.204,0.451,0.262,0.692,0.284c3.91-1.345,6.103-1.807,9.731-3.109
						c0.391,0.034,2.208-0.409,1.562,0.136c0.481-0.302,0.881-0.692,1.995-1.111c2.364-0.227-2.463,0.986-0.573,1.056
						c0.007-0.423,2.708-1.558,4.216-2.365c-0.697-0.398-3.72,1.218-5.232,2.026c-0.293-0.791,2.184-2.625,5.842-4.359
						c2.94-1.284,1.491,0.042,1.973-0.26c5.708-1.902,4.32-3.125,9.225-4.248c2.046-0.167,0.447,0.977,0.992,1.192
						c-2.385,1.077-3.883,1.038-5.539,1.659l2.134-0.5c-0.72,0.45-2.312,1.168-3.257,1.344c1.727-0.109,9.59-3.361,14.107-4.517
						c0.714-0.45,1.99-1.108,1.283-1.083l-1.355,0.569c-1.417,0.05,2.396-1.502,0.579-1.062c1.75-0.956,3.664-2.156,6.355-2.866
						L162.323,54c-0.117-0.148-1.829,0.272-2.499,0.712c0.995-0.648,4.281-0.663,5.2-1.848l-1.973,0.26
						c1.756-0.961,3.834-2.403,6.212-3.055c-1.257-0.19-0.509,0.257-2.393,0.184c1.723,0.315-5.926,2.099-3.324,2.145
						c-1.964-0.166-3.036,0.724-5.477,0.86c0.137,0.166,0.912,0.082-1.063,0.688c-0.067,0.087-0.249,0.232-0.365,0.321
						c-0.062,0.015-0.083,0.021-0.136,0.033c0.042-0.006,0.074-0.01,0.115-0.016c-0.074,0.059-0.079,0.067,0.043-0.007
						c0.492-0.083,0.902-0.119,1.093-0.067c-0.805,0.784-3.896,1.884-4.858,2.487c-1.185,0.325,0.402-0.393-0.299-0.368l-1.437,0.9
						c-0.307-0.367-3.313,0.402-0.689-0.824l-2.449,0.862c-1.523,0.282-3.534,0.901-4.689,1.519
						c-1.185,0.324-2.74,1.517-1.856,0.825l-3.735,1.643l-0.073-0.093c-3.797,1.31-7.525,3.505-12.119,4.302
						c-1.234,0.565-2.501,1.17-4.672,1.818l-0.546-0.216c-1.587,0.717-5.036,1.404-5.601,2.038
						c-2.117-0.348-8.003,2.645-10.938,3.507l0.064,0.516c-1.987,0.687-3.834,1.506-6.219,2.583l0.303,0.368
						c-1.991,1.109-5.547,1.663-8.878,2.913c0.169-0.243,1.033-0.507,1.669-0.626c-4.342,0.49-8.185,3.736-12.062,4.351
						c-0.848,0.479-1.521,0.663-2.193,0.785c0.083-0.031,0.156-0.066,0.216-0.102c-0.093,0.032-0.231,0.08-0.373,0.128
						c-0.425,0.071-0.866,0.135-1.336,0.228c0.416-0.034,0.808-0.08,1.137-0.155c-0.694,0.26-1.731,0.694-2.729,1.173l-0.604-0.294
						c-0.083,0.035-0.149,0.063-0.235,0.1c-1.077,0.199-0.74,0.509-0.075,0.654c-0.495,0.263-0.94,0.524-1.271,0.768
						c-1.09-0.434-2.629,1.227-4.038,0.853c-0.561,0.632-5.104,2.166-5.368,3.165c-0.073-0.091-0.396-0.031,0.161-0.239
						c-1.188,0.326-2.375,0.651-3.329,1.25l-0.698-0.399l-2.243,1.684c-1.659,0.202-2.367,0.228-1.005-0.765
						c-3.428,2.007-2.888,1.332-5.768,3.135l0.018-0.427c-1.111,0.417-2.716,1.56-3.501,1.495
						c-2.753,0.194-12.395,4.362-19.044,6.018c1.64,0.647-3.157,0.584-3.105,1.525c-0.467-0.125-1.414,0.052-0.457-0.549
						c-3.18,1.436-5.064,1.363-7.065,2.895c-0.469-0.125,0.563-0.633,0.174-0.667c-0.243,0.151-0.958,0.601-1.354,0.569
						c-0.389-0.034,0.4-0.39,0.877-0.69c-3.327,1.25-3.376,2.171-3.349,3.009c-1.822,0.256-2.649,0.611-3.694,1.544
						c-0.326-0.029-0.8,0.021-0.917-0.049c-0.118-0.071,0.208-0.324,1.207-0.723c-0.305,0.106-0.854,0.247-1.736,0.602
						c-0.834,0.342-1.787,0.869-2.58,1.54c-0.819,0.641-1.444,1.432-1.852,2.047c-0.369,0.647-0.547,1.106-0.414,1.223
						c-0.377,0.299-0.924,1.765-0.911,2.154c-0.466,1.51-0.548,2.389-0.56,3.244c-0.015,0.854,0.038,1.729,0.498,3.216
						c0,0-0.037-0.213-0.075-0.427c-0.042-0.211-0.046-0.43-0.046-0.43c1.028,1.021,0.902,2.233,1.729,4.303l-0.096-0.033
						c1.194,4.948,0.992,1.964,2.089,6.875l0.359-0.418c1.128,0.088,0.928,4.367,2.283,6.958l-0.097-1.077
						c0.869,1.369,0.181,4.636,0.599,6.174c0.033,0.356-0.321-0.465-0.548-0.897c0.84,4.119,0.774,0.293,1.963,3.16
						c-0.125,0.652-1.061-0.401-0.412,1.583c0.095,1.071,3.089,5.319,3.443,8.217c0.033-0.678,0.067-1.353,0.74-0.065
						c0.223,0.529,0.353,1.098,0.577,1.856c0.231,0.782,0.533,1.625,0.982,2.389c0.851,1.555,2.23,2.81,3.459,3.071
						c0.237,0.247,0.319,0.36,0.299,0.423c0.922,0.432,2.485,0.981,4.001,1.09c1.517,0.143,2.906-0.184,3.427-0.484
						c0.246,0.161,0.626,0.241,1.097,0.229c0.445-0.037,1.068-0.167,1.528-0.331c1.002-0.334,2.152-0.86,3.255-1.374
						c2.205-1.027,4.216-2.001,4.458-1.276l4.853-1.838l-0.075,0.193c3.155-1.03,4.133-1.773,5.105-2.514
						c0.756-0.163,0.278,0.162,0.246,0.259c4.664-1.355,5.095-1.58,8.659-3.675l0.566,0.323c0.938-0.645,6.854-1.647,11.129-3.804
						c-0.025,0.069-0.084,0.193-0.416,0.386c4.833-2.362,12.51-3.051,13.741-5.415l3.168-1.616
						c-4.342,1.417,0.374-0.967-1.495-0.612c1.653-0.709,4.551-1.063,2.507-0.227l-0.355,0.032c-0.443,1.16,5.45-1.612,5.552-0.967
						c8.436-3.093,16.849-5.575,24.779-8.394l-1.16-0.359l2.776-0.957c0.783-0.101,1.167,0.187-0.813,0.87
						c1.176,0.016,3.186-1.519,3.188-1.688c3.958-1.113-1.217,1.346-0.028,0.935l1.588-0.63l-0.392,0.05
						c1.201-0.751,1.209-1.091,3.589-1.911c1.548-0.403,0.921,0.147,1.521-0.039c0.014,0.05,0.222,0.001,0.912-0.307l3.5-1.197
						l-1.587-0.041c1.445-0.824,3.281-1.152,1.454-1.188c2.699,0.099,13.1-4.342,14.653-4.569c2.017-1.176,4.151-1.938,6.809-2.843
						c-0.698,0.124-1.311-0.345,0.994-1.092c-0.378,1.561,4.368-0.958,6.536-0.715c-1.862-0.008,6.421-2.485,3.532-2.407
						c1.937-0.584,0.286,0.43,1.834,0.206c4.347-2.121,10.083-3.28,15.615-5.462c0.028-0.196-1-0.112,0.11-0.791l3.251-0.238
						c1.075-0.479,0.672-1.322,2.896-1.476c-0.334-0.037-0.836-0.092-0.114-0.413c5.622-1.573,11.158-3.757,16.748-5.86
						c2.794-1.051,5.603-2.083,8.441-3.007c1.419-0.462,2.846-0.898,4.283-1.296c0.718-0.199,1.439-0.389,2.163-0.567
						c0.382-0.103,0.68-0.147,1.132-0.29c0.433-0.137,0.881-0.251,1.302-0.44c-0.957,0.311-1.154,0.227-0.925,0.093
						c0.235-0.135,0.828-0.475,1.466-0.841c-0.864,0.403-0.2-0.38-0.488-0.488c0,0,1.301-0.575,2.418-1.519
						c0.291-0.222,0.552-0.475,0.794-0.72c0.252-0.237,0.468-0.477,0.64-0.694c0.366-0.42,0.572-0.732,0.573-0.731
						c-0.01-0.625,0.649-2.021,0.912-3.496c0.289-1.464,0.188-2.926-0.174-3.176c0.042-0.008,0.189,1.773,0.147,1.778
						c-0.355-1.204-0.73-0.325-1.293,0.562c-0.563,0.917-1.375,1.781-1.773,1.48c0.074,1.12-0.941,2.284-2.175,3.099
						c-0.629,0.406-1.29,0.777-1.985,1.106c-0.335,0.2-0.689,0.324-1.049,0.552c-0.427,0.218-0.843,0.475-1.242,0.78
						c-0.862,0.103,0.574-0.536,0.073-0.591c-0.774,0.716-1.848,1.194-3.954,1.759l0.196-0.179
						c-5.708,2.166-8.308,2.674-14.85,4.748l0.639,0.273c-1.408,0.44-1.75,0.406-2.439,0.529c-1.347,1.249,3.907-1.367,2.727-0.099
						c-2.166-0.243-9.78,3.513-11.395,2.932c-2.135,0.764,0.811,0.29-1.323,1.053l-0.666-0.075l-0.409,0.554
						c-1.419,0.445-2.25,0.351-2.388,0.134c0.35-0.094,0.94-0.414,1.297-0.565c-1.932,0.326-5.072,1.956-5.733,2.074l2.111-0.568
						c-5.726,2.361-12.964,4.559-18.382,7.154l0.503,0.057c-4.153,1.938-3.522,1.01-8.172,2.89l0.153-0.112
						c-0.868,0.55-2.089,1.11-3.388,1.552c1.102-0.676-2.413,0.33-0.95-0.506c-4.505,2.098-2.185,1.159-4.978,3.05l-0.834-0.093
						c-0.935,0.693-0.962,0.891-3.284,1.831c1.823-0.996-1.695,0.011,0.326-1.166c-5.215,1.02-7.058,3.417-9.727,3.12
						c-1.921,1.784,4.469-1.006,3.272-0.342c1.178-0.068-1.612,1.397-3.197,1.86c-1.586,0.548-3.129-0.267-7.093,1.184
						c0.396-0.138,0.397-0.22,0.792-0.358c-1.575,0.29-2.791,1.383-4.758,1.641c-0.811,0.952-2.378,0.82-2.404,1.671l3.58-1.486
						c-1.995,0.939-3.616,2.509-7.169,3.314c0.211-0.246,1.151-0.809,1.807-1.169c-1.074,0.139-1.863,0.836-2.976,0.982
						c0.025-0.851,4.368-1.759,6.375-3.125c-1.181,0.071-3.989,2.05-3.169,0.841c-1.228,1.603-3.958,1.282-6.364,3.036l0.017-0.51
						c-0.4,0.223-1.206,0.752-1.993,1.023l1.209-1.09c-1.999,1.279-4.352,1.083-6.343,2.104c4.367-1.591,1.175,0.184,3.142-0.157
						c-5.176,2.542-3.522-0.049-9.481,2.343c0.794-0.358,3.165-0.839,1.961-0.171c-1.182,0.323-2.762,0.699-3.551,0.719
						c-3.966,1.535,0.78,0.237-0.824,1.126c-1.558-0.053-1.884,0.93-3.575,1.736l-0.176-0.449c-4.663,1.353-0.867,1.382-5.097,2.51
						l1.507-1.255l-2.08,0.934l0.255-0.675c-2.189,1.223-2.95,1.385-5.282,2.063c0.646,0.128,0,0.931-2.014,1.674
						c-1.474,0.227,0.615-0.71-2.222,0.388c0.543-0.517,1.122-1.129,2.518-1.16c0.075-0.194,0.535-0.515,0.613-0.708
						c-1.594,0.225-3.751,1.273-4.786,1.651c0.405-0.127,0.89-0.274,1.158-0.298l-3.921,2.125c-0.714,0.065-0.246-0.258,0.219-0.578
						c-0.823,0.353-1.329,0.771-2.55,1.255c0.187-0.484-0.027-0.837,1.659-1.641l-3.805,1.835c-0.321-0.065-2.187,0.292-1.723-0.03
						c-2.27,0.574-5.117,2.655-8.125,3.417c-0.125,0.126-0.403,0.304-1.001,0.579c-2.76,0.901-5.342,1.322-8.395,2.995l-2.075,0.001
						c-2.479,1.064,2.786-0.064-1.343,1.708c-2.912,1.289-1.318-0.162-2.433,0.033c-1.366,0.869-3.704,2.479-6.643,2.931
						C34.248,158.147,34.995,157.988,35.827,157.632z M14.374,148.987c0.313,0.571,1.043,1.672,0.936,2.211
						C14.541,150.697,14.597,150.073,14.374,148.987z M15.024,109.126c-0.396,0.313-1.119,0.49-1.967,0.601
						C13.615,109.484,14.266,109.268,15.024,109.126z M146.236,58.214c-0.023,0.017-0.039,0.028-0.057,0.045
						C144.765,58.57,145.269,58.466,146.236,58.214z M149.112,57.399c0.259-0.166,0.217-0.221,0.075-0.242
						c-0.154,0.186-0.781,0.421-1.51,0.647C147.919,57.851,148.311,57.803,149.112,57.399z M124.657,130.294l-0.589,0.079
						C125.254,129.797,124.951,130.04,124.657,130.294z"/>
					<path fill="#533231" d="M9.862,111.69c-0.199-0.015-0.277-0.083-0.348-0.153C9.303,111.7,9.33,111.79,9.862,111.69z"/>
					<path fill="#533231" d="M55.178,150.381l0.097-0.029c0.043-0.046,0.061-0.084,0.066-0.117L55.178,150.381z"/>
					<path fill="#533231" d="M107.047,76.924c-0.601,0.143-0.954,0.176-1.198,0.167C105.857,77.214,106.154,77.213,107.047,76.924z"
						/>
					<path fill="#533231" d="M163.699,51.264l-1.754,0.766c0.861-0.336,1.207-0.349,1.672-0.435
						C163.539,51.503,163.14,51.474,163.699,51.264z"/>
					<path fill="#533231" d="M180.309,48.445c0.242-0.151,0.555-0.208,0.793-0.357l-0.148-0.185
						C179.841,48.32,179.12,48.773,180.309,48.445z"/>
					<path fill="#533231" d="M165.907,52.171c0.28,0.331,1.361-0.206,2.594-0.73c-0.075,0.029-0.146,0.058-0.223,0.08
						C168.456,50.853,167.179,51.514,165.907,52.171z"/>
					<path fill="#533231" d="M168.788,51.323c0.381-0.158,0.774-0.311,1.16-0.43C170.018,50.626,169.46,51.019,168.788,51.323z"/>
					<path fill="#533231" d="M152.579,55.862c0.633-0.117,0.199-0.623,0.593-0.59C153.663,54.546,149.404,57.296,152.579,55.862z"/>
					<polygon fill="#533231" points="167.38,53.062 166.758,52.753 166.19,53.388 					"/>
					<path fill="#533231" d="M157.317,56.301l2.058-0.595c-0.059-0.068,0.18-0.207,0.48-0.355
						C158.611,55.783,157.219,56.179,157.317,56.301z"/>
					<path fill="#533231" d="M159.855,55.351c0.649-0.224,1.26-0.456,1.59-0.662C161.099,54.82,160.353,55.107,159.855,55.351z"/>
					<polygon fill="#533231" points="164.682,54.195 164.051,54.311 162.619,54.789 					"/>
					<path fill="#533231" d="M135.664,64.011l-2.146,0.927c-0.166,0.243,0.468,0.125,1.262-0.234
						C135.265,64.402,136.057,64.046,135.664,64.011z"/>
					<path fill="#533231" d="M142.768,62.906c-0.629,0.117-0.707,0.026-1.097-0.008l0.144,0.608L142.768,62.906z"/>
					<path fill="#533231" d="M136.416,65.353c-0.16,0.241-3.018,1.615-0.249,0.574C136.331,65.686,138.481,64.758,136.416,65.353z"
						/>
					<polygon fill="#533231" points="103.076,76.546 103.631,76.338 103.205,75.409 					"/>
					<path fill="#533231" d="M74.752,89.356c2.684-0.709,0.404-0.814,2.858-1.375c0.528-0.447-2.006,0.459-1.45,0.037
						C74.676,88.824,73.803,88.986,74.752,89.356z"/>
					<path fill="#533231" d="M76.16,88.018c0.238-0.128,0.488-0.27,0.749-0.435C76.476,87.808,76.278,87.931,76.16,88.018z"/>
					<path fill="#533231" d="M225.182,88.036c0,0,0.048-0.133,0.085-0.34c0.042-0.208,0.097-0.484,0.152-0.761
						c0.1-0.557,0.134-1.129,0.134-1.129s-0.088,0.364-0.175,0.728c-0.091,0.359-0.226,0.704-0.227,0.704
						C225.151,87.237,225.201,88.037,225.182,88.036z"/>
					<path fill="#533231" d="M224.377,83.915c0,0,0.134-0.155,0.269-0.311c0.133-0.163,0.266-0.325,0.266-0.325
						c0,0-0.226-0.287-0.462-0.553c-0.234-0.259-0.467-0.518-0.467-0.518C224.157,82.647,224.479,83.526,224.377,83.915z"/>
					<path fill="#533231" d="M13.927,143.896l-0.193-0.075c-0.065,0.316,0.064,0.712,0.322,1.505L13.927,143.896z"/>
					<path fill="#533231" d="M23.556,160.847l-0.281-0.041c0,0,0.118,0.159,0.236,0.317c0.129,0.163,0.259,0.325,0.259,0.325
						s-0.056-0.151-0.112-0.302C23.606,160.997,23.556,160.847,23.556,160.847z"/>
					<path fill="#533231" d="M41.221,154.348c-0.785,0.257-1.654,0.71-2.443,0.969C40.436,154.605,41.68,154.96,41.221,154.348z"/>
				</g>
			</g>
		</g>
	</g>
</g>
<polygon fill="#3B1211" points="92.968,47.219 97.109,52.55 103.458,50.259 99.669,55.845 103.81,61.176 97.325,59.297 
	93.535,64.882 93.318,58.136 86.835,56.257 93.185,53.966 "/>
<polygon fill="#3B1211" points="76.24,60.257 80.438,62.608 83.973,59.342 83.033,64.062 87.231,66.413 82.453,66.979 
	81.515,71.697 79.5,67.327 74.722,67.894 78.255,64.627 "/>
<polygon fill="#3B1211" points="66.155,73.535 69.96,74.5 72.054,71.18 72.312,75.096 76.114,76.061 72.47,77.516 72.728,81.431 
	70.218,78.415 66.573,79.87 68.667,76.551 "/>
<polygon fill="#3B1211" points="113.712,46.203 111.981,50.693 107.177,50.436 110.913,53.469 109.183,57.959 113.222,55.343 
	116.957,58.375 115.718,53.726 119.757,51.11 114.952,50.854 "/>
<polygon fill="#3B1211" points="129.95,49.983 127.639,53.155 123.908,51.937 126.21,55.115 123.899,58.286 127.633,57.079 
	129.935,60.257 129.94,56.333 133.674,55.126 129.944,53.908 "/>
<polygon fill="#3B1211" points="132.276,157.057 128.136,151.726 121.786,154.017 125.576,148.432 121.435,143.101 127.919,144.979 
	131.71,139.394 131.926,146.141 138.409,148.019 132.06,150.31 "/>
<polygon fill="#3B1211" points="149.005,144.019 144.806,141.667 141.272,144.934 142.211,140.214 138.013,137.863 142.792,137.298 
	143.73,132.579 145.745,136.948 150.522,136.383 146.989,139.648 "/>
<polygon fill="#3B1211" points="159.089,130.741 155.284,129.776 153.191,133.096 152.934,129.18 149.13,128.216 152.774,126.76 
	152.517,122.845 155.026,125.86 158.671,124.405 156.577,127.725 "/>
<polygon fill="#3B1211" points="111.532,158.072 113.263,153.582 118.067,153.84 114.332,150.808 116.062,146.317 112.022,148.933 
	108.288,145.9 109.527,150.55 105.488,153.165 110.294,153.423 "/>
<polygon fill="#3B1211" points="95.294,154.292 97.606,151.12 101.337,152.34 99.034,149.161 101.346,145.99 97.611,147.197 
	95.311,144.019 95.305,147.942 91.571,149.149 95.301,150.368 "/>
<g>
	
		<text transform="matrix(0.9443 -0.329 0.329 0.9443 33.7231 142.6011)" fill="#FFFFFF" font-family="'NuevaStd-Bold'" font-size="33.1533">CANCELADO</text>
</g>
</svg>
