<?xml version="1.0" encoding="utf-8"?>
<!-- Generator: Adobe Illustrator 16.0.0, SVG Export Plug-In . SVG Version: 6.00 Build 0)  -->
<!DOCTYPE svg PUBLIC "-//W3C//DTD SVG 1.1//EN" "http://www.w3.org/Graphics/SVG/1.1/DTD/svg11.dtd">
<svg version="1.1" id="Layer_1" xmlns="http://www.w3.org/2000/svg" xmlns:xlink="http://www.w3.org/1999/xlink" x="0px" y="0px"
	 width="225.5px" height="202.419px" viewBox="0 0 225.5 202.419" enable-background="new 0 0 225.5 202.419" xml:space="preserve">
<g>
	<path fill="#B9842C" d="M112.975,201.419c-20.508,0-40.311-6.185-57.266-17.886c-17.328-11.959-30.277-28.782-37.445-48.652
		C-0.578,82.659,26.577,24.845,78.799,6.003C89.838,2.02,101.333,0,112.964,0c20.511,0,40.313,6.185,57.267,17.885
		c17.327,11.958,30.275,28.782,37.445,48.653c9.127,25.297,7.857,52.635-3.576,76.977s-31.662,42.774-56.959,51.901
		C136.102,199.399,124.606,201.419,112.975,201.419z M112.964,5.021c-11.048,0-21.97,1.919-32.461,5.705
		C30.887,28.629,5.084,83.56,22.986,133.176c13.645,37.815,49.808,63.222,89.988,63.222c11.049,0,21.971-1.92,32.461-5.705
		c24.036-8.672,43.256-26.185,54.119-49.313s12.07-49.103,3.397-73.137C189.309,30.429,153.145,5.021,112.964,5.021z"/>
</g>
<g>
	<path fill="#B9842C" d="M112.891,194.455c-19.141,0-37.621-5.771-53.443-16.69c-16.168-11.158-28.251-26.858-34.941-45.402
		C6.922,83.629,32.264,29.678,80.996,12.095c10.303-3.718,21.03-5.603,31.883-5.603c19.139,0,37.619,5.771,53.441,16.692
		c16.17,11.158,28.253,26.858,34.943,45.4c17.583,48.733-7.759,102.685-56.49,120.269
		C134.47,192.571,123.743,194.455,112.891,194.455z M112.879,7.496c-10.736,0-21.348,1.865-31.541,5.543
		C33.126,30.434,8.055,83.809,25.449,132.021c13.258,36.744,48.398,61.431,87.441,61.431c10.736,0,21.348-1.864,31.541-5.542
		c48.211-17.396,73.282-70.771,55.887-118.982C187.062,32.184,151.922,7.496,112.879,7.496z"/>
</g>
<path fill="none" d="M51.8,162.772c23.239,23.359,58.757,32.545,91.798,20.623c34.161-12.325,55.953-43.705,57.721-77.832"/>
<text transform="matrix(0.9655 0.2603 -0.2603 0.9655 85.501 184.0674)"><tspan x="0" y="0" fill="#B9842C" font-family="'NuevaStd-Bold'" font-size="21.0906">C</tspan><tspan x="13.349" y="-0.03" fill="#B9842C" font-family="'NuevaStd-Bold'" font-size="21.0906" rotate="-9.502">O</tspan><tspan x="28.879" y="-2.82" fill="#B9842C" font-family="'NuevaStd-Bold'" font-size="21.0906" rotate="-19.534">N</tspan><tspan x="42.541" y="-7.851" fill="#B9842C" font-family="'NuevaStd-Bold'" font-size="21.0906" rotate="-28.671">C</tspan><tspan x="53.997" y="-14.253" fill="#B9842C" font-family="'NuevaStd-Bold'" font-size="21.0906" rotate="-36.952">L</tspan><tspan x="64.107" y="-21.883" fill="#B9842C" font-family="'NuevaStd-Bold'" font-size="21.0906" rotate="-45.959">U</tspan><tspan x="74.112" y="-32.657" fill="#B9842C" font-family="'NuevaStd-Bold'" font-size="21.0906" rotate="-53.416">Í</tspan><tspan x="78.989" y="-38.972" fill="#B9842C" font-family="'NuevaStd-Bold'" font-size="21.0906" rotate="-61.009">D</tspan><tspan x="86.399" y="-52.631" fill="#B9842C" font-family="'NuevaStd-Bold'" font-size="21.0906" rotate="-71.255">O</tspan></text>
<g>
	<path fill="#B9842C" d="M112.986,167.577c-28.062,0-53.318-17.743-62.847-44.153c-12.503-34.651,5.517-73.016,40.169-85.519
		c7.326-2.644,14.955-3.984,22.672-3.984c28.063,0,53.318,17.744,62.848,44.153c6.057,16.787,5.214,34.927-2.373,51.079
		s-21.01,28.383-37.797,34.44C128.332,166.237,120.704,167.577,112.986,167.577z M112.98,34.926c-7.602,0-15.114,1.32-22.33,3.924
		C56.519,51.165,38.77,88.952,51.084,123.083c9.386,26.013,34.262,43.49,61.902,43.49c7.602,0,15.115-1.32,22.331-3.924
		c16.534-5.966,29.756-18.014,37.229-33.923c7.474-15.909,8.303-33.777,2.337-50.312C165.498,52.403,140.621,34.926,112.98,34.926z"
		/>
</g>
<path fill="none" d="M41.594,92.816c1.904-25.594,19.479-49.422,46.478-59.163c27.847-10.047,57.548-2.16,75.192,17.635"/>
<text transform="matrix(0.5497 -0.8354 0.8354 0.5497 49.1494 66.4639)"><tspan x="0" y="0" fill="#B9842C" font-family="'NuevaStd-Bold'" font-size="21.0906">C</tspan><tspan x="11.186" y="-0.153" fill="#B9842C" font-family="'NuevaStd-Bold'" font-size="21.0906" rotate="10.113">O</tspan><tspan x="24.521" y="2.221" fill="#B9842C" font-family="'NuevaStd-Bold'" font-size="21.0906" rotate="20.551">N</tspan><tspan x="36.22" y="6.616" fill="#B9842C" font-family="'NuevaStd-Bold'" font-size="21.0906" rotate="29.895">C</tspan><tspan x="46.024" y="12.241" fill="#B9842C" font-family="'NuevaStd-Bold'" font-size="21.0906" rotate="38.366">L</tspan><tspan x="54.459" y="18.737" fill="#B9842C" font-family="'NuevaStd-Bold'" font-size="21.0906" rotate="47.538">U</tspan><tspan x="63.118" y="28.486" fill="#B9842C" font-family="'NuevaStd-Bold'" font-size="21.0906" rotate="55.199">Í</tspan><tspan x="66.929" y="33.479" fill="#B9842C" font-family="'NuevaStd-Bold'" font-size="21.0906" rotate="63.109">D</tspan><tspan x="72.986" y="45.249" fill="#B9842C" font-family="'NuevaStd-Bold'" font-size="21.0906" rotate="74.044">O</tspan></text>
<g>
	<path fill="#B9842C" d="M113.158,164.755c-26.977,0-51.258-17.059-60.418-42.447c-5.823-16.137-5.014-33.576,2.281-49.104
		c7.293-15.528,20.197-27.286,36.335-33.109c7.043-2.541,14.376-3.829,21.796-3.829c26.979,0,51.258,17.058,60.418,42.446
		c12.02,33.313-5.304,70.194-38.617,82.214C127.911,163.467,120.578,164.755,113.158,164.755z M113.152,38.775
		c-7.129,0-14.175,1.238-20.943,3.681C76.702,48.051,64.303,59.35,57.293,74.271c-7.008,14.921-7.786,31.679-2.191,47.186
		c8.803,24.396,32.134,40.788,58.057,40.788c7.129,0,14.175-1.238,20.943-3.681c32.011-11.55,48.657-46.989,37.107-79
		C162.406,55.167,139.075,38.775,113.152,38.775z"/>
</g>
<g>
	<path fill="#B9842C" d="M222.93,81.804c1.797,4.98-0.784,10.477-5.766,12.274l-189.15,68.247
		c-4.98,1.797-10.477-0.784-12.274-5.766L3.17,121.723c-1.797-4.981,0.785-10.478,5.766-12.275l189.15-68.246
		c4.981-1.798,10.477,0.784,12.273,5.766L222.93,81.804z"/>
	<g>
		<g>
			<g>
				<g>
					<path fill="#C19447" d="M225.007,80.388c0.235,0.758,0.532,0.348,0.643,0.435C225.113,79.607,224.916,80.456,225.007,80.388z"
						/>
					<polygon fill="#C19447" points="219.675,68.412 219.914,68.572 218.866,66.901 					"/>
					<path fill="#C19447" d="M215.532,56.909c-0.279,1.33,1.612,4.128,2.112,6.263l-0.031,0.393l0.874,0.729
						C217.503,61.835,215.978,58.73,215.532,56.909z"/>
					<path fill="#C19447" d="M214.772,50.252c-0.125,0.473-0.704-1.245,0.434,1.46c-0.021-0.149-0.019-0.195-0.027-0.283
						C215.085,51.183,214.963,50.841,214.772,50.252z"/>
					<path fill="#C19447" d="M215.178,51.43C215.634,52.634,215.112,50.557,215.178,51.43L215.178,51.43z"/>
					<path fill="#C19447" d="M212.994,45.861l0.826,1.54c0.034-0.389-0.444-1.821-0.141-1.334c-0.047-0.102-0.09-0.196-0.13-0.282
						c-0.056-0.112-0.108-0.215-0.155-0.309c-0.097-0.187-0.179-0.334-0.248-0.447c-0.138-0.226-0.222-0.315-0.265-0.298
						C212.796,44.764,212.878,45.221,212.994,45.861z"/>
					<path fill="#C19447" d="M211.651,44.24c0,0,0.627,0.91,0.601,0.925C212.25,44.957,212.114,44.683,211.651,44.24z"/>
					<path fill="#C19447" d="M213.213,47.023c0,0-0.21-0.419-0.42-0.839c-0.271-0.51-0.541-1.02-0.541-1.02
						c0.016,0.335-0.187,0.439,0.485,0.958C212.485,46.049,212.804,46.33,213.213,47.023z"/>
					<path fill="#C19447" d="M213.469,48.053c0.177,0.948,0.502,2.137-0.308,0.62C214.354,51.691,214.664,51.071,213.469,48.053z"/>
					<path fill="#C19447" d="M214.626,56.572l0.235,1.267l0.598,0.954C215.161,58.316,214.809,56.422,214.626,56.572z"/>
					<path fill="#C19447" d="M202.756,37.49c-0.15,0.131,0.699,0.482,0.812,0.725c0,0,0.401,0.04,0.803,0.079
						c0.398,0.075,0.796,0.149,0.796,0.149C204.421,38.046,202.853,37.701,202.756,37.49z"/>
					<path fill="#C19447" d="M203.567,38.215c0,0-0.149-0.012-0.373-0.031c-0.224,0-0.523,0-0.822,0
						c-0.296-0.005-0.592,0.021-0.813,0.048c-0.22,0.023-0.367,0.039-0.367,0.039C203.279,38.334,203.664,38.438,203.567,38.215z"/>
					<path fill="#C19447" d="M210.789,44.333c0,0,0.146,0.171,0.351,0.444c0.212,0.27,0.485,0.639,0.712,1.041
						c0.417,0.716,0.835,1.431,0.835,1.431s-0.11-0.204-0.276-0.51c-0.086-0.158-0.188-0.343-0.295-0.541
						c-0.129-0.224-0.267-0.463-0.404-0.703c-0.285-0.468-0.62-0.904-0.868-1.222c-0.269-0.303-0.448-0.505-0.448-0.505
						L210.789,44.333z"/>
					<polygon fill="#C19447" points="194.369,39.089 195.249,38.398 193.649,39.54 					"/>
					<path fill="#C19447" d="M189.923,40.759c0.641-0.541-1.181-0.098-0.46-0.548c-1.196,0.487-2.147,1.096-3.003,1.644
						C187.408,41.379,188.476,41.028,189.923,40.759z"/>
					<path fill="#C19447" d="M185.005,42.727c0.471-0.244,0.942-0.547,1.455-0.873C185.956,42.107,185.471,42.385,185.005,42.727z"
						/>
					<path fill="#C19447" d="M197.267,38.898c-0.172-0.036-0.513-0.168-1.537,0.093l0.838,0.151
						C196.781,39.069,197.022,38.984,197.267,38.898z"/>
					<path fill="#C19447" d="M196.597,39.147l-0.029-0.004c-0.756,0.261-1.281,0.441-1.506,0.519
						C195.256,39.597,195.718,39.442,196.597,39.147z"/>
					<path fill="#C19447" d="M197.49,38.831c-0.082,0.025-0.143,0.043-0.223,0.068C197.366,38.911,197.421,38.909,197.49,38.831z"/>
					<path fill="#C19447" d="M206.867,40.123c-0.633-0.224-1.61-0.501-2.136-0.502c-0.533,0-0.551,0.103,0.543,0.701
						c0.462,0.032,0.391-0.131,0.429-0.26C205.74,39.948,205.91,39.806,206.867,40.123z"/>
					<path fill="#C19447" d="M198.713,39.033c0,0,0.588-0.112,1.181-0.164c0.297-0.016,0.593-0.032,0.816-0.043
						c0.222-0.013,0.371,0.004,0.371,0.004c-0.045-0.113-0.495-0.277,0.173-0.396c0,0-0.164,0.019-0.41,0.047
						c-0.242,0.05-0.564,0.116-0.886,0.183c-0.321,0.057-0.628,0.176-0.861,0.245C198.866,38.983,198.713,39.033,198.713,39.033z"/>
					<path fill="#C19447" d="M197.637,39.486c0,0,1.064-0.48,1.076-0.454c-0.006-0.024-0.86,0.207-0.86,0.207L197.637,39.486z"/>
					<path fill="#C19447" d="M188.348,41.946c-0.746,0.466-1.625,0.801-2.615,1.189c1.1-0.307,2.223-0.665,3.274-1.045
						C189.111,41.911,189.491,41.518,188.348,41.946z"/>
					<path fill="#C19447" d="M192.37,40.622c-0.054,0.027-0.122,0.062-0.172,0.088C192.321,40.704,192.414,40.682,192.37,40.622z"/>
					<path fill="#C19447" d="M175.892,46.684c0.063,0.005,0.12,0.011,0.185,0.016c0.003-0.028,0.004-0.054,0.011-0.083
						L175.892,46.684z"/>
					<path fill="#C19447" d="M189.215,42.101c0.833-0.213,1.279-0.485,1.693-0.774c-0.587,0.258-1.216,0.515-1.9,0.765
						C188.961,42.172,188.963,42.214,189.215,42.101z"/>
					<path fill="#C19447" d="M182.327,43.906c0.45-0.067,0.951-0.167,1.475-0.282C183.346,43.645,182.438,43.748,182.327,43.906z"/>
					<path fill="#C19447" d="M191.887,40.696c0.038-0.021,0.073-0.039,0.114-0.061C191.706,40.644,191.754,40.674,191.887,40.696z"
						/>
					<path fill="#C19447" d="M191.887,40.696c-0.394,0.208-0.684,0.424-0.979,0.63c0.479-0.208,0.917-0.416,1.29-0.617
						C192.088,40.717,191.973,40.709,191.887,40.696z"/>
					<path fill="#C19447" d="M173.841,50.339c0.008-0.424,2.001-1.532,3.973-1.792c1.698-0.928,0.08-1.729-1.737-1.848
						c0.002,0.183,0.057,0.333-1.715,1.221c0.722-0.031,4.278-1.005,2.838-0.105c-2.382,1.076-2.056,0.593-3.319,0.826
						c1.18,0.099-2.875,1.801-2.095,2.291l2.063-1.016C173.927,50.007,173.209,50.458,173.841,50.339z"/>
					<path fill="#C19447" d="M179.616,45.465l0.744-0.321c-0.892,0.248-1.566,0.324-2.816,0.445
						c-1.202,0.639-1.414,0.872-1.457,1.028l3.769-1.301L179.616,45.465z"/>
					<path fill="#C19447" d="M183.779,43.909c-0.448,0.62-2.215,1.453-0.937,1.487c2.225-0.834,1.444-0.903,2.716-1.561
						c-3.57,1.401,0.955-0.6-1.734,0.111c0.684-0.325,1.313-0.576,1.909-0.81c-0.667,0.185-1.315,0.35-1.932,0.488
						c0.036-0.001,0.062-0.003,0.092-0.004l0.017-0.008l-0.001,0.008c0.174-0.005,0.236,0.007,0.05,0.041
						c-0.01,0.01-0.053,0.027-0.072,0.035c-0.004,0.065-0.053,0.139-0.108,0.212c-1.075,0.293-0.202-0.046,0.108-0.212
						c0.005-0.024,0.026-0.053,0.022-0.076h-0.015l-3.533,1.525C181.146,44.925,182.099,44.568,183.779,43.909z"/>
					<path fill="#C19447" d="M202.934,40.621c-0.112-0.061-0.103-0.091-0.107-0.124C202.565,40.526,202.47,40.536,202.934,40.621z"
						/>
					<path fill="#C19447" d="M201.337,40.234c0.289-0.063,0.546-0.246,1.503-0.086c0.795,0.286-0.04,0.201-0.014,0.35
						c0.551-0.011,2.045,0.115,0.29-0.471c0,0-0.296-0.001-0.297,0.007c-0.809-0.174-1.77-0.397-2.517-0.454
						c-0.748-0.113-1.259-0.097-1.115-0.176C199.765,39.684,200.256,39.867,201.337,40.234z"/>
					<path fill="#C19447" d="M192.357,41.942l-2.937,1.284l1.659-0.202l-0.154-0.182C192.666,42.307,192.203,42.181,192.357,41.942z
						"/>
					<polygon fill="#C19447" points="175.475,46.606 175.719,46.034 174.199,47.265 					"/>
					<polygon fill="#C19447" points="171.583,48.068 171.594,47.643 170.643,48.241 					"/>
					<path fill="#C19447" d="M22.451,160.133c0,0,0.703,0.109,0.706,0.084C22.827,160.182,22.617,160.132,22.451,160.133z"/>
					<path fill="#C19447" d="M18.581,156.969l-0.229-0.014C18.56,157.115,18.67,157.157,18.581,156.969z"/>
					<path fill="#C19447" d="M75.584,82.752c-1.413,0.117-3.046,0.097-2.739,0.459l0.542,0.265
						C74.261,83.079,74.967,82.876,75.584,82.752z"/>
					<path fill="#C19447" d="M10.707,108.914c0.137-0.004,0.28-0.008,0.422-0.012c0.262-0.253,0.508-0.491,0.729-0.704
						C11.511,108.414,11.119,108.658,10.707,108.914z"/>
					<path fill="#C19447" d="M10.408,110.931c0,0-0.446,0.087-0.892,0.174c-0.371,0.08-0.742,0.16-0.742,0.16
						c0.178-0.02,0.385-0.054,0.626-0.106C9.686,111.094,10.019,111.018,10.408,110.931z"/>
					<path fill="#C19447" d="M55.939,149.235l0.881-0.788C55.208,149.032,55.994,148.985,55.939,149.235z"/>
					<path fill="#C19447" d="M131.598,62.665c-1.169,0.242-2.077,0.494-2.861,0.754C130.16,63.17,131.367,63.132,131.598,62.665z"/>
					<path fill="#C19447" d="M18.039,163.016c0.632,0.333,0.933,0.401,0.966,0.303C18.357,163.019,17.977,162.84,18.039,163.016z"/>
					<path fill="#C19447" d="M125.528,64.578c0.21-0.03,0.41-0.079,0.622-0.116c0.788-0.362,1.584-0.711,2.586-1.043
						C127.685,63.601,126.514,63.902,125.528,64.578z"/>
					<path fill="#C19447" d="M182.822,103.837c0.099-0.015,0.213-0.046,0.305-0.055C183.134,103.717,183.005,103.76,182.822,103.837
						z"/>
					<path fill="#C19447" d="M221.539,93.645c-0.168,0.16-0.398,0.361-0.656,0.579c-0.277,0.193-0.579,0.404-0.872,0.609
						C220.31,94.657,220.826,94.358,221.539,93.645z"/>
					<path fill="#C19447" d="M155.79,53.565C156.609,53.24,155.904,53.473,155.79,53.565L155.79,53.565z"/>
					<path fill="#C19447" d="M160.404,53.725c-0.16,0.109-0.273,0.216-0.259,0.318C160.177,53.919,160.271,53.815,160.404,53.725z"
						/>
					<path fill="#C19447" d="M118.186,70.098c-0.024,0.008-0.044,0.015-0.072,0.025C118.389,70.113,118.341,70.113,118.186,70.098z"
						/>
					<path fill="#C19447" d="M157.104,53.301c-0.329,0.063-0.703,0.15-1.104,0.262C156.183,53.532,156.52,53.456,157.104,53.301z"/>
					<path fill="#C19447" d="M156.867,53.168c0.292-0.087,0.521-0.156,0.739-0.222C157.686,52.84,157.578,52.832,156.867,53.168z"/>
					<path fill="#C19447" d="M154.642,54.004c0.472-0.177,0.921-0.318,1.358-0.441c-0.173,0.031-0.25,0.032-0.21,0.003
						C155.548,53.658,155.208,53.788,154.642,54.004z"/>
					<path fill="#C19447" d="M115.297,129.436c0.059-0.008,0.126-0.017,0.191-0.026
						C116.264,128.938,115.907,129.098,115.297,129.436z"/>
					<path fill="#C19447" d="M55.534,94.776c0.037-0.019,0.054-0.037,0.087-0.054c-0.041,0.009-0.091,0.021-0.128,0.03
						L55.534,94.776z"/>
					<path fill="#C19447" d="M52.666,96.155c1.085-0.966,1.829-1.164,2.828-1.403l-1.41-0.821L52.666,96.155z"/>
					<path fill="#C19447" d="M36.425,156.632l-2.224,0.389c2.307-1.515,4.208-1.965,2.058-1.773
						c0.166,1.384-8.081,3.064-7.912,4.445c0,0-0.369,0.057-0.738,0.114c-0.182,0.027-0.364,0.054-0.5,0.075
						c-0.105,0.002-0.175,0.004-0.175,0.004c0.137-0.03,0.237-0.081,0.354-0.144c0.108-0.057,0.216-0.113,0.414-0.177
						c-0.791,0.124-1.021,0.141-1.29,0.297c-0.255,0.111-0.431,0.282-0.638,0.482c-0.407,0.313-1.012,0.853-2.466,0.488
						c-0.995-0.305-1.532-0.786-0.858-0.7c0,0-0.137-0.013-0.333-0.069c-0.196-0.054-0.474-0.098-0.729-0.204
						c-0.265-0.086-0.53-0.183-0.716-0.282c-0.193-0.089-0.323-0.148-0.323-0.148c-0.493-0.434-0.228-0.491,0.266-0.109
						c0,0-0.184-0.099-0.425-0.296c-0.261-0.175-0.563-0.461-0.867-0.747c-0.586-0.597-1.017-1.325-1.017-1.326l0.046,0.002
						c-0.213-0.153-0.521-0.442-0.785-0.789c-0.281-0.321-0.578-0.86-0.758-1.132c-0.192-1.106,0.323,0.473,0.387,0.149
						l-1.127-2.154c-0.002-1.042,0.997,0.719,1.514,2.301c0.512-2.576-1-1.764-1.903-6.599l0.935,2.081
						c0.227-1.641-0.638-3.215-1.059-5.797c-0.029,0.659,0.608,5.253-0.597,2.909c-0.153-0.728-0.437-1.658-1.172-2.892
						c0.449-0.176-0.129-1.431-0.74-3.042l0.642-0.106c-0.806-1.689-1.062-1.44-1.705-2.374c-0.645-1.974-0.325-2.547-0.099-3.148
						c-1.033-3.162,0.032,2.429-1.417-1.231c-0.708-2.684-1.613-4.422-3.096-7.403c-0.45-1.895,0.483,0.186,0.419-0.529l-1.062-1.44
						c-0.131-0.399,0.062-0.325,0.16-0.288c-0.677-1.292-0.642,0.105-1.577-1.973c-0.217-0.084-0.365-0.423-0.49-0.92
						c-0.063-0.249-0.12-0.537-0.177-0.853c-0.028-0.158-0.057-0.323-0.087-0.493c-0.013-0.147-0.027-0.299-0.042-0.455
						c-0.13-1.248,0.028-2.559-0.129-3.757c0.29-0.517,0.331,0.339,0.609,0.209c0.032-1.504,0.341-2.151,0.504-2.734
						c0.25-0.555,0.35-1.121,1.133-2.31c0,0,0.129-0.074,0.324-0.186c0.185-0.122,0.463-0.235,0.729-0.354
						c0.536-0.233,1.088-0.381,1.088-0.38c-0.832,0.171-0.897-0.086-0.48-0.611c0.398-0.496,1.443-1.147,2.413-1.739
						c-0.74,0.02-1.375,0.034-1.787,0.079l3.215-1.525c0.438-0.046,0.177,0.281-0.278,0.73c0.208-0.136,0.404-0.264,0.559-0.365
						c1.272-0.208,0.779,0.363,0.047,1.006c-0.449,0.021-0.897,0.042-1.334,0.063c-0.691,0.662-1.315,1.345-1.017,1.635
						c0.191-0.147,0.587-0.357,1.034-0.556c-0.18,0.177-0.285,0.314-0.164,0.339c0.136,0.023,0.436-0.236,0.925-0.586l1,0.397
						l0.088-0.333l4.511-1.153c2.875-1.801,5.229-3.773,10.08-5.836c-1.05,0.935,0.026,0.899,0.169,1.506
						c-1.573-0.13-3.739,1.646-6.35,2.446c1.362-0.418,1.168-0.035,0.863,0.186l4.373-2.212c0.068,0.514,1.101,0.007,2.367-0.227
						c-1.244-0.616,3.184-1.858,4.942-2.819c0.229,0.274-0.101,0.758-2.399,1.502c2.762-0.195,2.839-2.275,5.517-2.56
						c-0.552,0.208-0.869,0.267-1.03,0.506c1.194-0.749,4.442-1.668,3.796-1.124l-0.551,0.206
						c3.722-1.217,11.211-4.038,11.472-5.036c0.074,0.09-0.135,1.139-0.299,1.38l5.599-5.063c-0.331,0.896,2.481,1.731-0.432,3.221
						c0.912-0.219,2.038-0.496,3.799-1.405c-0.633,0.118-1.85-0.456-1.055-0.813c2.52-0.044,1.705-0.152,4.706-0.498
						c-0.949,0.176-0.342-1.261,1.087-1.738c-0.163,0.241,0.501,1.021,0.024,1.32l3.145-2.33c-0.812,0.508,0.168,0.953,1.065,0.967
						c-0.441-0.075,3.055-1.08,3.958-1.524l-1.583,0.294c4.039-1.276,3.396-2.906,7.365-4.276c-0.399,0.391-0.695,1.771,1.361,1.179
						c0.725-0.874,3.136-4.076,6.48-5.754l0.782,0.068l2.554-1.32c-1.375,1.417-5.441,4.823-7.759,6.414
						c1.578-0.292,0.546,0.215,2.768-0.618c0.893,0.006-1.057,0.879-1.708,1.133l5.262-1.687c-0.459-0.549,3.744-2.068,3.355-2.523
						l-5.406,2.691c-0.457-0.549,2.615-2.972,6.336-4.189c1.027-0.086-0.294,1.378-0.142,1.562c0.399-0.39,3.343-1.676,3.737-1.644
						l-1.439,0.901c2.135-0.501,3.042-2.045,5.722-2.33c0.865-0.266,2.832-0.102,2.844-0.528c-1.646-0.222-2.723-2.356-1.995-3.231
						c0.315-0.059,4.711-0.92,5.811-0.914c1.604,0.061-1.615,2.107-0.248,2.163c-0.011-0.191,0.685-0.683,0.983-0.868
						c0.945-0.174-0.177,0.668,1.734-0.109c0.092-0.758,3.964-1.369,0.721-0.873c1.831-0.868,2.064-0.596,4.281-1.427
						c-0.858-0.159,1.492-2.132,3.326-3c-0.053,0.204,0.451,0.262,0.692,0.284c3.91-1.345,6.103-1.807,9.731-3.109
						c0.391,0.034,2.208-0.409,1.562,0.136c0.481-0.302,0.881-0.692,1.995-1.111c2.364-0.227-2.463,0.986-0.573,1.056
						c0.007-0.423,2.708-1.558,4.216-2.365c-0.697-0.398-3.72,1.218-5.232,2.026c-0.293-0.791,2.184-2.625,5.841-4.359
						c2.941-1.284,1.491,0.042,1.974-0.26c5.708-1.902,4.32-3.125,9.225-4.248c2.046-0.167,0.447,0.977,0.992,1.192
						c-2.385,1.077-3.883,1.038-5.539,1.659l2.134-0.5c-0.72,0.45-2.312,1.168-3.257,1.344c1.727-0.109,9.59-3.361,14.107-4.517
						c0.714-0.45,1.99-1.108,1.283-1.083l-1.355,0.569c-1.417,0.05,2.396-1.502,0.579-1.062c1.75-0.956,3.664-2.156,6.355-2.866
						L162.921,53c-0.117-0.148-1.829,0.272-2.499,0.712c0.995-0.648,4.281-0.663,5.2-1.848l-1.973,0.26
						c1.756-0.961,3.834-2.403,6.212-3.055c-1.257-0.19-0.509,0.257-2.393,0.184c1.723,0.315-5.926,2.099-3.324,2.145
						c-1.964-0.166-3.036,0.724-5.477,0.86c0.137,0.166,0.912,0.082-1.063,0.688c-0.067,0.087-0.249,0.232-0.365,0.321
						c-0.062,0.015-0.083,0.021-0.136,0.033c0.042-0.006,0.074-0.01,0.115-0.016c-0.074,0.059-0.079,0.067,0.043-0.007
						c0.492-0.083,0.902-0.119,1.093-0.067c-0.805,0.784-3.896,1.884-4.858,2.487c-1.185,0.325,0.402-0.393-0.299-0.368l-1.437,0.9
						c-0.307-0.367-3.313,0.402-0.689-0.824l-2.449,0.862c-1.523,0.282-3.534,0.901-4.689,1.519
						c-1.185,0.324-2.74,1.517-1.856,0.825l-3.735,1.643l-0.073-0.093c-3.797,1.31-7.525,3.505-12.119,4.302
						c-1.234,0.565-2.501,1.17-4.672,1.818l-0.546-0.216c-1.587,0.717-5.036,1.404-5.601,2.038
						c-2.117-0.348-8.003,2.645-10.938,3.507l0.064,0.516c-1.987,0.687-3.834,1.506-6.219,2.583l0.303,0.368
						c-1.991,1.109-5.547,1.663-8.878,2.913c0.169-0.243,1.033-0.507,1.669-0.626c-4.342,0.49-8.185,3.736-12.062,4.351
						c-0.848,0.479-1.521,0.663-2.193,0.785c0.083-0.031,0.156-0.066,0.216-0.102c-0.093,0.032-0.231,0.08-0.373,0.128
						c-0.425,0.071-0.866,0.135-1.336,0.228c0.416-0.034,0.808-0.08,1.137-0.155c-0.694,0.26-1.731,0.694-2.729,1.173l-0.604-0.294
						c-0.083,0.035-0.149,0.063-0.235,0.1c-1.077,0.199-0.74,0.509-0.075,0.654c-0.495,0.263-0.94,0.524-1.271,0.768
						c-1.09-0.434-2.629,1.227-4.038,0.853c-0.561,0.632-5.104,2.166-5.368,3.165c-0.073-0.091-0.396-0.031,0.161-0.239
						c-1.188,0.326-2.375,0.651-3.329,1.25l-0.698-0.399l-2.243,1.684c-1.659,0.202-2.367,0.228-1.005-0.765
						c-3.428,2.007-2.888,1.332-5.768,3.135l0.018-0.427c-1.111,0.417-2.716,1.56-3.501,1.495
						c-2.753,0.194-12.395,4.362-19.044,6.018c1.64,0.647-3.157,0.584-3.105,1.525c-0.467-0.125-1.414,0.052-0.457-0.549
						c-3.18,1.436-5.064,1.363-7.065,2.895c-0.469-0.125,0.563-0.633,0.174-0.667c-0.243,0.151-0.958,0.601-1.354,0.569
						c-0.389-0.034,0.4-0.39,0.877-0.69c-3.327,1.25-3.376,2.171-3.349,3.009c-1.822,0.256-2.649,0.611-3.694,1.544
						c-0.326-0.029-0.8,0.021-0.917-0.049c-0.118-0.071,0.208-0.324,1.207-0.723c-0.305,0.106-0.854,0.247-1.736,0.602
						c-0.834,0.342-1.787,0.869-2.58,1.54c-0.819,0.641-1.444,1.432-1.852,2.047c-0.369,0.647-0.547,1.106-0.414,1.222
						c-0.377,0.299-0.924,1.766-0.911,2.154c-0.466,1.51-0.548,2.389-0.56,3.244c-0.015,0.854,0.038,1.729,0.498,3.216
						c0,0-0.037-0.213-0.075-0.427c-0.042-0.211-0.046-0.43-0.046-0.43c1.028,1.021,0.902,2.233,1.729,4.303l-0.096-0.033
						c1.194,4.948,0.992,1.964,2.089,6.875l0.359-0.418c1.128,0.088,0.928,4.367,2.283,6.958l-0.097-1.077
						c0.869,1.369,0.181,4.636,0.599,6.174c0.033,0.356-0.321-0.465-0.548-0.897c0.84,4.119,0.774,0.293,1.963,3.16
						c-0.125,0.652-1.061-0.401-0.412,1.583c0.095,1.071,3.089,5.319,3.443,8.217c0.033-0.678,0.067-1.353,0.74-0.065
						c0.223,0.529,0.353,1.098,0.577,1.856c0.231,0.782,0.533,1.625,0.982,2.389c0.851,1.555,2.23,2.81,3.459,3.071
						c0.237,0.247,0.319,0.36,0.299,0.423c0.922,0.432,2.485,0.981,4.001,1.09c1.517,0.143,2.906-0.184,3.427-0.484
						c0.246,0.161,0.626,0.241,1.097,0.229c0.445-0.037,1.068-0.167,1.528-0.331c1.002-0.334,2.152-0.86,3.255-1.374
						c2.205-1.027,4.216-2.001,4.458-1.276l4.853-1.838l-0.075,0.193c3.155-1.03,4.133-1.773,5.105-2.514
						c0.756-0.163,0.278,0.162,0.246,0.259c4.664-1.355,5.095-1.58,8.659-3.675l0.566,0.323c0.938-0.645,6.854-1.647,11.129-3.804
						c-0.024,0.069-0.084,0.193-0.416,0.386c4.833-2.362,12.51-3.051,13.741-5.415l3.168-1.616
						c-4.342,1.417,0.374-0.967-1.495-0.612c1.653-0.709,4.551-1.063,2.507-0.227l-0.355,0.032c-0.443,1.16,5.45-1.612,5.552-0.967
						c8.436-3.093,16.849-5.575,24.779-8.394l-1.16-0.359l2.776-0.957c0.783-0.101,1.167,0.187-0.813,0.87
						c1.176,0.016,3.186-1.519,3.188-1.688c3.958-1.113-1.217,1.346-0.028,0.935l1.588-0.63l-0.392,0.05
						c1.201-0.751,1.209-1.091,3.589-1.911c1.548-0.403,0.921,0.147,1.521-0.039c0.014,0.05,0.222,0.001,0.912-0.307l3.5-1.197
						l-1.587-0.041c1.445-0.824,3.281-1.152,1.454-1.188c2.699,0.099,13.1-4.342,14.653-4.569c2.017-1.176,4.151-1.938,6.809-2.843
						c-0.698,0.124-1.311-0.345,0.994-1.092c-0.378,1.561,4.368-0.958,6.536-0.715c-1.862-0.008,6.421-2.485,3.532-2.407
						c1.937-0.584,0.286,0.43,1.834,0.206c4.347-2.121,10.083-3.28,15.615-5.462c0.028-0.196-1-0.112,0.11-0.791l3.251-0.238
						c1.075-0.479,0.672-1.322,2.896-1.476c-0.334-0.037-0.836-0.092-0.114-0.413c5.622-1.573,11.158-3.757,16.748-5.86
						c2.794-1.051,5.603-2.083,8.441-3.007c1.419-0.462,2.846-0.898,4.283-1.296c0.718-0.199,1.439-0.389,2.163-0.567
						c0.382-0.103,0.68-0.147,1.132-0.29c0.433-0.137,0.881-0.251,1.302-0.44c-0.957,0.311-1.154,0.227-0.925,0.093
						c0.235-0.135,0.828-0.475,1.466-0.841c-0.864,0.403-0.2-0.38-0.488-0.488c0,0,1.301-0.575,2.418-1.519
						c0.291-0.222,0.552-0.475,0.794-0.72c0.252-0.237,0.468-0.477,0.64-0.694c0.366-0.42,0.572-0.732,0.573-0.731
						c-0.01-0.625,0.649-2.021,0.912-3.496c0.289-1.464,0.188-2.926-0.174-3.176c0.042-0.008,0.189,1.773,0.147,1.778
						c-0.355-1.204-0.73-0.325-1.293,0.562c-0.563,0.917-1.375,1.781-1.773,1.48c0.074,1.12-0.941,2.284-2.175,3.099
						c-0.629,0.406-1.29,0.777-1.985,1.106c-0.335,0.2-0.689,0.324-1.049,0.552c-0.427,0.218-0.843,0.475-1.242,0.78
						c-0.862,0.103,0.574-0.536,0.073-0.591c-0.774,0.716-1.848,1.194-3.954,1.759l0.196-0.179
						c-5.708,2.166-8.308,2.674-14.85,4.748l0.639,0.273c-1.408,0.441-1.75,0.406-2.439,0.529c-1.347,1.249,3.907-1.367,2.727-0.099
						c-2.166-0.243-9.78,3.513-11.395,2.932c-2.135,0.764,0.811,0.29-1.323,1.053l-0.666-0.075l-0.409,0.554
						c-1.419,0.445-2.25,0.351-2.388,0.134c0.35-0.094,0.94-0.414,1.297-0.565c-1.932,0.326-5.072,1.956-5.733,2.074l2.111-0.568
						c-5.726,2.361-12.964,4.559-18.382,7.154l0.503,0.057c-4.153,1.938-3.522,1.01-8.172,2.89l0.153-0.112
						c-0.868,0.55-2.089,1.11-3.388,1.552c1.102-0.676-2.413,0.33-0.95-0.506c-4.505,2.098-2.185,1.159-4.978,3.05l-0.834-0.093
						c-0.935,0.693-0.962,0.891-3.284,1.831c1.823-0.996-1.695,0.011,0.326-1.166c-5.215,1.02-7.058,3.417-9.727,3.12
						c-1.921,1.784,4.469-1.006,3.272-0.342c1.178-0.068-1.612,1.397-3.197,1.86c-1.586,0.548-3.129-0.267-7.093,1.184
						c0.396-0.138,0.397-0.22,0.792-0.358c-1.575,0.29-2.791,1.383-4.758,1.641c-0.811,0.952-2.378,0.82-2.404,1.671l3.58-1.486
						c-1.995,0.939-3.616,2.509-7.169,3.314c0.211-0.246,1.151-0.809,1.807-1.169c-1.074,0.139-1.863,0.836-2.976,0.982
						c0.025-0.851,4.368-1.759,6.375-3.125c-1.181,0.071-3.989,2.05-3.169,0.841c-1.228,1.603-3.958,1.282-6.364,3.036l0.017-0.51
						c-0.4,0.223-1.206,0.752-1.993,1.023l1.209-1.09c-1.999,1.279-4.352,1.083-6.343,2.104c4.367-1.591,1.175,0.184,3.142-0.157
						c-5.176,2.542-3.522-0.049-9.481,2.343c0.794-0.358,3.165-0.839,1.961-0.171c-1.182,0.323-2.762,0.699-3.551,0.719
						c-3.966,1.535,0.78,0.237-0.824,1.126c-1.558-0.053-1.884,0.93-3.575,1.736l-0.176-0.449c-4.663,1.353-0.867,1.382-5.097,2.51
						l1.507-1.255l-2.08,0.934l0.255-0.675c-2.189,1.223-2.95,1.385-5.282,2.063c0.646,0.128,0,0.931-2.014,1.674
						c-1.474,0.227,0.615-0.71-2.222,0.388c0.543-0.517,1.122-1.129,2.518-1.16c0.075-0.194,0.535-0.515,0.613-0.708
						c-1.594,0.225-3.751,1.273-4.786,1.651c0.405-0.127,0.89-0.274,1.158-0.298l-3.921,2.125c-0.714,0.065-0.246-0.258,0.219-0.578
						c-0.823,0.353-1.329,0.771-2.55,1.255c0.187-0.484-0.027-0.837,1.659-1.641l-3.805,1.835c-0.321-0.065-2.187,0.292-1.723-0.03
						c-2.27,0.574-5.117,2.655-8.125,3.417c-0.125,0.126-0.403,0.304-1.001,0.579c-2.76,0.901-5.342,1.322-8.395,2.995l-2.075,0.001
						c-2.479,1.064,2.786-0.064-1.343,1.708c-2.912,1.289-1.318-0.162-2.433,0.033c-1.366,0.869-3.704,2.479-6.643,2.931
						C34.846,157.147,35.594,156.988,36.425,156.632z M14.973,147.987c0.313,0.571,1.043,1.672,0.936,2.211
						C15.139,149.697,15.195,149.073,14.973,147.987z M15.623,108.126c-0.396,0.313-1.119,0.49-1.967,0.601
						C14.213,108.484,14.865,108.268,15.623,108.126z M146.834,57.214c-0.023,0.017-0.039,0.028-0.057,0.045
						C145.363,57.57,145.867,57.466,146.834,57.214z M149.711,56.399c0.259-0.166,0.217-0.221,0.075-0.242
						c-0.154,0.186-0.781,0.421-1.51,0.647C148.518,56.851,148.91,56.803,149.711,56.399z M125.255,129.294l-0.589,0.079
						C125.853,128.797,125.549,129.04,125.255,129.294z"/>
					<path fill="#C19447" d="M10.46,110.69c-0.199-0.015-0.277-0.083-0.348-0.153C9.902,110.7,9.929,110.79,10.46,110.69z"/>
					<path fill="#C19447" d="M55.776,149.381l0.097-0.029c0.043-0.046,0.061-0.084,0.066-0.117L55.776,149.381z"/>
					<path fill="#C19447" d="M107.646,75.924c-0.601,0.143-0.954,0.176-1.198,0.167C106.456,76.214,106.752,76.213,107.646,75.924z"
						/>
					<path fill="#C19447" d="M164.298,50.264l-1.754,0.766c0.861-0.336,1.207-0.349,1.672-0.435
						C164.137,50.503,163.739,50.474,164.298,50.264z"/>
					<path fill="#C19447" d="M180.908,47.445c0.242-0.151,0.555-0.208,0.793-0.357l-0.148-0.185
						C180.439,47.32,179.719,47.773,180.908,47.445z"/>
					<path fill="#C19447" d="M166.505,51.171c0.28,0.331,1.361-0.206,2.594-0.73c-0.075,0.029-0.146,0.058-0.223,0.08
						C169.055,49.853,167.777,50.514,166.505,51.171z"/>
					<path fill="#C19447" d="M169.386,50.323c0.381-0.158,0.774-0.311,1.16-0.43C170.616,49.626,170.059,50.019,169.386,50.323z"/>
					<path fill="#C19447" d="M153.177,54.862c0.633-0.117,0.199-0.623,0.593-0.59C154.261,53.546,150.002,56.296,153.177,54.862z"/>
					<polygon fill="#C19447" points="167.979,52.062 167.357,51.753 166.789,52.388 					"/>
					<path fill="#C19447" d="M157.916,55.301l2.058-0.595c-0.059-0.068,0.18-0.207,0.48-0.355
						C159.209,54.783,157.817,55.179,157.916,55.301z"/>
					<path fill="#C19447" d="M160.454,54.351c0.649-0.224,1.26-0.456,1.59-0.662C161.697,53.82,160.952,54.107,160.454,54.351z"/>
					<polygon fill="#C19447" points="165.28,53.195 164.65,53.311 163.217,53.789 					"/>
					<path fill="#C19447" d="M136.262,63.011l-2.146,0.927c-0.166,0.243,0.468,0.125,1.262-0.234
						C135.863,63.402,136.655,63.046,136.262,63.011z"/>
					<path fill="#C19447" d="M143.366,61.906c-0.629,0.117-0.707,0.026-1.097-0.008l0.144,0.608L143.366,61.906z"/>
					<path fill="#C19447" d="M137.014,64.353c-0.16,0.241-3.018,1.615-0.249,0.574C136.93,64.686,139.08,63.758,137.014,64.353z"/>
					<polygon fill="#C19447" points="103.674,75.546 104.229,75.338 103.804,74.409 					"/>
					<path fill="#C19447" d="M75.351,88.356c2.684-0.709,0.404-0.814,2.858-1.375c0.528-0.447-2.006,0.459-1.45,0.037
						C75.275,87.824,74.402,87.986,75.351,88.356z"/>
					<path fill="#C19447" d="M76.759,87.018c0.238-0.128,0.488-0.27,0.749-0.435C77.074,86.808,76.877,86.931,76.759,87.018z"/>
					<path fill="#C19447" d="M225.78,87.036c0,0,0.048-0.133,0.085-0.34c0.042-0.208,0.097-0.484,0.152-0.761
						c0.1-0.557,0.134-1.129,0.134-1.129s-0.088,0.364-0.175,0.728c-0.091,0.359-0.226,0.704-0.227,0.704
						C225.75,86.237,225.8,87.037,225.78,87.036z"/>
					<path fill="#C19447" d="M224.976,82.915c0,0,0.134-0.155,0.269-0.311c0.133-0.163,0.266-0.325,0.266-0.325
						c0,0-0.226-0.287-0.462-0.553c-0.234-0.259-0.467-0.518-0.467-0.518C224.755,81.647,225.078,82.526,224.976,82.915z"/>
					<path fill="#C19447" d="M14.526,142.896l-0.193-0.075c-0.065,0.316,0.064,0.712,0.322,1.505L14.526,142.896z"/>
					<path fill="#C19447" d="M24.155,159.847l-0.281-0.041c0,0,0.118,0.159,0.236,0.317c0.129,0.163,0.259,0.325,0.259,0.325
						s-0.056-0.151-0.112-0.302C24.205,159.997,24.155,159.847,24.155,159.847z"/>
					<path fill="#C19447" d="M41.82,153.348c-0.785,0.257-1.654,0.71-2.443,0.969C41.035,153.605,42.279,153.96,41.82,153.348z"/>
				</g>
			</g>
		</g>
	</g>
</g>
<polygon fill="#B9842C" points="93.566,46.219 97.708,51.55 104.057,49.259 100.268,54.845 104.408,60.176 97.924,58.297 
	94.134,63.882 93.917,57.136 87.434,55.257 93.783,52.966 "/>
<polygon fill="#B9842C" points="76.839,59.257 81.037,61.608 84.571,58.342 83.632,63.062 87.83,65.413 83.052,65.979 
	82.113,70.697 80.099,66.327 75.32,66.894 78.854,63.627 "/>
<polygon fill="#B9842C" points="66.754,72.535 70.559,73.5 72.652,70.18 72.91,74.096 76.713,75.061 73.068,76.516 73.326,80.431 
	70.816,77.415 67.172,78.87 69.266,75.551 "/>
<polygon fill="#B9842C" points="114.311,45.203 112.58,49.693 107.775,49.436 111.512,52.469 109.781,56.959 113.82,54.343 
	117.556,57.375 116.316,52.726 120.355,50.11 115.551,49.854 "/>
<polygon fill="#B9842C" points="130.549,48.983 128.237,52.155 124.507,50.937 126.809,54.115 124.498,57.286 128.231,56.079 
	130.533,59.257 130.539,55.333 134.272,54.126 130.543,52.908 "/>
<polygon fill="#B9842C" points="132.875,156.057 128.734,150.726 122.385,153.017 126.175,147.432 122.033,142.101 128.518,143.979 
	132.309,138.394 132.524,145.141 139.008,147.019 132.658,149.31 "/>
<polygon fill="#B9842C" points="149.604,143.019 145.404,140.667 141.871,143.934 142.81,139.214 138.611,136.863 143.391,136.298 
	144.329,131.579 146.344,135.948 151.121,135.383 147.588,138.648 "/>
<polygon fill="#B9842C" points="159.688,129.741 155.883,128.776 153.79,132.096 153.532,128.18 149.729,127.216 153.373,125.76 
	153.115,121.845 155.625,124.86 159.27,123.405 157.176,126.725 "/>
<polygon fill="#B9842C" points="112.131,157.072 113.861,152.582 118.666,152.84 114.931,149.808 116.66,145.317 112.621,147.933 
	108.887,144.9 110.126,149.55 106.087,152.165 110.893,152.423 "/>
<polygon fill="#B9842C" points="95.893,153.292 98.205,150.12 101.936,151.34 99.633,148.161 101.944,144.99 98.21,146.197 
	95.909,143.019 95.903,146.942 92.17,148.149 95.899,149.368 "/>
<g>
	
		<text transform="matrix(0.9443 -0.329 0.329 0.9443 35.8721 141.061)" fill="#FFFFFF" font-family="'NuevaStd-Bold'" font-size="33.1533">CONCLUÍDO</text>
</g>
</svg>
