<?xml version="1.0" encoding="utf-8"?>
<!-- Generator: Adobe Illustrator 16.0.0, SVG Export Plug-In . SVG Version: 6.00 Build 0)  -->
<!DOCTYPE svg PUBLIC "-//W3C//DTD SVG 1.1//EN" "http://www.w3.org/Graphics/SVG/1.1/DTD/svg11.dtd">
<svg version="1.1" id="Layer_1" xmlns="http://www.w3.org/2000/svg" xmlns:xlink="http://www.w3.org/1999/xlink" x="0px" y="0px"
	 width="225.5px" height="202.419px" viewBox="0 0 225.5 202.419" enable-background="new 0 0 225.5 202.419" xml:space="preserve">
<g>
	<path fill="#1575B3" d="M112.376,202.419c-20.509,0-40.311-6.185-57.266-17.886c-17.328-11.959-30.277-28.782-37.446-48.652
		C-1.177,83.659,25.978,25.845,78.201,7.003C89.24,3.02,100.734,1,112.365,1c20.512,0,40.313,6.185,57.268,17.885
		c17.326,11.958,30.275,28.782,37.445,48.653c9.127,25.297,7.857,52.635-3.576,76.977s-31.662,42.774-56.959,51.901
		C135.502,200.399,124.007,202.419,112.376,202.419z M112.365,6.021c-11.048,0-21.969,1.919-32.461,5.705
		C30.288,29.629,4.486,84.56,22.388,134.176c13.644,37.815,49.807,63.222,89.988,63.222c11.049,0,21.97-1.92,32.461-5.705
		c24.035-8.672,43.255-26.185,54.119-49.313c10.863-23.128,12.069-49.103,3.396-73.137C188.71,31.429,152.546,6.021,112.365,6.021z"
		/>
</g>
<g>
	<path fill="#1575B3" d="M112.292,195.455c-19.14,0-37.62-5.771-53.442-16.69c-16.168-11.158-28.252-26.858-34.942-45.402
		C6.324,84.629,31.666,30.678,80.398,13.095c10.303-3.718,21.029-5.603,31.883-5.603c19.139,0,37.618,5.771,53.441,16.692
		c16.169,11.158,28.252,26.858,34.943,45.4c17.582,48.733-7.76,102.685-56.491,120.269
		C133.871,193.571,123.144,195.455,112.292,195.455z M112.281,8.496c-10.736,0-21.349,1.865-31.542,5.543
		C32.527,31.434,7.457,84.809,24.851,133.021c13.258,36.744,48.397,61.431,87.44,61.431c10.736,0,21.349-1.864,31.542-5.542
		c48.211-17.396,73.281-70.771,55.887-118.982C186.462,33.184,151.324,8.496,112.281,8.496z"/>
</g>
<g>
	<path fill="#1575B3" d="M83.976,184.66c-0.044,0.05-0.099,0.073-0.196,0.032c-0.136-0.057-0.576-0.262-1.534-0.705
		c-0.965-0.424-2.437-1.058-4.656-1.979c-0.76-0.315-1.741-0.7-2.392-0.948c-0.059-0.024-0.05-0.044-0.042-0.063
		c0.033-0.077,0.128-0.197,0.194-0.192l0.977,0.177c0.153,0.018,0.255-0.008,0.344-0.223c0.262-0.576,1.865-4.544,2.229-5.421
		c0.296-0.768,1.77-4.424,1.998-5.083c0.097-0.233,0.051-0.344-0.049-0.432l-0.733-0.487c-0.039-0.016-0.041-0.177,0.016-0.313
		c0.008-0.02,0.016-0.039,0.055-0.022c0.467,0.193,0.907,0.399,1.316,0.569s0.779,0.323,1.09,0.452
		c4.342,1.804,5.865,2.368,6.099,2.465c0.078,0.032,0.101,0.088,0.068,0.166l-0.923,2.606c-0.024,0.059-0.24,0.083-0.298,0.06
		c-0.02-0.009-0.039-0.017-0.042-0.063c-0.021-0.717-0.052-1.414-0.085-2.158c-0.024-0.216-0.156-0.339-0.374-0.476
		c-0.784-0.53-2.421-1.37-2.713-1.492c-0.203-0.062-0.246-0.011-0.303,0.126c-0.591,1.146-1.994,4.194-2.241,4.845
		c1.319,0.616,3.483,1.562,3.981,1.791c0.039,0.016,0.031,0.035,0.023,0.055c-0.048,0.117-0.235,0.291-0.293,0.267
		c-0.792-0.237-2.759-0.941-3.813-1.264c-0.183-0.054-0.258-0.039-0.322,0.117c-0.287,0.634-1.901,4.301-2.127,4.846
		c-0.089,0.215-0.027,0.286,0.109,0.343c0.837,0.348,2.642,1.006,3.701,1.148c0.219,0.022,0.396-0.019,0.53-0.122
		c0.607-0.364,1.185-0.764,1.742-1.171c0.036-0.031,0.055-0.023,0.074-0.015c0.07,0.052,0.169,0.253,0.117,0.322L83.976,184.66z"/>
	<path fill="#1575B3" d="M105.959,176.709c0.042,0.009,0.037,0.029,0.028,0.07c-0.026,0.124-0.103,0.28-0.189,0.283l-0.752-0.008
		c-0.24,0.014-0.316,0.17-0.385,0.393c-0.151,0.614-0.923,4.568-1.089,5.352c-0.185,0.975-0.907,4.594-1.096,5.588
		c-0.027,0.231,0.021,0.307,0.157,0.378l0.757,0.397c0.058,0.033,0.063,0.207,0.046,0.29c-0.004,0.021-0.009,0.041-0.05,0.032
		c-0.408-0.107-1.208-0.299-2.281-0.525c-1.176-0.249-2.294-0.464-2.732-0.535c-0.062-0.013-0.058-0.033-0.049-0.075
		c0.017-0.082,0.089-0.218,0.155-0.226l1.167-0.012c0.153-0.011,0.204-0.15,0.244-0.336c0.263-1.346,1.04-6.85,1.372-8.827
		c0.027-0.231,0.063-0.504,0.116-0.752l-0.145-0.03c-0.16,0.246-0.32,0.493-0.417,0.645c-1.543,2.304-4.391,6.594-5.701,8.407
		c-0.18,0.242-0.296,0.282-0.821,0.214l-0.619-0.131c-0.083-0.018-0.14-0.051-0.143-0.138c-0.449-2.057-1.358-6.624-1.765-9.081
		c-0.027-0.178-0.123-0.543-0.141-0.763l-0.124-0.026c-0.069,0.223-0.176,0.523-0.235,0.705c-0.675,1.97-2.152,6.506-2.482,7.558
		c-0.064,0.201-0.02,0.297,0.12,0.349l1.199,0.447c0.062,0.013,0.093,0.171,0.067,0.294c-0.004,0.021-0.009,0.042-0.071,0.028
		c-0.387-0.104-1.043-0.264-1.765-0.416c-0.66-0.14-1.18-0.229-1.536-0.282c-0.041-0.009-0.037-0.029-0.028-0.07
		c0.017-0.083,0.114-0.234,0.176-0.222l0.844-0.016c0.148,0.011,0.244-0.034,0.292-0.261c0.226-0.966,1.143-4.587,1.342-5.428
		c0.187-0.78,1.234-5.02,1.348-5.556c0.023-0.211,0.004-0.323-0.21-0.433l-0.811-0.344c-0.058-0.034-0.064-0.208-0.042-0.311
		c0.009-0.042,0.034-0.058,0.095-0.045l4.353,0.921c0.083,0.018,0.115,0.067,0.123,0.134c0.386,2.15,1.074,7.965,1.399,9.994
		c0.027,0.179,0.057,0.443,0.125,0.738l0.124,0.025c0.181-0.241,0.329-0.533,0.425-0.686c1.199-1.794,3.812-6.198,5.21-8.532
		c0.034-0.058,0.083-0.09,0.146-0.077L105.959,176.709z"/>
	<path fill="#1575B3" d="M110.684,177.285c-0.063,0.002-0.11-0.144-0.114-0.249c-0.001-0.042-0.003-0.084,0.039-0.086
		c0.819-0.112,3.088-0.379,5.427-0.459c3.688-0.125,5.214,1.32,5.287,3.47c0.069,2.023-1.94,4.37-5.501,4.491
		c-0.295,0.01-0.716,0.024-0.844-0.014c-0.014,0.823,0.043,3.732,0.065,4.386c0.006,0.169,0.113,0.229,0.262,0.244l1.42,0.205
		c0.063-0.002,0.152,0.143,0.156,0.248c0.001,0.042-0.019,0.063-0.061,0.065c-0.843,0.008-1.919,0.023-2.994,0.06
		c-1.18,0.04-2.022,0.09-2.569,0.13c-0.042,0.001-0.064-0.02-0.065-0.062c-0.003-0.105,0.034-0.233,0.118-0.257l0.815-0.218
		c0.146-0.047,0.228-0.113,0.22-0.345c-0.003-0.718-0.187-4.867-0.242-5.878c-0.028-0.822-0.216-4.486-0.265-5.308
		c-0.008-0.231-0.075-0.335-0.265-0.35L110.684,177.285z M115.618,184.037c1.517-0.052,2.562-1.585,2.486-3.818
		c-0.058-1.707-1.064-3.382-2.519-3.332c-0.358,0.012-0.606,0.168-0.617,0.464c-0.018,1.963-0.009,5.929,0.006,6.392
		c-0.014,0.212,0.285,0.307,0.622,0.296L115.618,184.037z"/>
	<path fill="#1575B3" d="M132.735,177.673c0.312,1.614-0.847,2.955-1.882,3.714c1.212,1.161,2.931,3.278,4.087,4.816
		c0.115,0.149,0.214,0.216,0.367,0.229l0.872,0.068c0.112,0.021,0.177,0.138,0.197,0.241c0.008,0.041,0.012,0.062-0.05,0.074
		c-0.542,0.083-1.167,0.182-2.327,0.406c-0.787,0.151-1.632,0.336-2.56,0.537c-0.062,0.012-0.066-0.009-0.074-0.051
		c-0.02-0.104-0.002-0.235,0.077-0.272l0.796-0.325c0.179-0.077,0.266-0.181,0.106-0.343c-1.229-1.245-2.799-2.703-4.264-3.838
		c-0.074-0.05-0.144-0.079-0.227-0.063c-0.104,0.021-0.521,0.08-0.687,0.111c0.147,0.874,0.637,3.743,0.796,4.571
		c0.04,0.207,0.114,0.258,0.267,0.271l0.955,0.053c0.066,0.009,0.152,0.12,0.172,0.224c0.008,0.042-0.009,0.066-0.05,0.074
		c-0.583,0.092-1.499,0.247-2.534,0.446c-1.056,0.204-2.025,0.413-2.456,0.518c-0.062,0.012-0.066-0.009-0.074-0.05
		c-0.024-0.125-0.007-0.257,0.055-0.269l0.875-0.362c0.137-0.069,0.183-0.164,0.151-0.33c-0.156-0.808-0.917-4.526-1.109-5.521
		c-0.181-0.824-0.978-4.729-1.167-5.488c-0.064-0.224-0.126-0.319-0.254-0.315l-0.852,0.035c-0.066-0.009-0.152-0.121-0.176-0.245
		c-0.004-0.021-0.012-0.062,0.05-0.074c1.019-0.282,2.975-0.832,4.983-1.22c3.665-0.707,5.52,0.223,5.932,2.355L132.735,177.673z
		 M127.612,182.506c1.511-0.292,2.4-2.031,2-4.102c-0.344-1.78-1.585-2.98-2.993-2.708c-0.415,0.08-0.568,0.174-0.52,0.422
		c0.2,1.594,0.859,5.784,0.931,6.156c0.048,0.249,0.168,0.312,0.561,0.235L127.612,182.506z"/>
	<path fill="#1575B3" d="M143.702,184.317c-3.495,1.311-6.315,0.093-7.707-3.619c-1.473-3.929-0.228-7.638,3.721-9.118
		c3.495-1.31,6.258,0.356,7.502,3.674c1.562,4.166,0.453,7.576-3.497,9.057L143.702,184.317z M143.957,183.795
		c1.816-0.681,1.625-3.356,0.248-7.029c-1.081-2.883-3.032-5.326-4.79-4.667c-1.678,0.629-1.844,3.37-0.401,7.221
		c1.081,2.883,3.146,5.148,4.923,4.482L143.957,183.795z"/>
	<path fill="#1575B3" d="M149.863,175.521c-1.367-2.376-1.339-4.654-0.727-6.297c0.615-1.594,1.781-2.994,3.518-3.993
		c0.896-0.515,1.682-0.797,2.21-0.809c0.094-0.006,0.144,0.038,0.196,0.13l1.673,2.443c0.071,0.081-0.049,0.296-0.14,0.349
		c-0.018,0.011-0.037,0.021-0.104-0.013c-0.789-0.568-1.706-1.232-2.346-1.668c-0.157-0.104-0.322-0.18-0.484-0.208
		c-0.173-0.046-0.484-0.037-0.85,0.173c-0.713,0.41-1.268,1.265-1.498,2.345c-0.307,1.709,0.125,3.602,1.313,5.667
		c1.809,3.145,4.281,3.426,5.944,2.469c0.348-0.2,0.773-0.518,0.997-0.72c0.459-0.386,0.866-0.863,1.307-1.408
		c0.044-0.05,0.123,0.002,0.228,0.186c0.032,0.055,0.034,0.102,0.019,0.159c-0.294,0.461-1.011,1.457-1.572,2.047
		c-0.276,0.281-0.853,0.759-1.457,1.105c-2.888,1.661-6.105,1.735-8.218-1.938L149.863,175.521z"/>
	<path fill="#1575B3" d="M171.224,167.866c0.022,0.063,0.016,0.122-0.067,0.188c-0.116,0.092-0.509,0.376-1.363,0.997
		c-0.84,0.639-2.11,1.617-3.996,3.109c-0.646,0.511-1.459,1.182-1.992,1.63c-0.049,0.04-0.063,0.023-0.076,0.007
		c-0.052-0.066-0.111-0.208-0.074-0.264l0.63-0.769c0.089-0.124,0.117-0.227-0.027-0.408c-0.376-0.51-3.067-3.841-3.656-4.585
		c-0.527-0.632-3.008-3.699-3.474-4.219c-0.157-0.198-0.275-0.212-0.401-0.167l-0.783,0.404c-0.033,0.026-0.174-0.05-0.266-0.166
		c-0.013-0.017-0.026-0.033,0.007-0.059c0.397-0.314,0.791-0.6,1.138-0.874c0.347-0.275,0.662-0.523,0.926-0.733
		c3.688-2.919,4.923-3.978,5.122-4.134c0.066-0.053,0.125-0.046,0.178,0.021l1.831,2.075c0.04,0.05-0.044,0.25-0.094,0.289
		c-0.017,0.013-0.033,0.026-0.076,0.006c-0.637-0.329-1.262-0.642-1.929-0.975c-0.201-0.084-0.372-0.028-0.597,0.096
		c-0.846,0.427-2.376,1.45-2.625,1.646c-0.152,0.147-0.13,0.21-0.038,0.326c0.716,1.074,2.698,3.783,3.147,4.315
		c1.181-0.854,3.059-2.287,3.502-2.61c0.033-0.026,0.046-0.01,0.059,0.007c0.079,0.099,0.14,0.347,0.09,0.386
		c-0.593,0.576-2.165,1.955-2.959,2.719c-0.136,0.135-0.159,0.207-0.054,0.339c0.416,0.56,2.836,3.754,3.203,4.218
		c0.144,0.182,0.236,0.162,0.352,0.07c0.711-0.563,2.164-1.82,2.805-2.677c0.126-0.181,0.176-0.354,0.151-0.522
		c-0.023-0.709-0.091-1.407-0.177-2.094c-0.01-0.046,0.007-0.059,0.023-0.072c0.079-0.035,0.303-0.024,0.339,0.055L171.224,167.866z
		"/>
	<path fill="#1575B3" d="M176.994,156.301c1.774,1.685,1.43,4.558-1.389,7.523c-0.595,0.627-1.324,1.303-1.766,1.522
		c-0.103,0.048-0.177,0.064-0.284-0.008l-2.297-1.746c-0.061-0.028-0.008-0.298,0.036-0.344c0.029-0.031,0.059-0.031,0.104-0.018
		c0.796,0.203,1.608,0.451,2.373,0.625c0.27,0.053,0.419,0.049,0.7-0.032c0.401-0.085,0.84-0.395,1.232-0.808
		c1.25-1.314,1.551-2.919,0.558-3.863c-0.917-0.871-2.092-0.736-4.185,0.271c-2.151,1.04-3.67,1.138-4.832,0.034
		c-1.605-1.525-1.287-4.83,1.124-7.368c0.596-0.627,1.253-1.166,1.652-1.311c0.103-0.047,0.163-0.049,0.239,0.023l2.162,1.705
		c0.046,0.044,0.007,0.269-0.051,0.33c-0.029,0.03-0.043,0.046-0.088,0.032c-0.827-0.232-1.653-0.465-2.479-0.668
		c-0.165-0.04-0.3-0.052-0.551,0.029c-0.296,0.097-0.605,0.269-0.968,0.651c-1.032,1.085-1.214,2.687-0.251,3.602
		c0.826,0.784,1.836,0.639,3.713-0.051c2.023-0.813,3.902-1.412,5.232-0.148L176.994,156.301z"/>
	<path fill="#1575B3" d="M183.771,147.111c1.988,1.427,2.04,4.32-0.346,7.645c-0.504,0.703-1.134,1.471-1.541,1.75
		c-0.096,0.061-0.167,0.088-0.282,0.031l-2.515-1.416c-0.063-0.02-0.048-0.294-0.011-0.346c0.024-0.034,0.054-0.039,0.101-0.031
		c0.816,0.093,1.654,0.227,2.437,0.295c0.274,0.015,0.422-0.009,0.689-0.129c0.385-0.139,0.778-0.506,1.11-0.968
		c1.058-1.475,1.137-3.104,0.023-3.904c-1.028-0.737-2.174-0.443-4.109,0.842c-1.989,1.324-3.48,1.63-4.783,0.695
		c-1.799-1.291-1.937-4.609,0.105-7.453c0.504-0.703,1.082-1.327,1.458-1.524c0.096-0.062,0.155-0.071,0.24-0.01l2.375,1.394
		c0.051,0.037,0.043,0.265-0.006,0.333c-0.024,0.034-0.037,0.052-0.083,0.044c-0.851-0.117-1.701-0.234-2.547-0.321
		c-0.169-0.018-0.304-0.011-0.542,0.104c-0.28,0.137-0.563,0.35-0.87,0.778c-0.874,1.216-0.835,2.827,0.244,3.603
		c0.925,0.664,1.907,0.382,3.672-0.559c1.893-1.082,3.672-1.934,5.164-0.863L183.771,147.111z"/>
	<path fill="#1575B3" d="M191.607,141.521c-1.669,3.338-4.564,4.366-8.109,2.593c-3.753-1.876-5.366-5.44-3.48-9.213
		c1.669-3.338,4.828-3.998,7.997-2.414c3.979,1.99,5.488,5.243,3.603,9.016L191.607,141.521z M191.438,140.964
		c0.867-1.734-1.094-3.564-4.602-5.318c-2.753-1.377-5.847-1.839-6.686-0.16c-0.802,1.604,0.943,3.725,4.621,5.563
		c2.753,1.377,5.809,1.632,6.657-0.065L191.438,140.964z"/>
</g>
<g>
	<path fill="#1575B3" d="M112.388,168.577c-28.063,0-53.318-17.743-62.848-44.153c-12.502-34.651,5.518-73.016,40.17-85.519
		c7.326-2.644,14.954-3.984,22.672-3.984c28.063,0,53.318,17.744,62.847,44.153c6.057,16.787,5.214,34.927-2.372,51.079
		c-7.588,16.152-21.01,28.383-37.797,34.44C127.734,167.237,120.105,168.577,112.388,168.577z M112.382,35.926
		c-7.602,0-15.115,1.32-22.331,3.924c-34.132,12.315-51.88,50.103-39.565,84.233c9.385,26.013,34.262,43.49,61.902,43.49
		c7.602,0,15.114-1.32,22.33-3.924c16.535-5.966,29.756-18.014,37.229-33.923c7.474-15.909,8.303-33.777,2.338-50.312
		C164.899,53.403,140.023,35.926,112.382,35.926z"/>
</g>
<g>
	<path fill="#1575B3" d="M48.971,66.896c0.048,0.046,0.068,0.102,0.024,0.197c-0.063,0.134-0.288,0.563-0.774,1.498
		c-0.467,0.945-1.167,2.388-2.188,4.564c-0.349,0.745-0.778,1.709-1.054,2.348c-0.027,0.058-0.046,0.049-0.065,0.04
		c-0.076-0.036-0.192-0.137-0.184-0.203l0.221-0.968c0.024-0.151,0.003-0.255-0.207-0.354c-0.563-0.288-4.457-2.067-5.315-2.471
		c-0.753-0.33-4.341-1.967-4.989-2.225c-0.229-0.107-0.341-0.066-0.433,0.03l-0.52,0.711c-0.018,0.038-0.179,0.032-0.312-0.03
		c-0.019-0.009-0.039-0.018-0.021-0.057c0.215-0.458,0.44-0.888,0.628-1.289c0.188-0.4,0.358-0.763,0.501-1.068
		c1.998-4.257,2.63-5.754,2.737-5.982c0.036-0.077,0.092-0.097,0.168-0.062l2.563,1.04c0.057,0.027,0.072,0.243,0.045,0.301
		c-0.009,0.02-0.018,0.038-0.065,0.039c-0.717-0.01-1.416-0.012-2.161-0.012c-0.217,0.015-0.346,0.141-0.491,0.352
		c-0.566,0.76-1.479,2.357-1.613,2.644c-0.07,0.2-0.022,0.246,0.112,0.309c1.12,0.642,4.101,2.181,4.74,2.457
		c0.675-1.29,1.717-3.41,1.969-3.897c0.018-0.038,0.037-0.029,0.056-0.021c0.114,0.054,0.279,0.248,0.252,0.305
		c-0.273,0.78-1.064,2.715-1.435,3.753c-0.062,0.181-0.05,0.256,0.103,0.327c0.621,0.314,4.212,2.093,4.747,2.344
		c0.21,0.099,0.284,0.04,0.347-0.094c0.385-0.82,1.124-2.594,1.314-3.646c0.033-0.218,0-0.396-0.098-0.535
		c-0.336-0.623-0.709-1.218-1.092-1.793c-0.029-0.037-0.02-0.057-0.011-0.075c0.055-0.067,0.26-0.157,0.328-0.103L48.971,66.896z"/>
	<path fill="#1575B3" d="M48.614,44.866c0.025-0.034,0.042-0.021,0.076,0.004c0.101,0.076,0.211,0.21,0.178,0.291l-0.323,0.68
		c-0.088,0.224,0.022,0.358,0.196,0.514c0.494,0.396,3.761,2.752,4.404,3.23c0.807,0.576,3.791,2.748,4.615,3.336
		c0.199,0.121,0.287,0.108,0.409,0.016l0.677-0.521c0.055-0.038,0.215,0.028,0.283,0.079c0.017,0.013,0.034,0.025,0.008,0.062
		c-0.269,0.325-0.777,0.973-1.433,1.852c-0.718,0.963-1.382,1.889-1.63,2.254c-0.038,0.051-0.055,0.038-0.088,0.013
		c-0.068-0.05-0.161-0.172-0.14-0.235l0.478-1.064c0.054-0.144-0.052-0.248-0.204-0.362c-1.112-0.802-5.785-3.813-7.441-4.942
		c-0.199-0.121-0.431-0.269-0.634-0.42l-0.088,0.118c0.157,0.249,0.313,0.497,0.411,0.648c1.445,2.366,4.148,6.749,5.246,8.698
		c0.145,0.266,0.132,0.388-0.149,0.836l-0.378,0.507c-0.05,0.068-0.105,0.106-0.186,0.072c-2.055-0.453-6.583-1.541-8.985-2.2
		c-0.173-0.051-0.544-0.117-0.751-0.192l-0.076,0.102c0.174,0.155,0.402,0.379,0.542,0.509c1.506,1.438,5.007,4.68,5.823,5.42
		c0.157,0.143,0.262,0.143,0.367,0.036l0.908-0.9c0.038-0.051,0.194-0.014,0.295,0.063c0.017,0.013,0.034,0.025-0.004,0.076
		c-0.256,0.309-0.677,0.837-1.118,1.429c-0.403,0.541-0.702,0.976-0.899,1.276c-0.025,0.033-0.042,0.021-0.076-0.005
		c-0.068-0.05-0.166-0.201-0.127-0.252l0.339-0.773c0.071-0.131,0.071-0.236-0.115-0.375c-0.782-0.609-3.687-2.958-4.367-3.492
		c-0.63-0.495-4.041-3.223-4.481-3.551c-0.182-0.109-0.291-0.138-0.48,0.01l-0.652,0.593c-0.055,0.038-0.215-0.029-0.299-0.092
		c-0.034-0.025-0.038-0.055,0-0.105l2.659-3.567c0.051-0.067,0.11-0.076,0.173-0.056c2.115,0.551,7.683,2.361,9.663,2.916
		c0.173,0.05,0.426,0.134,0.722,0.196l0.076-0.102c-0.144-0.266-0.347-0.522-0.445-0.674c-1.127-1.84-4.033-6.057-5.566-8.305
		c-0.038-0.055-0.047-0.114-0.009-0.165L48.614,44.866z"/>
	<path fill="#1575B3" d="M54.795,39.797c-0.049,0.039-0.175-0.05-0.241-0.132c-0.026-0.033-0.053-0.066-0.02-0.093
		c0.589-0.58,2.249-2.151,4.076-3.615c2.881-2.307,4.97-2.061,6.314-0.382c1.266,1.581,1.06,4.664-1.723,6.893
		c-0.23,0.185-0.56,0.448-0.685,0.494c0.481,0.668,2.268,2.967,2.676,3.478c0.105,0.132,0.227,0.115,0.355,0.039l1.262-0.686
		c0.049-0.04,0.208,0.022,0.273,0.105c0.026,0.032,0.023,0.063-0.01,0.089c-0.671,0.511-1.524,1.167-2.364,1.839
		c-0.922,0.738-1.567,1.282-1.982,1.642c-0.033,0.026-0.063,0.022-0.089-0.01c-0.066-0.083-0.112-0.208-0.06-0.277l0.523-0.662
		c0.089-0.125,0.115-0.228-0.03-0.408c-0.432-0.573-3.062-3.79-3.711-4.567c-0.514-0.642-2.857-3.467-3.388-4.096
		c-0.145-0.182-0.261-0.225-0.422-0.122L54.795,39.797z M62.791,42.257c1.186-0.949,1.105-2.804-0.292-4.549
		c-1.068-1.334-2.876-2.074-4.013-1.164c-0.28,0.224-0.385,0.497-0.217,0.741c1.16,1.584,3.54,4.758,3.83,5.12
		c0.116,0.178,0.412,0.075,0.675-0.136L62.791,42.257z"/>
	<path fill="#1575B3" d="M75.747,29.038c0.808,1.434,0.134,3.072-0.607,4.12c1.519,0.718,3.82,2.18,5.405,3.271
		c0.156,0.105,0.271,0.138,0.421,0.103l0.849-0.213c0.113-0.015,0.211,0.074,0.263,0.166c0.021,0.037,0.031,0.056-0.024,0.087
		c-0.488,0.251-1.049,0.543-2.078,1.123c-0.698,0.394-1.441,0.837-2.257,1.321c-0.055,0.031-0.066,0.013-0.086-0.023
		c-0.052-0.092-0.077-0.223-0.014-0.283l0.652-0.561c0.145-0.131,0.195-0.256-0.008-0.359c-1.56-0.791-3.512-1.676-5.261-2.287
		c-0.086-0.023-0.162-0.029-0.235,0.012c-0.092,0.052-0.47,0.241-0.617,0.323c0.417,0.782,1.792,3.349,2.206,4.084
		c0.104,0.184,0.189,0.207,0.339,0.172l0.922-0.254c0.065-0.013,0.183,0.066,0.234,0.158c0.021,0.037,0.013,0.065-0.024,0.086
		c-0.525,0.271-1.343,0.709-2.262,1.228c-0.937,0.528-1.791,1.033-2.166,1.27c-0.055,0.031-0.066,0.013-0.086-0.024
		c-0.062-0.109-0.087-0.241-0.032-0.271l0.715-0.621c0.108-0.109,0.122-0.214,0.039-0.361c-0.404-0.717-2.306-4.003-2.803-4.885
		c-0.433-0.725-2.428-4.176-2.848-4.835c-0.132-0.191-0.221-0.263-0.341-0.219l-0.797,0.304c-0.065,0.013-0.183-0.066-0.245-0.176
		c-0.01-0.019-0.031-0.056,0.024-0.087c0.877-0.591,2.558-1.732,4.34-2.738c3.252-1.833,5.307-1.539,6.374,0.354L75.747,29.038z
		 M72.42,35.249c1.341-0.757,1.632-2.688,0.596-4.525c-0.891-1.58-2.449-2.324-3.698-1.619c-0.368,0.207-0.483,0.345-0.359,0.565
		c0.696,1.448,2.65,5.213,2.836,5.544c0.124,0.221,0.257,0.242,0.606,0.045L72.42,35.249z"/>
	<path fill="#1575B3" d="M87.443,34.84c-3.527,1.226-6.319-0.06-7.622-3.806c-1.378-3.966-0.044-7.646,3.941-9.031
		c3.527-1.227,6.251,0.507,7.416,3.854c1.461,4.205,0.271,7.59-3.715,8.976L87.443,34.84z M87.709,34.322
		c1.833-0.637,1.706-3.317,0.417-7.024c-1.012-2.909-2.905-5.4-4.679-4.784c-1.694,0.589-1.926,3.327-0.575,7.214
		c1.011,2.909,3.023,5.226,4.816,4.602L87.709,34.322z"/>
	<path fill="#1575B3" d="M93.663,26.744c-0.48-2.699,0.319-4.834,1.452-6.171c1.12-1.292,2.691-2.214,4.664-2.564
		c1.018-0.182,1.854-0.18,2.355-0.012c0.09,0.026,0.122,0.085,0.141,0.189l0.746,2.866c0.039,0.101-0.146,0.262-0.25,0.28
		c-0.021,0.004-0.042,0.008-0.094-0.048c-0.549-0.802-1.188-1.738-1.642-2.364c-0.112-0.151-0.242-0.278-0.385-0.36
		c-0.146-0.103-0.442-0.199-0.858-0.126c-0.81,0.145-1.622,0.76-2.205,1.699c-0.868,1.504-1.104,3.432-0.687,5.778
		c0.635,3.571,2.867,4.675,4.756,4.339c0.395-0.07,0.903-0.226,1.183-0.339c0.563-0.208,1.107-0.519,1.707-0.882
		c0.059-0.032,0.115,0.043,0.152,0.251c0.011,0.063-0.002,0.107-0.037,0.156c-0.433,0.334-1.445,1.028-2.173,1.394
		c-0.355,0.17-1.06,0.424-1.745,0.546c-3.281,0.584-6.333-0.438-7.076-4.611L93.663,26.744z"/>
	<path fill="#1575B3" d="M115.045,30.199c-0.02,0.064-0.061,0.107-0.167,0.11c-0.147,0.003-0.633-0.006-1.688-0.022
		c-1.055,0.005-2.658,0.023-5.062,0.083c-0.822,0.02-1.876,0.067-2.572,0.105c-0.063,0.001-0.063-0.02-0.064-0.041
		c-0.002-0.084,0.036-0.233,0.099-0.256l0.965-0.234c0.146-0.046,0.229-0.111,0.224-0.343c0.005-0.634-0.142-4.913-0.166-5.862
		c-0.041-0.822-0.18-4.765-0.24-5.459c-0.006-0.253-0.093-0.335-0.22-0.374l-0.869-0.147c-0.042,0.001-0.109-0.146-0.113-0.293
		c0-0.021-0.001-0.042,0.041-0.043c0.506-0.013,0.992-0.004,1.435-0.015s0.844-0.021,1.181-0.029
		c4.703-0.115,6.325-0.219,6.578-0.225c0.084-0.002,0.127,0.039,0.13,0.123l0.215,2.759c0.001,0.063-0.186,0.174-0.249,0.175
		c-0.021,0.001-0.042,0.001-0.064-0.04c-0.312-0.646-0.622-1.272-0.955-1.939c-0.11-0.187-0.28-0.246-0.535-0.282
		c-0.933-0.167-2.771-0.269-3.087-0.262c-0.21,0.026-0.23,0.091-0.227,0.238c-0.074,1.289-0.118,4.645-0.08,5.34
		c1.457,0.028,3.82,0.012,4.369,0.02c0.042-0.001,0.042,0.021,0.043,0.041c0.003,0.127-0.097,0.361-0.16,0.362
		c-0.82,0.105-2.906,0.262-4,0.395c-0.189,0.025-0.251,0.069-0.248,0.238c-0.004,0.696,0.01,4.705,0.025,5.295
		c0.006,0.232,0.091,0.272,0.239,0.269c0.907-0.022,2.824-0.153,3.85-0.453c0.209-0.068,0.354-0.178,0.435-0.327
		c0.408-0.58,0.773-1.18,1.117-1.779c0.02-0.042,0.042-0.043,0.063-0.043c0.085,0.019,0.257,0.162,0.238,0.247L115.045,30.199z"/>
	<path fill="#1575B3" d="M125.985,27.408c-0.299,2.429-2.813,3.862-6.875,3.361c-0.858-0.105-1.834-0.289-2.274-0.514
		c-0.1-0.055-0.157-0.104-0.163-0.232l0.037-2.886c-0.013-0.065,0.235-0.184,0.298-0.176c0.042,0.005,0.061,0.028,0.076,0.073
		c0.31,0.761,0.594,1.561,0.909,2.279c0.118,0.248,0.21,0.366,0.443,0.544c0.307,0.271,0.817,0.44,1.382,0.51
		c1.8,0.222,3.27-0.49,3.437-1.851c0.155-1.256-0.653-2.12-2.708-3.203c-2.116-1.11-3.099-2.272-2.903-3.864
		c0.271-2.198,3.117-3.909,6.592-3.48c0.858,0.105,1.683,0.313,2.037,0.548c0.099,0.055,0.136,0.103,0.123,0.207l-0.084,2.752
		c-0.008,0.063-0.211,0.166-0.295,0.155c-0.042-0.005-0.063-0.008-0.079-0.052c-0.305-0.803-0.61-1.605-0.938-2.39
		c-0.066-0.157-0.137-0.272-0.352-0.426c-0.254-0.181-0.576-0.326-1.1-0.391c-1.486-0.184-2.882,0.622-3.044,1.941
		c-0.139,1.13,0.579,1.856,2.25,2.955c1.857,1.143,3.458,2.296,3.233,4.117L125.985,27.408z"/>
	<path fill="#1575B3" d="M136.388,30.149c-0.648,2.359-3.343,3.412-7.289,2.329c-0.834-0.229-1.773-0.553-2.176-0.838
		c-0.091-0.068-0.141-0.126-0.127-0.254l0.455-2.85c-0.004-0.067,0.259-0.147,0.32-0.131c0.041,0.011,0.055,0.037,0.064,0.083
		c0.197,0.798,0.362,1.631,0.569,2.388c0.081,0.263,0.155,0.393,0.36,0.602c0.264,0.313,0.745,0.555,1.293,0.705
		c1.75,0.48,3.306-0.011,3.669-1.333c0.335-1.221-0.338-2.192-2.215-3.562c-1.933-1.405-2.737-2.698-2.313-4.244
		c0.586-2.135,3.65-3.416,7.027-2.488c0.834,0.229,1.62,0.554,1.936,0.837c0.09,0.069,0.12,0.121,0.092,0.223l-0.482,2.711
		c-0.017,0.062-0.233,0.133-0.315,0.11c-0.041-0.011-0.061-0.017-0.07-0.063c-0.185-0.839-0.371-1.677-0.582-2.501
		c-0.042-0.164-0.096-0.288-0.286-0.472c-0.226-0.215-0.523-0.406-1.032-0.546c-1.444-0.396-2.941,0.198-3.293,1.48
		c-0.302,1.098,0.304,1.92,1.798,3.249c1.672,1.399,3.088,2.773,2.603,4.543L136.388,30.149z"/>
	<path fill="#1575B3" d="M141.743,36.978c-3.373-1.599-4.462-4.472-2.764-8.055c1.797-3.793,5.328-5.48,9.14-3.674
		c3.374,1.599,4.1,4.744,2.583,7.945c-1.906,4.021-5.128,5.599-8.939,3.792L141.743,36.978z M142.295,36.796
		c1.753,0.831,3.542-1.169,5.222-4.713c1.319-2.783,1.716-5.886,0.02-6.689c-1.62-0.768-3.705,1.021-5.467,4.737
		c-1.319,2.782-1.509,5.844,0.206,6.656L142.295,36.796z"/>
</g>
<g>
	<path fill="#1575B3" d="M112.56,165.755c-26.978,0-51.258-17.059-60.419-42.447c-5.823-16.137-5.013-33.576,2.281-49.104
		s20.198-27.286,36.335-33.109c7.043-2.541,14.377-3.829,21.796-3.829c26.979,0,51.259,17.058,60.419,42.446
		c12.02,33.313-5.305,70.194-38.617,82.214C127.312,164.467,119.98,165.755,112.56,165.755z M112.553,39.775
		c-7.128,0-14.175,1.238-20.943,3.681C76.103,49.051,63.704,60.35,56.695,75.271c-7.008,14.921-7.787,31.679-2.191,47.186
		c8.803,24.396,32.133,40.788,58.057,40.788c7.128,0,14.174-1.238,20.943-3.681c32.01-11.55,48.656-46.989,37.107-79
		C161.808,56.167,138.476,39.775,112.553,39.775z"/>
</g>
<g>
	<path fill="#1575B3" d="M222.331,82.804c1.797,4.98-0.784,10.477-5.765,12.274l-189.15,68.247
		c-4.981,1.797-10.477-0.784-12.275-5.766L2.572,122.723c-1.797-4.981,0.784-10.478,5.766-12.275l189.149-68.246
		c4.981-1.798,10.477,0.784,12.274,5.766L222.331,82.804z"/>
	<g>
		<g>
			<g>
				<g>
					<path fill="#3386BD" d="M224.408,81.388c0.235,0.758,0.532,0.348,0.643,0.435C224.514,80.607,224.317,81.456,224.408,81.388z"
						/>
					<polygon fill="#3386BD" points="219.076,69.412 219.315,69.572 218.267,67.901 					"/>
					<path fill="#3386BD" d="M214.934,57.909c-0.279,1.329,1.612,4.128,2.112,6.263l-0.031,0.393l0.874,0.729
						C216.905,62.835,215.379,59.729,214.934,57.909z"/>
					<path fill="#3386BD" d="M214.173,51.252c-0.125,0.472-0.704-1.246,0.434,1.459c-0.021-0.149-0.02-0.195-0.027-0.283
						C214.487,52.182,214.364,51.84,214.173,51.252z"/>
					<path fill="#3386BD" d="M214.58,52.429C215.036,53.633,214.514,51.557,214.58,52.429L214.58,52.429z"/>
					<path fill="#3386BD" d="M212.396,46.86l0.826,1.541c0.034-0.389-0.443-1.822-0.141-1.334c-0.047-0.102-0.09-0.196-0.13-0.283
						c-0.056-0.112-0.108-0.215-0.155-0.309c-0.096-0.186-0.179-0.334-0.248-0.447c-0.138-0.227-0.222-0.315-0.265-0.298
						C212.198,45.764,212.279,46.22,212.396,46.86z"/>
					<path fill="#3386BD" d="M211.052,45.239c0,0,0.628,0.91,0.601,0.925C211.651,45.956,211.515,45.683,211.052,45.239z"/>
					<path fill="#3386BD" d="M212.614,48.023c0,0-0.21-0.419-0.42-0.839c-0.27-0.51-0.541-1.02-0.541-1.02
						c0.016,0.335-0.187,0.439,0.486,0.958C211.887,47.048,212.206,47.33,212.614,48.023z"/>
					<path fill="#3386BD" d="M212.87,49.052c0.177,0.948,0.502,2.137-0.308,0.62C213.756,52.69,214.065,52.07,212.87,49.052z"/>
					<path fill="#3386BD" d="M214.027,57.572l0.235,1.268l0.598,0.954C214.563,59.316,214.21,57.422,214.027,57.572z"/>
					<path fill="#3386BD" d="M202.157,38.49c-0.15,0.131,0.699,0.482,0.812,0.725c0,0,0.401,0.039,0.803,0.078
						c0.398,0.075,0.796,0.149,0.796,0.149C203.822,39.046,202.254,38.701,202.157,38.49z"/>
					<path fill="#3386BD" d="M202.969,39.215c0,0-0.149-0.013-0.373-0.032c-0.224,0-0.523,0-0.822,0
						c-0.296-0.005-0.592,0.021-0.813,0.048c-0.22,0.023-0.367,0.039-0.367,0.039C202.68,39.334,203.065,39.438,202.969,39.215z"/>
					<path fill="#3386BD" d="M210.19,45.333c0,0,0.146,0.171,0.351,0.444c0.212,0.27,0.485,0.639,0.712,1.041
						c0.418,0.716,0.836,1.431,0.836,1.431s-0.111-0.204-0.276-0.51c-0.086-0.158-0.188-0.343-0.296-0.541
						c-0.129-0.224-0.267-0.463-0.404-0.703c-0.285-0.469-0.62-0.905-0.868-1.222c-0.269-0.303-0.448-0.506-0.448-0.506
						L210.19,45.333z"/>
					<polygon fill="#3386BD" points="193.77,40.089 194.65,39.398 193.05,40.54 					"/>
					<path fill="#3386BD" d="M189.325,41.758c0.641-0.541-1.181-0.097-0.46-0.548c-1.196,0.487-2.147,1.096-3.003,1.644
						C186.81,42.379,187.877,42.027,189.325,41.758z"/>
					<path fill="#3386BD" d="M184.406,43.727c0.471-0.244,0.942-0.547,1.455-0.873C185.357,43.107,184.872,43.385,184.406,43.727z"
						/>
					<path fill="#3386BD" d="M196.668,39.898c-0.172-0.037-0.513-0.168-1.537,0.093l0.838,0.152
						C196.182,40.068,196.423,39.984,196.668,39.898z"/>
					<path fill="#3386BD" d="M195.998,40.147l-0.029-0.004c-0.757,0.261-1.281,0.441-1.506,0.519
						C194.657,40.597,195.119,40.442,195.998,40.147z"/>
					<path fill="#3386BD" d="M196.891,39.831c-0.082,0.025-0.143,0.043-0.223,0.068C196.767,39.911,196.822,39.909,196.891,39.831z"
						/>
					<path fill="#3386BD" d="M206.268,41.124c-0.633-0.225-1.609-0.501-2.135-0.502c-0.533,0-0.551,0.103,0.542,0.701
						c0.462,0.033,0.391-0.131,0.429-0.26C205.141,40.948,205.311,40.806,206.268,41.124z"/>
					<path fill="#3386BD" d="M198.114,40.033c0,0,0.588-0.112,1.18-0.164c0.297-0.016,0.594-0.032,0.816-0.043
						c0.222-0.013,0.371,0.004,0.371,0.004c-0.045-0.113-0.495-0.277,0.172-0.396c0,0-0.164,0.019-0.409,0.047
						c-0.242,0.05-0.564,0.116-0.886,0.183c-0.321,0.057-0.628,0.176-0.86,0.245C198.268,39.983,198.114,40.033,198.114,40.033z"/>
					<path fill="#3386BD" d="M197.039,40.486c0,0,1.064-0.48,1.076-0.453c-0.006-0.024-0.861,0.207-0.86,0.207L197.039,40.486z"/>
					<path fill="#3386BD" d="M187.75,42.946c-0.746,0.466-1.625,0.8-2.615,1.189c1.1-0.308,2.223-0.665,3.274-1.045
						C188.512,42.911,188.892,42.518,187.75,42.946z"/>
					<path fill="#3386BD" d="M191.771,41.621c-0.054,0.028-0.122,0.063-0.172,0.088C191.722,41.703,191.815,41.682,191.771,41.621z"
						/>
					<path fill="#3386BD" d="M175.292,47.683c0.063,0.006,0.12,0.011,0.185,0.017c0.004-0.028,0.004-0.054,0.012-0.083
						L175.292,47.683z"/>
					<path fill="#3386BD" d="M188.616,43.101c0.833-0.213,1.279-0.485,1.692-0.774c-0.587,0.258-1.216,0.515-1.899,0.765
						C188.363,43.172,188.364,43.214,188.616,43.101z"/>
					<path fill="#3386BD" d="M181.728,44.906c0.45-0.067,0.951-0.168,1.475-0.282C182.747,44.645,181.838,44.748,181.728,44.906z"/>
					<path fill="#3386BD" d="M191.288,41.696c0.038-0.021,0.073-0.039,0.114-0.061C191.107,41.643,191.155,41.674,191.288,41.696z"
						/>
					<path fill="#3386BD" d="M191.288,41.696c-0.394,0.208-0.684,0.424-0.979,0.63c0.479-0.208,0.918-0.416,1.291-0.617
						C191.489,41.717,191.374,41.709,191.288,41.696z"/>
					<path fill="#3386BD" d="M173.242,51.339c0.008-0.424,2-1.532,3.973-1.792c1.698-0.928,0.08-1.729-1.738-1.848
						c0.003,0.183,0.057,0.333-1.714,1.221c0.722-0.031,4.278-1.006,2.838-0.105c-2.382,1.076-2.056,0.593-3.319,0.826
						c1.18,0.099-2.875,1.801-2.095,2.291l2.063-1.016C173.329,51.007,172.61,51.458,173.242,51.339z"/>
					<path fill="#3386BD" d="M179.017,46.465l0.745-0.321c-0.892,0.248-1.566,0.324-2.816,0.445
						c-1.202,0.639-1.415,0.872-1.457,1.028l3.769-1.301L179.017,46.465z"/>
					<path fill="#3386BD" d="M183.181,44.909c-0.448,0.62-2.215,1.453-0.937,1.486c2.225-0.834,1.444-0.903,2.716-1.561
						c-3.57,1.402,0.955-0.599-1.734,0.111c0.684-0.325,1.314-0.576,1.91-0.81c-0.667,0.185-1.315,0.35-1.932,0.488
						c0.036-0.002,0.062-0.003,0.092-0.004l0.016-0.008l-0.001,0.008c0.174-0.005,0.236,0.006,0.05,0.041
						c-0.01,0.01-0.053,0.027-0.072,0.035c-0.004,0.065-0.053,0.139-0.108,0.212c-1.075,0.293-0.202-0.046,0.108-0.212
						c0.005-0.024,0.026-0.053,0.022-0.076h-0.015l-3.533,1.525C180.547,45.925,181.5,45.568,183.181,44.909z"/>
					<path fill="#3386BD" d="M202.335,41.621c-0.112-0.061-0.103-0.091-0.107-0.123C201.966,41.526,201.871,41.536,202.335,41.621z"
						/>
					<path fill="#3386BD" d="M200.739,41.234c0.289-0.063,0.546-0.246,1.503-0.086c0.795,0.287-0.04,0.201-0.014,0.35
						c0.551-0.012,2.045,0.114,0.29-0.471c0,0-0.296-0.001-0.297,0.007c-0.809-0.173-1.769-0.397-2.516-0.454
						c-0.749-0.113-1.259-0.097-1.115-0.176C199.166,40.684,199.657,40.867,200.739,41.234z"/>
					<path fill="#3386BD" d="M191.758,42.942l-2.937,1.284l1.659-0.202l-0.154-0.183C192.067,43.307,191.604,43.181,191.758,42.942z
						"/>
					<polygon fill="#3386BD" points="174.876,47.606 175.12,47.034 173.601,48.265 					"/>
					<polygon fill="#3386BD" points="170.985,49.068 170.995,48.643 170.044,49.24 					"/>
					<path fill="#3386BD" d="M21.853,161.133c0,0,0.703,0.109,0.706,0.084C22.229,161.182,22.019,161.132,21.853,161.133z"/>
					<path fill="#3386BD" d="M17.982,157.969l-0.228-0.014C17.961,158.115,18.071,158.157,17.982,157.969z"/>
					<path fill="#3386BD" d="M74.986,83.752c-1.413,0.117-3.046,0.097-2.739,0.459l0.542,0.265
						C73.663,84.079,74.368,83.876,74.986,83.752z"/>
					<path fill="#3386BD" d="M10.109,109.914c0.137-0.004,0.28-0.008,0.421-0.012c0.262-0.253,0.508-0.491,0.729-0.704
						C10.913,109.414,10.521,109.658,10.109,109.914z"/>
					<path fill="#3386BD" d="M9.81,111.931c0,0-0.446,0.087-0.892,0.174c-0.371,0.08-0.741,0.159-0.741,0.159
						c0.177-0.02,0.385-0.054,0.626-0.106C9.087,112.094,9.421,112.019,9.81,111.931z"/>
					<path fill="#3386BD" d="M55.341,150.235l0.881-0.787C54.609,150.032,55.395,149.985,55.341,150.235z"/>
					<path fill="#3386BD" d="M130.999,63.665c-1.168,0.242-2.077,0.494-2.861,0.754C129.562,64.17,130.768,64.132,130.999,63.665z"
						/>
					<path fill="#3386BD" d="M17.44,164.017c0.632,0.332,0.933,0.401,0.966,0.302C17.759,164.019,17.379,163.84,17.44,164.017z"/>
					<path fill="#3386BD" d="M124.93,65.578c0.21-0.03,0.41-0.079,0.622-0.116c0.788-0.362,1.584-0.711,2.586-1.043
						C127.086,64.601,125.916,64.902,124.93,65.578z"/>
					<path fill="#3386BD" d="M182.223,104.837c0.099-0.015,0.212-0.046,0.304-0.055
						C182.536,104.717,182.407,104.761,182.223,104.837z"/>
					<path fill="#3386BD" d="M220.94,94.645c-0.168,0.16-0.398,0.362-0.656,0.579c-0.276,0.193-0.579,0.404-0.872,0.609
						C219.711,95.657,220.227,95.358,220.94,94.645z"/>
					<path fill="#3386BD" d="M155.191,54.565C156.01,54.239,155.306,54.473,155.191,54.565L155.191,54.565z"/>
					<path fill="#3386BD" d="M159.805,54.725c-0.16,0.109-0.272,0.216-0.259,0.318C159.579,54.919,159.672,54.815,159.805,54.725z"
						/>
					<path fill="#3386BD" d="M117.587,71.098c-0.024,0.008-0.044,0.015-0.072,0.025C117.791,71.113,117.743,71.113,117.587,71.098z"
						/>
					<path fill="#3386BD" d="M156.505,54.301c-0.329,0.063-0.703,0.15-1.104,0.261C155.584,54.532,155.921,54.455,156.505,54.301z"
						/>
					<path fill="#3386BD" d="M156.268,54.168c0.292-0.088,0.521-0.157,0.739-0.222C157.087,53.84,156.979,53.831,156.268,54.168z"/>
					<path fill="#3386BD" d="M154.043,55.004c0.472-0.177,0.921-0.318,1.358-0.442c-0.173,0.031-0.25,0.033-0.21,0.003
						C154.949,54.658,154.608,54.788,154.043,55.004z"/>
					<path fill="#3386BD" d="M114.699,130.436c0.059-0.008,0.126-0.017,0.191-0.026
						C115.666,129.938,115.308,130.098,114.699,130.436z"/>
					<path fill="#3386BD" d="M54.936,95.776c0.037-0.018,0.054-0.036,0.087-0.054c-0.041,0.009-0.091,0.021-0.128,0.03
						L54.936,95.776z"/>
					<path fill="#3386BD" d="M52.067,97.155c1.085-0.966,1.828-1.163,2.828-1.403l-1.41-0.821L52.067,97.155z"/>
					<path fill="#3386BD" d="M35.827,157.633l-2.224,0.388c2.307-1.514,4.208-1.965,2.058-1.773
						c0.166,1.385-8.082,3.064-7.912,4.445c0,0-0.369,0.057-0.738,0.114c-0.182,0.027-0.364,0.054-0.5,0.075
						c-0.105,0.002-0.175,0.004-0.175,0.004c0.137-0.03,0.237-0.081,0.354-0.144c0.108-0.057,0.216-0.113,0.414-0.177
						c-0.791,0.124-1.021,0.141-1.29,0.297c-0.254,0.111-0.431,0.282-0.638,0.482c-0.406,0.313-1.012,0.853-2.466,0.488
						c-0.995-0.305-1.532-0.786-0.858-0.7c0,0-0.137-0.013-0.333-0.069c-0.197-0.054-0.475-0.098-0.73-0.204
						c-0.265-0.086-0.53-0.183-0.716-0.282c-0.193-0.089-0.323-0.148-0.323-0.148c-0.493-0.434-0.228-0.491,0.266-0.109
						c0,0-0.184-0.099-0.425-0.296c-0.261-0.175-0.563-0.461-0.867-0.747c-0.586-0.597-1.017-1.325-1.017-1.326l0.047,0.002
						c-0.213-0.153-0.521-0.442-0.786-0.789c-0.139-0.149-0.286-0.381-0.417-0.589c-0.13-0.207-0.247-0.395-0.34-0.543
						c-0.192-1.105,0.323,0.473,0.387,0.149l-1.127-2.153c-0.002-1.042,0.997,0.719,1.514,2.301c0.512-2.576-1-1.764-1.902-6.599
						l0.934,2.081c0.227-1.641-0.638-3.215-1.059-5.797c-0.029,0.659,0.608,5.253-0.597,2.909c-0.153-0.728-0.437-1.658-1.173-2.892
						c0.45-0.176-0.129-1.431-0.74-3.042l0.642-0.106c-0.806-1.689-1.062-1.44-1.705-2.374c-0.645-1.974-0.325-2.547-0.099-3.148
						c-1.033-3.162,0.032,2.429-1.417-1.231c-0.708-2.684-1.613-4.422-3.096-7.403c-0.45-1.895,0.483,0.186,0.419-0.529l-1.062-1.44
						c-0.131-0.399,0.063-0.325,0.16-0.287c-0.677-1.292-0.642,0.105-1.577-1.974c-0.217-0.084-0.365-0.423-0.49-0.92
						c-0.063-0.249-0.12-0.537-0.177-0.853C4.02,122.565,3.99,122.4,3.96,122.23c-0.013-0.147-0.027-0.299-0.042-0.455
						c-0.13-1.248,0.028-2.56-0.13-3.757c0.291-0.517,0.331,0.339,0.61,0.209c0.032-1.504,0.341-2.151,0.503-2.734
						c0.25-0.555,0.35-1.121,1.133-2.31c0,0,0.129-0.074,0.324-0.186c0.185-0.122,0.462-0.235,0.729-0.354
						c0.537-0.233,1.088-0.381,1.088-0.38c-0.833,0.171-0.897-0.085-0.481-0.611c0.398-0.496,1.443-1.147,2.414-1.739
						c-0.741,0.021-1.375,0.034-1.787,0.08l3.215-1.525c0.438-0.046,0.177,0.281-0.278,0.73c0.207-0.135,0.403-0.264,0.558-0.365
						c1.272-0.208,0.779,0.363,0.047,1.007c-0.449,0.021-0.897,0.042-1.334,0.062c-0.691,0.662-1.315,1.345-1.016,1.635
						c0.191-0.147,0.587-0.358,1.033-0.557c-0.179,0.177-0.285,0.315-0.164,0.339c0.136,0.023,0.436-0.235,0.925-0.586l1,0.397
						l0.087-0.333l4.511-1.153c2.875-1.801,5.229-3.773,10.08-5.836c-1.051,0.935,0.026,0.898,0.169,1.505
						c-1.574-0.13-3.74,1.646-6.351,2.446c1.362-0.418,1.168-0.035,0.863,0.186l4.373-2.212c0.069,0.514,1.101,0.007,2.367-0.227
						c-1.244-0.616,3.184-1.858,4.942-2.818c0.229,0.274-0.1,0.758-2.399,1.501c2.762-0.195,2.839-2.275,5.517-2.56
						c-0.552,0.208-0.869,0.267-1.029,0.506c1.193-0.748,4.441-1.668,3.795-1.124l-0.551,0.206
						c3.722-1.217,11.211-4.038,11.472-5.036c0.074,0.09-0.135,1.139-0.299,1.38l5.599-5.063c-0.331,0.896,2.481,1.731-0.432,3.221
						c0.912-0.219,2.038-0.496,3.799-1.404c-0.633,0.118-1.849-0.456-1.055-0.814c2.52-0.044,1.705-0.152,4.706-0.498
						c-0.949,0.176-0.342-1.261,1.087-1.738c-0.163,0.242,0.501,1.021,0.024,1.32l3.145-2.33c-0.812,0.508,0.168,0.953,1.065,0.967
						c-0.441-0.075,3.056-1.08,3.958-1.524l-1.583,0.294c4.039-1.276,3.396-2.906,7.365-4.276c-0.399,0.391-0.695,1.771,1.361,1.179
						c0.725-0.874,3.136-4.076,6.48-5.754l0.782,0.068l2.554-1.32c-1.375,1.417-5.441,4.824-7.759,6.414
						c1.578-0.292,0.546,0.215,2.768-0.618c0.893,0.006-1.057,0.879-1.708,1.133l5.262-1.687c-0.459-0.549,3.744-2.068,3.355-2.523
						l-5.406,2.691c-0.457-0.549,2.615-2.972,6.336-4.189c1.027-0.086-0.294,1.378-0.142,1.562c0.399-0.391,3.343-1.677,3.737-1.644
						l-1.439,0.901c2.135-0.501,3.042-2.045,5.722-2.33c0.865-0.266,2.832-0.102,2.844-0.528c-1.646-0.222-2.723-2.356-1.995-3.231
						c0.315-0.059,4.711-0.92,5.811-0.914c1.604,0.061-1.615,2.107-0.248,2.163c-0.011-0.191,0.685-0.683,0.983-0.868
						c0.945-0.174-0.177,0.668,1.734-0.109c0.092-0.758,3.964-1.369,0.721-0.873c1.831-0.868,2.064-0.596,4.281-1.427
						c-0.858-0.159,1.492-2.132,3.326-3c-0.053,0.204,0.451,0.262,0.692,0.284c3.91-1.345,6.103-1.807,9.731-3.11
						c0.39,0.035,2.208-0.409,1.562,0.136c0.481-0.302,0.881-0.692,1.995-1.111c2.364-0.227-2.463,0.986-0.573,1.056
						c0.007-0.423,2.708-1.558,4.216-2.365c-0.697-0.398-3.72,1.218-5.232,2.026c-0.293-0.791,2.184-2.625,5.841-4.359
						c2.941-1.284,1.491,0.042,1.974-0.26c5.708-1.902,4.32-3.125,9.225-4.248c2.046-0.167,0.447,0.977,0.992,1.192
						c-2.384,1.077-3.883,1.038-5.539,1.659l2.134-0.5c-0.72,0.449-2.312,1.168-3.257,1.344c1.727-0.109,9.59-3.361,14.107-4.517
						c0.715-0.45,1.99-1.108,1.283-1.083l-1.356,0.569c-1.417,0.05,2.396-1.502,0.579-1.062c1.75-0.956,3.664-2.156,6.355-2.866
						l0.698,0.4c-0.117-0.148-1.829,0.271-2.499,0.712c0.995-0.647,4.281-0.662,5.2-1.847l-1.973,0.26
						c1.756-0.961,3.834-2.403,6.211-3.055c-1.257-0.19-0.509,0.257-2.392,0.184c1.723,0.315-5.926,2.099-3.324,2.145
						c-1.964-0.166-3.036,0.724-5.477,0.859c0.137,0.166,0.912,0.083-1.063,0.689c-0.067,0.087-0.249,0.232-0.365,0.321
						c-0.062,0.015-0.083,0.02-0.136,0.033c0.042-0.006,0.073-0.01,0.115-0.016c-0.074,0.059-0.079,0.067,0.042-0.007
						c0.492-0.083,0.903-0.119,1.093-0.067c-0.806,0.784-3.896,1.884-4.858,2.487c-1.184,0.325,0.403-0.393-0.299-0.368l-1.437,0.9
						c-0.307-0.367-3.313,0.402-0.689-0.824l-2.448,0.862c-1.523,0.282-3.534,0.901-4.689,1.519
						c-1.185,0.324-2.74,1.517-1.856,0.825l-3.735,1.643l-0.073-0.093c-3.797,1.31-7.525,3.505-12.119,4.302
						c-1.234,0.565-2.501,1.17-4.672,1.818l-0.546-0.216c-1.587,0.717-5.036,1.404-5.601,2.038
						c-2.117-0.348-8.003,2.645-10.938,3.507l0.064,0.516c-1.987,0.687-3.834,1.506-6.219,2.583l0.303,0.368
						c-1.991,1.109-5.547,1.663-8.878,2.913c0.169-0.243,1.033-0.507,1.669-0.626c-4.342,0.49-8.186,3.736-12.062,4.351
						c-0.848,0.479-1.521,0.663-2.193,0.785c0.083-0.031,0.156-0.066,0.216-0.102c-0.093,0.032-0.231,0.08-0.373,0.128
						c-0.425,0.071-0.866,0.135-1.336,0.228c0.416-0.034,0.808-0.08,1.137-0.155c-0.693,0.26-1.731,0.694-2.729,1.173l-0.605-0.294
						c-0.083,0.035-0.149,0.063-0.235,0.1c-1.077,0.199-0.74,0.509-0.075,0.654c-0.495,0.263-0.94,0.524-1.271,0.768
						c-1.09-0.434-2.629,1.227-4.038,0.853c-0.561,0.632-5.105,2.166-5.368,3.165c-0.073-0.091-0.396-0.031,0.161-0.239
						c-1.188,0.326-2.375,0.651-3.33,1.25l-0.698-0.399l-2.243,1.684c-1.659,0.202-2.367,0.228-1.006-0.765
						c-3.428,2.007-2.888,1.332-5.768,3.135l0.018-0.427c-1.111,0.417-2.716,1.56-3.501,1.495
						c-2.753,0.193-12.395,4.361-19.043,6.017c1.64,0.647-3.158,0.584-3.105,1.525c-0.467-0.125-1.414,0.052-0.457-0.549
						c-3.18,1.436-5.064,1.363-7.065,2.895c-0.468-0.125,0.563-0.633,0.174-0.667c-0.242,0.151-0.958,0.601-1.354,0.569
						c-0.389-0.034,0.401-0.39,0.878-0.69c-3.327,1.25-3.377,2.171-3.349,3.009c-1.822,0.256-2.649,0.611-3.695,1.545
						c-0.326-0.029-0.799,0.021-0.916-0.05c-0.118-0.071,0.208-0.324,1.207-0.723c-0.305,0.106-0.854,0.247-1.736,0.602
						c-0.834,0.342-1.787,0.869-2.58,1.54c-0.819,0.641-1.444,1.431-1.852,2.047c-0.369,0.647-0.547,1.106-0.414,1.223
						c-0.377,0.299-0.924,1.765-0.911,2.154c-0.466,1.51-0.548,2.389-0.56,3.244c-0.014,0.854,0.038,1.728,0.499,3.215
						c0,0-0.037-0.213-0.075-0.427c-0.042-0.211-0.046-0.429-0.046-0.429c1.028,1.02,0.902,2.233,1.729,4.303l-0.096-0.033
						c1.194,4.948,0.993,1.964,2.089,6.875l0.359-0.418c1.128,0.088,0.929,4.367,2.283,6.958l-0.097-1.077
						c0.869,1.369,0.181,4.636,0.599,6.175c0.033,0.356-0.321-0.466-0.548-0.898c0.839,4.12,0.774,0.294,1.963,3.16
						c-0.125,0.652-1.061-0.4-0.412,1.583c0.094,1.071,3.089,5.318,3.443,8.217c0.033-0.678,0.066-1.353,0.74-0.065
						c0.223,0.529,0.352,1.098,0.577,1.856c0.231,0.782,0.533,1.625,0.982,2.389c0.851,1.555,2.23,2.81,3.459,3.071
						c0.237,0.247,0.319,0.36,0.299,0.423c0.922,0.432,2.485,0.981,4.001,1.09c1.517,0.143,2.906-0.184,3.427-0.484
						c0.246,0.161,0.626,0.241,1.097,0.229c0.445-0.037,1.068-0.167,1.528-0.331c1.002-0.334,2.152-0.86,3.255-1.374
						c2.205-1.027,4.216-2.001,4.458-1.276l4.853-1.838l-0.075,0.193c3.155-1.031,4.133-1.773,5.105-2.514
						c0.756-0.163,0.278,0.162,0.246,0.259c4.664-1.355,5.095-1.58,8.659-3.675l0.566,0.323c0.938-0.645,6.854-1.647,11.129-3.804
						c-0.024,0.068-0.084,0.192-0.416,0.386c4.833-2.362,12.51-3.052,13.741-5.415l3.168-1.616
						c-4.342,1.418,0.374-0.967-1.495-0.612c1.653-0.709,4.551-1.064,2.507-0.228l-0.355,0.032c-0.443,1.161,5.45-1.612,5.552-0.967
						c8.436-3.093,16.849-5.575,24.779-8.394l-1.16-0.359l2.776-0.957c0.783-0.102,1.167,0.187-0.813,0.869
						c1.176,0.016,3.186-1.519,3.188-1.688c3.958-1.113-1.217,1.346-0.028,0.936l1.588-0.631l-0.392,0.05
						c1.201-0.751,1.209-1.09,3.589-1.911c1.548-0.403,0.921,0.147,1.521-0.039c0.014,0.05,0.222,0,0.912-0.307l3.5-1.197
						l-1.587-0.041c1.445-0.824,3.281-1.152,1.454-1.188c2.699,0.099,13.1-4.341,14.653-4.569c2.017-1.176,4.151-1.938,6.809-2.843
						c-0.698,0.124-1.311-0.345,0.994-1.092c-0.378,1.561,4.368-0.958,6.536-0.716c-1.862-0.007,6.421-2.484,3.532-2.407
						c1.938-0.584,0.286,0.43,1.835,0.206c4.347-2.121,10.083-3.279,15.615-5.461c0.028-0.197-1-0.112,0.11-0.791l3.251-0.238
						c1.075-0.479,0.672-1.322,2.896-1.475c-0.335-0.037-0.836-0.093-0.115-0.413c5.623-1.573,11.159-3.757,16.748-5.86
						c2.794-1.052,5.603-2.083,8.441-3.008c1.419-0.462,2.847-0.898,4.284-1.296c0.718-0.199,1.439-0.389,2.163-0.568
						c0.381-0.103,0.68-0.147,1.132-0.29c0.434-0.136,0.881-0.251,1.302-0.44c-0.957,0.311-1.154,0.227-0.926,0.093
						c0.236-0.135,0.829-0.476,1.467-0.842c-0.864,0.404-0.2-0.38-0.489-0.488c0,0,1.301-0.575,2.419-1.519
						c0.291-0.222,0.552-0.475,0.794-0.72c0.252-0.237,0.468-0.477,0.639-0.694c0.366-0.42,0.573-0.732,0.573-0.732
						c-0.01-0.625,0.649-2.02,0.912-3.495c0.289-1.464,0.188-2.926-0.174-3.176c0.042-0.008,0.189,1.773,0.147,1.778
						c-0.355-1.205-0.73-0.325-1.293,0.562c-0.563,0.917-1.375,1.781-1.773,1.48c0.074,1.12-0.941,2.284-2.175,3.099
						c-0.629,0.406-1.291,0.777-1.985,1.107c-0.335,0.2-0.689,0.324-1.05,0.552c-0.427,0.218-0.843,0.475-1.242,0.78
						c-0.861,0.104,0.574-0.535,0.073-0.59c-0.773,0.716-1.847,1.194-3.954,1.758l0.197-0.179c-5.708,2.167-8.308,2.674-14.85,4.748
						l0.639,0.273c-1.408,0.44-1.75,0.406-2.439,0.529c-1.347,1.25,3.907-1.367,2.727-0.099c-2.166-0.244-9.78,3.513-11.395,2.931
						c-2.135,0.764,0.811,0.291-1.323,1.054l-0.666-0.075l-0.409,0.554c-1.42,0.445-2.251,0.351-2.388,0.134
						c0.349-0.094,0.94-0.414,1.297-0.565c-1.932,0.326-5.072,1.957-5.733,2.074l2.111-0.567
						c-5.726,2.361-12.964,4.558-18.382,7.154l0.502,0.056c-4.153,1.938-3.522,1.01-8.171,2.891l0.153-0.112
						c-0.868,0.55-2.089,1.11-3.388,1.552c1.102-0.676-2.413,0.33-0.95-0.506c-4.505,2.098-2.185,1.159-4.978,3.05l-0.834-0.093
						c-0.935,0.693-0.962,0.892-3.284,1.831c1.823-0.996-1.695,0.011,0.326-1.165c-5.216,1.02-7.058,3.417-9.727,3.119
						c-1.921,1.784,4.469-1.006,3.272-0.341c1.178-0.068-1.612,1.397-3.197,1.859c-1.586,0.548-3.129-0.266-7.093,1.185
						c0.396-0.139,0.397-0.221,0.792-0.359c-1.575,0.29-2.791,1.384-4.758,1.642c-0.811,0.952-2.378,0.82-2.404,1.671l3.58-1.486
						c-1.995,0.939-3.616,2.509-7.169,3.314c0.211-0.246,1.151-0.808,1.807-1.169c-1.074,0.139-1.863,0.836-2.976,0.983
						c0.025-0.852,4.368-1.759,6.375-3.125c-1.181,0.071-3.989,2.05-3.169,0.842c-1.228,1.603-3.958,1.282-6.364,3.035l0.017-0.51
						c-0.4,0.224-1.206,0.752-1.993,1.023l1.209-1.09c-1.999,1.279-4.352,1.083-6.343,2.104c4.367-1.591,1.175,0.184,3.142-0.157
						c-5.176,2.543-3.522-0.049-9.481,2.343c0.794-0.358,3.165-0.839,1.961-0.171c-1.182,0.323-2.762,0.699-3.551,0.719
						c-3.966,1.536,0.78,0.237-0.824,1.126c-1.558-0.053-1.884,0.93-3.575,1.737l-0.176-0.45c-4.663,1.354-0.867,1.382-5.097,2.511
						l1.507-1.255l-2.08,0.935l0.255-0.676c-2.189,1.223-2.95,1.385-5.282,2.063c0.646,0.129,0,0.931-2.014,1.674
						c-1.474,0.227,0.615-0.71-2.223,0.388c0.543-0.517,1.122-1.129,2.518-1.16c0.075-0.194,0.535-0.515,0.613-0.708
						c-1.594,0.225-3.751,1.273-4.786,1.651c0.405-0.127,0.89-0.274,1.158-0.298l-3.921,2.125c-0.715,0.065-0.246-0.259,0.219-0.578
						c-0.823,0.352-1.329,0.771-2.55,1.255c0.187-0.484-0.027-0.837,1.659-1.642l-3.804,1.835c-0.322-0.065-2.188,0.292-1.723-0.03
						c-2.27,0.574-5.117,2.655-8.125,3.417c-0.125,0.126-0.403,0.304-1.002,0.579c-2.76,0.901-5.342,1.322-8.395,2.995l-2.075,0.001
						c-2.48,1.064,2.786-0.063-1.344,1.708c-2.911,1.289-1.318-0.162-2.433,0.033c-1.365,0.869-3.704,2.479-6.642,2.931
						C34.248,158.147,34.996,157.988,35.827,157.633z M14.374,148.987c0.314,0.571,1.043,1.673,0.936,2.212
						C14.54,150.697,14.596,150.073,14.374,148.987z M15.024,109.126c-0.396,0.313-1.119,0.49-1.966,0.601
						C13.615,109.484,14.267,109.268,15.024,109.126z M146.236,58.214c-0.023,0.016-0.04,0.028-0.057,0.045
						C144.765,58.57,145.269,58.466,146.236,58.214z M149.112,57.399c0.259-0.166,0.217-0.222,0.075-0.242
						c-0.154,0.185-0.781,0.42-1.51,0.647C147.919,57.851,148.311,57.803,149.112,57.399z M124.656,130.294l-0.588,0.079
						C125.254,129.797,124.951,130.04,124.656,130.294z"/>
					<path fill="#3386BD" d="M9.862,111.69c-0.199-0.015-0.277-0.082-0.348-0.153C9.303,111.7,9.33,111.79,9.862,111.69z"/>
					<path fill="#3386BD" d="M55.178,150.381l0.097-0.029c0.042-0.046,0.06-0.084,0.066-0.117L55.178,150.381z"/>
					<path fill="#3386BD" d="M107.047,76.924c-0.601,0.143-0.954,0.176-1.198,0.167C105.857,77.214,106.154,77.213,107.047,76.924z"
						/>
					<path fill="#3386BD" d="M163.699,51.264l-1.754,0.767c0.861-0.336,1.207-0.349,1.672-0.435
						C163.538,51.503,163.14,51.474,163.699,51.264z"/>
					<path fill="#3386BD" d="M180.309,48.445c0.243-0.15,0.555-0.207,0.793-0.356l-0.147-0.185
						C179.841,48.32,179.12,48.772,180.309,48.445z"/>
					<path fill="#3386BD" d="M165.907,52.171c0.28,0.331,1.36-0.206,2.594-0.73c-0.075,0.028-0.146,0.058-0.223,0.08
						C168.456,50.853,167.178,51.514,165.907,52.171z"/>
					<path fill="#3386BD" d="M168.788,51.323c0.381-0.158,0.774-0.312,1.16-0.43C170.018,50.626,169.46,51.019,168.788,51.323z"/>
					<path fill="#3386BD" d="M152.579,55.862c0.633-0.118,0.199-0.623,0.593-0.59C153.662,54.546,149.404,57.296,152.579,55.862z"/>
					<polygon fill="#3386BD" points="167.379,53.062 166.758,52.753 166.19,53.388 					"/>
					<path fill="#3386BD" d="M157.316,56.301l2.059-0.595c-0.059-0.068,0.18-0.207,0.48-0.356
						C158.611,55.782,157.219,56.179,157.316,56.301z"/>
					<path fill="#3386BD" d="M159.855,55.351c0.649-0.223,1.26-0.455,1.59-0.662C161.099,54.82,160.353,55.106,159.855,55.351z"/>
					<polygon fill="#3386BD" points="164.681,54.195 164.051,54.311 162.619,54.789 					"/>
					<path fill="#3386BD" d="M135.664,64.011l-2.146,0.927c-0.166,0.242,0.468,0.125,1.262-0.234
						C135.265,64.402,136.057,64.046,135.664,64.011z"/>
					<path fill="#3386BD" d="M142.767,62.906c-0.628,0.116-0.707,0.026-1.097-0.008l0.144,0.608L142.767,62.906z"/>
					<path fill="#3386BD" d="M136.416,65.353c-0.16,0.241-3.018,1.614-0.249,0.574C136.331,65.686,138.481,64.758,136.416,65.353z"
						/>
					<polygon fill="#3386BD" points="103.076,76.546 103.631,76.338 103.205,75.409 					"/>
					<path fill="#3386BD" d="M74.752,89.356c2.684-0.709,0.404-0.814,2.858-1.375c0.528-0.447-2.006,0.459-1.45,0.038
						C74.676,88.824,73.803,88.986,74.752,89.356z"/>
					<path fill="#3386BD" d="M76.16,88.019c0.238-0.129,0.488-0.271,0.749-0.435C76.476,87.808,76.278,87.931,76.16,88.019z"/>
					<path fill="#3386BD" d="M225.181,88.036c0,0,0.048-0.133,0.085-0.34c0.041-0.208,0.097-0.484,0.152-0.761
						c0.1-0.557,0.134-1.129,0.134-1.129s-0.088,0.364-0.175,0.728c-0.091,0.359-0.226,0.704-0.227,0.704
						C225.151,87.237,225.201,88.037,225.181,88.036z"/>
					<path fill="#3386BD" d="M224.377,83.915c0,0,0.135-0.155,0.269-0.311c0.133-0.163,0.266-0.325,0.266-0.325
						c0,0-0.226-0.287-0.462-0.553c-0.234-0.259-0.467-0.518-0.467-0.518C224.156,82.647,224.479,83.526,224.377,83.915z"/>
					<path fill="#3386BD" d="M13.927,143.896l-0.193-0.075c-0.065,0.317,0.064,0.712,0.322,1.506L13.927,143.896z"/>
					<path fill="#3386BD" d="M23.556,160.847l-0.281-0.041c0,0,0.118,0.159,0.236,0.317c0.129,0.163,0.259,0.325,0.259,0.325
						s-0.056-0.151-0.112-0.302C23.606,160.997,23.556,160.847,23.556,160.847z"/>
					<path fill="#3386BD" d="M41.222,154.348c-0.786,0.257-1.654,0.71-2.443,0.968C40.436,154.605,41.68,154.961,41.222,154.348z"/>
				</g>
			</g>
		</g>
	</g>
</g>
<polygon fill="#1575B3" points="92.968,47.219 97.109,52.55 103.458,50.259 99.668,55.845 103.81,61.176 97.326,59.297 
	93.535,64.882 93.318,58.136 86.835,56.257 93.185,53.966 "/>
<polygon fill="#1575B3" points="76.24,60.257 80.439,62.608 83.972,59.342 83.033,64.062 87.232,66.413 82.453,66.979 
	81.514,71.697 79.5,67.327 74.722,67.894 78.255,64.627 "/>
<polygon fill="#1575B3" points="66.156,73.535 69.96,74.5 72.053,71.18 72.311,75.096 76.115,76.061 72.47,77.516 72.728,81.431 
	70.218,78.415 66.574,79.87 68.667,76.551 "/>
<polygon fill="#1575B3" points="113.712,46.203 111.982,50.693 107.176,50.436 110.913,53.469 109.183,57.959 113.222,55.343 
	116.957,58.375 115.717,53.726 119.756,51.11 114.952,50.854 "/>
<polygon fill="#1575B3" points="129.951,49.983 127.638,53.155 123.908,51.937 126.21,55.115 123.899,58.286 127.632,57.079 
	129.934,60.257 129.941,56.333 133.673,55.126 129.944,53.908 "/>
<polygon fill="#1575B3" points="132.277,157.057 128.136,151.726 121.787,154.017 125.576,148.432 121.435,143.101 127.919,144.979 
	131.709,139.394 131.925,146.141 138.41,148.019 132.06,150.31 "/>
<polygon fill="#1575B3" points="149.004,144.019 144.806,141.667 141.272,144.934 142.21,140.214 138.013,137.863 142.792,137.298 
	143.73,132.579 145.745,136.948 150.523,136.383 146.99,139.648 "/>
<polygon fill="#1575B3" points="159.089,130.741 155.284,129.776 153.191,133.096 152.933,129.18 149.13,128.216 152.775,126.76 
	152.516,122.845 155.027,125.86 158.67,124.405 156.578,127.725 "/>
<polygon fill="#1575B3" points="111.533,158.072 113.263,153.582 118.068,153.84 114.332,150.808 116.062,146.317 112.023,148.933 
	108.288,145.9 109.527,150.55 105.488,153.165 110.293,153.423 "/>
<polygon fill="#1575B3" points="95.294,154.292 97.606,151.12 101.336,152.34 99.035,149.161 101.345,145.99 97.611,147.197 
	95.31,144.019 95.304,147.942 91.571,149.149 95.3,150.368 "/>
<g>
	<g>
		<path fill="#FFFFFF" d="M35.588,141.951c0.001,0.104-0.04,0.188-0.197,0.243c-0.219,0.076-0.949,0.296-2.537,0.779
			c-1.576,0.514-3.967,1.312-7.537,2.555c-1.221,0.426-2.776,1.002-3.798,1.394c-0.094,0.032-0.105,0.001-0.116-0.03
			c-0.043-0.125-0.057-0.366,0.026-0.43l1.331-0.815c0.197-0.139,0.29-0.276,0.17-0.621c-0.296-0.95-2.573-7.284-3.063-8.693
			c-0.456-1.21-2.56-7.044-2.981-8.056c-0.131-0.375-0.3-0.456-0.51-0.454l-1.371,0.196c-0.063,0.021-0.233-0.164-0.31-0.383
			c-0.011-0.031-0.021-0.063,0.041-0.085c0.752-0.262,1.483-0.481,2.141-0.71c0.657-0.229,1.252-0.437,1.753-0.611
			c6.982-2.433,9.361-3.367,9.737-3.498c0.125-0.043,0.209-0.002,0.253,0.123l1.648,4.026c0.032,0.093-0.195,0.347-0.289,0.38
			c-0.031,0.011-0.063,0.021-0.116-0.029c-0.776-0.817-1.542-1.604-2.36-2.442c-0.255-0.228-0.538-0.234-0.936-0.167
			c-1.476,0.199-4.276,0.929-4.746,1.093c-0.302,0.14-0.301,0.245-0.225,0.465c0.51,1.964,2.055,7.008,2.447,8.03
			c2.193-0.658,5.722-1.818,6.546-2.071c0.063-0.021,0.074,0.011,0.084,0.042c0.066,0.188,0.029,0.587-0.065,0.619
			c-1.178,0.551-4.223,1.788-5.796,2.512c-0.271,0.129-0.344,0.225-0.256,0.475c0.33,1.045,2.276,7.037,2.582,7.914
			c0.12,0.344,0.268,0.363,0.486,0.287c1.347-0.47,4.152-1.587,5.545-2.529c0.28-0.202,0.445-0.435,0.494-0.698
			c0.332-1.063,0.589-2.136,0.816-3.198c0.009-0.074,0.04-0.086,0.072-0.097c0.136-0.012,0.463,0.12,0.475,0.257L35.588,141.951z"/>
		<path fill="#FFFFFF" d="M55.857,113.261c0.063-0.021,0.074,0.01,0.095,0.072c0.065,0.188,0.09,0.46-0.024,0.535l-1.02,0.602
			c-0.312,0.214-0.287,0.485-0.198,0.841c0.295,0.949,2.472,6.897,2.887,8.088c0.544,1.461,2.516,6.918,3.07,8.41
			c0.151,0.333,0.278,0.395,0.519,0.381l1.342-0.08c0.105-0.002,0.255,0.227,0.298,0.353c0.011,0.031,0.022,0.063-0.041,0.084
			c-0.638,0.188-1.869,0.581-3.498,1.148c-1.784,0.622-3.464,1.242-4.111,1.502c-0.094,0.033-0.105,0.002-0.127-0.061
			c-0.043-0.126-0.057-0.367,0.026-0.431l1.56-0.965c0.197-0.139,0.152-0.368,0.054-0.651c-0.74-2.023-4.172-10.063-5.334-12.994
			c-0.151-0.333-0.325-0.729-0.455-1.104l-0.219,0.076c-0.015,0.462-0.03,0.923-0.037,1.206c-0.203,4.354-0.545,12.445-0.833,15.95
			c-0.046,0.473-0.17,0.621-0.932,0.956l-0.938,0.327c-0.125,0.044-0.23,0.045-0.306-0.069c-2.276-2.4-7.214-7.81-9.761-10.785
			c-0.181-0.217-0.606-0.631-0.81-0.911l-0.188,0.065c0.089,0.355,0.189,0.848,0.256,1.14c0.693,3.2,2.396,10.507,2.807,12.19
			c0.077,0.323,0.215,0.415,0.445,0.37l1.977-0.372c0.094-0.033,0.264,0.153,0.33,0.342c0.011,0.031,0.022,0.063-0.072,0.095
			c-0.606,0.177-1.619,0.494-2.715,0.876c-1.002,0.35-1.774,0.653-2.295,0.869c-0.063,0.022-0.074-0.009-0.096-0.071
			c-0.043-0.126-0.037-0.409,0.057-0.441l1.123-0.708c0.209-0.107,0.301-0.245,0.181-0.589c-0.48-1.483-2.192-7.102-2.608-8.396
			c-0.383-1.2-2.422-7.759-2.705-8.572c-0.141-0.303-0.258-0.437-0.635-0.41l-1.371,0.196c-0.105,0.001-0.255-0.228-0.31-0.384
			c-0.021-0.063-0.001-0.104,0.093-0.138l6.606-2.302c0.125-0.044,0.21-0.003,0.274,0.08c2.268,2.58,7.924,9.845,10.012,12.313
			c0.181,0.218,0.438,0.55,0.768,0.892l0.188-0.065c0.046-0.473,0.008-0.987,0.015-1.269c0.153-3.391,0.086-11.442,0.071-15.721
			c-0.002-0.104,0.039-0.188,0.133-0.222L55.857,113.261z"/>
		<path fill="#FFFFFF" d="M64.391,111.166c-0.094,0.033-0.233-0.165-0.288-0.322c-0.022-0.063-0.043-0.125,0.019-0.146
			c1.178-0.551,4.461-2.011,7.937-3.222c5.48-1.909,8.446-0.449,9.559,2.744c1.047,3.006-0.875,7.468-6.167,9.312
			c-0.438,0.152-1.064,0.371-1.274,0.374c0.363,1.243,1.806,5.585,2.144,6.557c0.087,0.249,0.277,0.289,0.506,0.244l2.229-0.354
			c0.095-0.033,0.296,0.143,0.351,0.3c0.021,0.063,0.001,0.104-0.062,0.126c-1.264,0.405-2.871,0.931-4.468,1.486
			c-1.754,0.611-2.996,1.079-3.799,1.394c-0.063,0.021-0.104,0.002-0.126-0.061c-0.055-0.158-0.058-0.367,0.057-0.441l1.123-0.708
			c0.197-0.139,0.289-0.276,0.169-0.621c-0.339-1.075-2.551-7.222-3.106-8.714c-0.425-1.221-2.417-6.637-2.874-7.847
			c-0.12-0.345-0.269-0.469-0.562-0.402L64.391,111.166z M74.952,119.003c2.254-0.785,3.108-3.574,1.952-6.895
			c-0.884-2.537-3.176-4.582-5.337-3.829c-0.532,0.185-0.832,0.536-0.71,0.985c0.889,2.955,2.752,8.908,2.992,9.596
			c0.077,0.325,0.57,0.328,1.071,0.154L74.952,119.003z"/>
		<path fill="#FFFFFF" d="M98.833,103.907c0.851,2.443-0.648,4.791-2.087,6.205c2.149,1.533,5.303,4.438,7.45,6.568
			c0.212,0.207,0.381,0.289,0.622,0.275l1.374-0.092c0.178,0.008,0.306,0.174,0.36,0.33c0.022,0.063,0.033,0.094-0.062,0.127
			c-0.825,0.252-1.775,0.549-3.528,1.159c-1.19,0.415-2.463,0.894-3.861,1.415c-0.094,0.033-0.104,0.002-0.126-0.061
			c-0.055-0.158-0.058-0.367,0.057-0.441l1.165-0.688c0.26-0.161,0.373-0.341,0.087-0.557c-2.193-1.659-4.966-3.572-7.502-5.006
			c-0.126-0.062-0.243-0.092-0.368-0.048c-0.157,0.055-0.793,0.241-1.044,0.329c0.427,1.326,1.838,5.68,2.274,6.932
			c0.109,0.313,0.236,0.375,0.477,0.361l1.498-0.136c0.105-0.001,0.265,0.153,0.319,0.311c0.021,0.063,0.001,0.104-0.062,0.126
			c-0.888,0.274-2.276,0.724-3.842,1.269c-1.597,0.557-3.058,1.101-3.704,1.36c-0.094,0.033-0.105,0.002-0.127-0.061
			c-0.065-0.188-0.068-0.398,0.025-0.431l1.28-0.762c0.197-0.14,0.247-0.297,0.16-0.547c-0.426-1.222-2.452-6.836-2.976-8.34
			c-0.467-1.241-2.591-7.137-3.058-8.273c-0.151-0.334-0.269-0.469-0.468-0.435l-1.317,0.248c-0.104,0.002-0.265-0.152-0.33-0.342
			c-0.011-0.031-0.032-0.094,0.062-0.126c1.522-0.671,4.44-1.969,7.478-3.026c5.542-1.931,8.639-0.902,9.763,2.322L98.833,103.907z
			 M91.956,112.588c2.286-0.796,3.274-3.704,2.183-6.835c-0.938-2.692-3.14-4.278-5.27-3.536c-0.626,0.218-0.844,0.399-0.713,0.776
			c0.672,2.433,2.646,8.803,2.843,9.367c0.131,0.375,0.331,0.446,0.926,0.238L91.956,112.588z"/>
		<path fill="#FFFFFF" d="M115.853,114.271c-5.542,1.932-9.932-0.088-11.982-5.974c-2.171-6.231-0.078-12.017,6.185-14.197
			c5.542-1.931,9.826,0.79,11.658,6.051c2.302,6.606,0.434,11.928-5.829,14.109L115.853,114.271z M116.272,113.457
			c2.881-1.003,2.677-5.217,0.648-11.04c-1.593-4.572-4.571-8.485-7.358-7.515c-2.662,0.928-3.023,5.232-0.896,11.338
			c1.593,4.572,4.756,8.21,7.574,7.228L116.272,113.457z"/>
		<path fill="#FFFFFF" d="M125.031,101.417c-1.418-4.07-0.71-7.582,0.716-9.94c1.416-2.283,3.625-4.106,6.6-5.143
			c1.535-0.534,2.832-0.74,3.651-0.605c0.147,0.019,0.211,0.103,0.266,0.259l1.872,4.264c0.086,0.146-0.161,0.443-0.318,0.498
			c-0.031,0.011-0.063,0.021-0.158-0.051c-1.053-1.107-2.276-2.402-3.137-3.261c-0.213-0.207-0.446-0.372-0.688-0.462
			c-0.253-0.123-0.736-0.201-1.363,0.017c-1.221,0.426-2.328,1.584-2.998,3.187c-0.972,2.551-0.857,5.602,0.375,9.14
			c1.876,5.386,5.614,6.542,8.464,5.549c0.595-0.207,1.345-0.574,1.75-0.821c0.823-0.462,1.59-1.08,2.43-1.794
			c0.083-0.064,0.189,0.039,0.298,0.353c0.033,0.095,0.023,0.167-0.018,0.251c-0.589,0.627-1.987,1.957-3.025,2.704
			c-0.51,0.354-1.54,0.924-2.573,1.284c-4.947,1.724-9.939,0.899-12.132-5.396L125.031,101.417z"/>
		<path fill="#FFFFFF" d="M159.253,98.871c0.001,0.104-0.04,0.188-0.197,0.243c-0.219,0.076-0.95,0.296-2.537,0.779
			c-1.577,0.514-3.967,1.312-7.537,2.556c-1.221,0.425-2.775,1.002-3.798,1.393c-0.094,0.033-0.105,0.002-0.116-0.029
			c-0.043-0.126-0.057-0.367,0.026-0.431l1.331-0.815c0.197-0.139,0.289-0.276,0.169-0.621c-0.295-0.95-2.573-7.284-3.064-8.692
			c-0.456-1.211-2.559-7.045-2.981-8.057c-0.131-0.375-0.3-0.456-0.509-0.454l-1.371,0.196c-0.063,0.021-0.233-0.164-0.31-0.383
			c-0.011-0.031-0.021-0.063,0.041-0.085c0.751-0.262,1.483-0.481,2.14-0.71c0.658-0.229,1.252-0.437,1.753-0.611
			c6.982-2.432,9.361-3.367,9.736-3.498c0.125-0.043,0.21-0.002,0.254,0.123l1.647,4.026c0.033,0.093-0.194,0.348-0.289,0.38
			c-0.031,0.012-0.063,0.022-0.116-0.029c-0.776-0.817-1.542-1.604-2.361-2.442c-0.254-0.228-0.538-0.234-0.935-0.167
			c-1.476,0.199-4.276,0.93-4.746,1.093c-0.303,0.141-0.301,0.245-0.225,0.465c0.509,1.965,2.055,7.008,2.446,8.031
			c2.193-0.659,5.722-1.819,6.547-2.071c0.063-0.022,0.074,0.01,0.084,0.041c0.065,0.188,0.029,0.587-0.065,0.619
			c-1.178,0.551-4.223,1.788-5.797,2.512c-0.271,0.129-0.343,0.225-0.255,0.475c0.33,1.045,2.276,7.038,2.582,7.915
			c0.12,0.344,0.268,0.362,0.486,0.286c1.347-0.469,4.152-1.587,5.544-2.528c0.281-0.203,0.445-0.436,0.494-0.699
			c0.332-1.063,0.59-2.136,0.817-3.198c0.009-0.074,0.04-0.085,0.071-0.097c0.137-0.011,0.464,0.12,0.476,0.257L159.253,98.871z"/>
		<path fill="#FFFFFF" d="M173.585,87.207c1.265,3.632-1.284,7.399-7.359,9.516c-1.283,0.447-2.788,0.865-3.564,0.854
			c-0.178-0.008-0.294-0.038-0.391-0.215l-1.953-4.095c-0.064-0.083,0.204-0.423,0.298-0.455c0.063-0.022,0.105-0.002,0.158,0.05
			c0.966,0.858,1.922,1.789,2.867,2.585c0.338,0.267,0.549,0.369,1.001,0.457c0.622,0.17,1.458,0.055,2.304-0.24
			c2.693-0.938,4.27-2.963,3.561-4.998c-0.654-1.878-2.394-2.536-6.045-2.635c-3.755-0.096-5.949-1.052-6.778-3.432
			c-1.145-3.287,1.679-7.678,6.877-9.488c1.284-0.447,2.591-0.728,3.253-0.642c0.178,0.008,0.262,0.049,0.317,0.205l1.794,3.94
			c0.033,0.094-0.184,0.38-0.309,0.424c-0.063,0.022-0.094,0.033-0.147-0.019c-0.988-0.921-1.975-1.841-2.982-2.718
			c-0.202-0.177-0.382-0.29-0.792-0.356c-0.483-0.078-1.039-0.061-1.822,0.212c-2.223,0.774-3.631,2.882-2.944,4.853
			c0.589,1.691,2.107,2.217,5.226,2.604c3.412,0.321,6.471,0.836,7.419,3.561L173.585,87.207z"/>
		<path fill="#FFFFFF" d="M189.458,81.677c1.266,3.632-1.284,7.4-7.358,9.517c-1.284,0.447-2.788,0.865-3.564,0.854
			c-0.178-0.009-0.294-0.038-0.391-0.215l-1.953-4.095c-0.065-0.083,0.203-0.423,0.298-0.456c0.063-0.021,0.104-0.001,0.157,0.051
			c0.967,0.857,1.923,1.789,2.867,2.584c0.339,0.268,0.55,0.369,1.002,0.457c0.622,0.17,1.458,0.055,2.304-0.239
			c2.693-0.938,4.27-2.963,3.561-4.998c-0.654-1.878-2.394-2.537-6.044-2.635c-3.755-0.096-5.949-1.052-6.778-3.432
			c-1.146-3.287,1.679-7.678,6.877-9.488c1.284-0.447,2.591-0.728,3.253-0.642c0.178,0.008,0.262,0.049,0.317,0.205l1.794,3.94
			c0.033,0.094-0.183,0.38-0.309,0.424c-0.063,0.021-0.094,0.032-0.146-0.02c-0.988-0.92-1.976-1.84-2.983-2.718
			c-0.202-0.176-0.381-0.289-0.791-0.355c-0.484-0.078-1.039-0.062-1.822,0.212c-2.223,0.774-3.632,2.881-2.944,4.853
			c0.589,1.691,2.106,2.217,5.226,2.604c3.413,0.321,6.471,0.836,7.42,3.561L189.458,81.677z"/>
		<path fill="#FFFFFF" d="M203.014,83.907c-5.542,1.932-9.932-0.088-11.982-5.974c-2.171-6.231-0.078-12.017,6.184-14.198
			c5.542-1.931,9.826,0.791,11.659,6.052c2.302,6.606,0.434,11.928-5.829,14.109L203.014,83.907z M203.433,83.094
			c2.881-1.004,2.677-5.217,0.648-11.04c-1.593-4.572-4.571-8.485-7.358-7.515c-2.662,0.928-3.023,5.232-0.896,11.338
			c1.593,4.572,4.756,8.21,7.574,7.228L203.433,83.094z"/>
	</g>
</g>
</svg>
